<svg width="24" height="25" viewBox="0 0 24 25" fill="none" xmlns="http://www.w3.org/2000/svg">
<path d="M11 15.2084H13V17.217H11V15.2084ZM11 7.17398H13V13.1998H11V7.17398ZM12 2.15247C6.47 2.15247 2 6.67183 2 12.1955C2 14.8591 3.05357 17.4135 4.92893 19.297C5.85752 20.2296 6.95991 20.9693 8.17317 21.474C9.38642 21.9787 10.6868 22.2385 12 22.2385C14.6522 22.2385 17.1957 21.1804 19.0711 19.297C20.9464 17.4135 22 14.8591 22 12.1955C22 10.8766 21.7413 9.57067 21.2388 8.35219C20.7362 7.13371 19.9997 6.02658 19.0711 5.094C18.1425 4.16142 17.0401 3.42165 15.8268 2.91695C14.6136 2.41224 13.3132 2.15247 12 2.15247ZM12 20.2299C9.87827 20.2299 7.84344 19.3834 6.34315 17.8767C4.84285 16.3699 4 14.3264 4 12.1955C4 10.0646 4.84285 8.02104 6.34315 6.5143C7.84344 5.00755 9.87827 4.16107 12 4.16107C14.1217 4.16107 16.1566 5.00755 17.6569 6.5143C19.1571 8.02104 20 10.0646 20 12.1955C20 14.3264 19.1571 16.3699 17.6569 17.8767C16.1566 19.3834 14.1217 20.2299 12 20.2299Z" fill="white"/>
</svg>
