<svg width="26" height="26" viewBox="0 0 26 26" fill="none" xmlns="http://www.w3.org/2000/svg">
<path d="M3.62506 10.375C3.40006 10.375 3.25006 10.525 3.25006 10.75V13.6375C3.25006 16.7125 2.87506 18.2875 2.12506 21.1375L1.37506 24.175C1.33756 24.2875 1.37506 24.4 1.45006 24.5125C1.52506 24.625 1.63756 24.625 1.75006 24.625H7.37506H18.6251H24.2501C24.3626 24.625 24.4751 24.5875 24.5501 24.475C24.6251 24.3625 24.6626 24.25 24.6251 24.1375L23.8751 21.1C23.1626 18.25 22.7501 16.675 22.7501 13.6V10.75C22.7501 10.525 22.6001 10.375 22.3751 10.375H17.1251V8.125H17.5001C17.7251 8.125 17.8751 8.275 17.8751 8.5C17.8751 9.325 18.5501 10 19.3751 10C20.2001 10 20.8751 9.325 20.8751 8.5C20.8751 8.275 21.0251 8.125 21.2501 8.125H22.7501V7.375H21.2501C20.6126 7.375 20.1251 7.8625 20.1251 8.5C20.1251 8.9125 19.7876 9.25 19.3751 9.25C18.9626 9.25 18.6251 8.9125 18.6251 8.5C18.6251 7.8625 18.1376 7.375 17.5001 7.375H17.1251V7C17.1251 6.775 16.9751 6.625 16.7501 6.625H9.25006C9.02506 6.625 8.87506 6.775 8.87506 7V10.375H3.62506ZM2.87506 21.325C3.58756 18.4 4.00006 16.7875 4.00006 13.6375V12.625H8.50006V11.875H4.00006V11.125H8.87506V11.3875C8.87506 13.075 8.76256 13.75 8.53756 15.0625C8.50006 15.325 8.42506 15.625 8.38756 16L7.07506 23.875H2.23756L2.87506 21.325ZM7.82506 23.875L9.10006 16.1125C9.17506 15.775 9.21256 15.475 9.25006 15.2125C9.47506 13.825 9.62506 13.15 9.62506 11.3875V8.875H16.3751V11.3875C16.3751 13.15 16.4876 13.825 16.7501 15.2125C16.7876 15.475 16.8626 15.775 16.9001 16.1125L18.1751 23.875H7.82506ZM22.0001 11.125V11.875H17.5001V12.625H22.0001V13.6375C22.0001 16.7875 22.4126 18.4 23.1251 21.325L23.7626 23.875H18.9251L17.6126 16C17.5376 15.6625 17.5001 15.3625 17.4626 15.0625C17.2376 13.75 17.1251 13.075 17.1251 11.3875V11.125H22.0001ZM16.3751 7.375V8.125H9.62506V7.375H16.3751Z" fill="url(#paint0_linear_937_5803)"/>
<path d="M16 17.875H13.75L15.1375 16.1125C15.25 15.9625 15.25 15.7 15.0625 15.5875C14.4625 15.1375 13.75 14.875 13 14.875C12.25 14.875 11.5375 15.1375 10.9375 15.5875C10.7875 15.7 10.75 15.9625 10.8625 16.1125L12.25 17.875H10C9.775 17.875 9.625 18.025 9.625 18.25C9.625 19.6375 10.45 20.875 11.725 21.4C11.7625 21.4 11.8 21.4375 11.875 21.4375C12.025 21.4375 12.175 21.3625 12.2125 21.2125L12.9625 19.3L13.7125 21.2125C13.7875 21.3625 13.9 21.4375 14.05 21.4375C14.0875 21.4375 14.125 21.4375 14.2 21.4C15.55 20.875 16.375 19.6375 16.375 18.25C16.375 18.025 16.225 17.875 16 17.875ZM14.3125 15.9625L13 17.65L11.6875 15.9625C12.475 15.5125 13.525 15.5125 14.3125 15.9625ZM11.6875 20.5375C10.975 20.125 10.525 19.45 10.4125 18.625H12.475L11.6875 20.5375ZM14.3125 20.5375L13.5625 18.625H15.625C15.475 19.4125 15.025 20.125 14.3125 20.5375Z" fill="url(#paint1_linear_937_5803)"/>
<path d="M10.7501 4.75C10.7501 4.1125 11.2376 3.625 11.8751 3.625C12.5126 3.625 13.0001 4.1125 13.0001 4.75V5.875H13.7501V4.75C13.7501 4.0375 13.3376 3.4 12.7001 3.1C12.9251 2.5 13.4501 2.125 14.0876 2.125H14.1251C14.9501 2.125 15.6251 2.8 15.6251 3.625C15.6251 4.45 16.3001 5.125 17.1251 5.125H19.7501V4.375H18.6251V3.85C18.6251 3.1 18.0251 2.5 17.2751 2.5H16.0751C15.7001 1.825 14.9876 1.375 14.1626 1.375H14.1251C13.1501 1.375 12.3251 1.975 12.0251 2.875C11.9876 2.875 11.9501 2.875 11.9126 2.875C10.8626 2.875 10.0376 3.7 10.0376 4.75V5.875H10.7876V4.75H10.7501ZM17.2751 3.25C17.6126 3.25 17.8751 3.5125 17.8751 3.85V4.375H17.1251C16.7126 4.375 16.3751 4.0375 16.3751 3.5875C16.3751 3.475 16.3751 3.3625 16.3376 3.25H17.2751Z" fill="url(#paint2_linear_937_5803)"/>
<path d="M17.875 5.875H18.625V6.625H17.875V5.875Z" fill="url(#paint3_linear_937_5803)"/>
<path d="M19.375 5.875H22V6.625H19.375V5.875Z" fill="url(#paint4_linear_937_5803)"/>
<path d="M1.75 7.75H7.75C7.975 7.75 8.125 7.6 8.125 7.375V6.25C8.125 5.0125 7.1125 4 5.875 4C4.8625 4 4.0375 4.6375 3.7375 5.575C3.5875 5.5375 3.4 5.5 3.25 5.5C2.2 5.5 1.375 6.325 1.375 7.375C1.375 7.6 1.525 7.75 1.75 7.75ZM3.25 6.25C3.6625 6.25 4.0375 6.475 4.225 6.85L4.9 6.5125C4.7875 6.2875 4.6 6.1 4.4125 5.9125C4.5625 5.2375 5.1625 4.75 5.875 4.75C6.7 4.75 7.375 5.425 7.375 6.25V7H2.2C2.35 6.55 2.7625 6.25 3.25 6.25Z" fill="url(#paint5_linear_937_5803)"/>
<defs>
<linearGradient id="paint0_linear_937_5803" x1="24.6398" y1="15.625" x2="2.29846" y2="13.6373" gradientUnits="userSpaceOnUse">
<stop stop-color="#5A97E7"/>
<stop offset="1" stop-color="#4B81C8"/>
</linearGradient>
<linearGradient id="paint1_linear_937_5803" x1="16.375" y1="18.1562" x2="9.87826" y2="17.6966" gradientUnits="userSpaceOnUse">
<stop stop-color="#5A97E7"/>
<stop offset="1" stop-color="#4B81C8"/>
</linearGradient>
<linearGradient id="paint2_linear_937_5803" x1="19.7501" y1="3.625" x2="10.5579" y2="2.26017" gradientUnits="userSpaceOnUse">
<stop stop-color="#5A97E7"/>
<stop offset="1" stop-color="#4B81C8"/>
</linearGradient>
<linearGradient id="paint3_linear_937_5803" x1="18.625" y1="6.25" x2="17.9029" y2="6.20033" gradientUnits="userSpaceOnUse">
<stop stop-color="#5A97E7"/>
<stop offset="1" stop-color="#4B81C8"/>
</linearGradient>
<linearGradient id="paint4_linear_937_5803" x1="22" y1="6.25" x2="19.6" y2="5.67214" gradientUnits="userSpaceOnUse">
<stop stop-color="#5A97E7"/>
<stop offset="1" stop-color="#4B81C8"/>
</linearGradient>
<linearGradient id="paint5_linear_937_5803" x1="8.125" y1="5.875" x2="1.69433" y2="5.07872" gradientUnits="userSpaceOnUse">
<stop stop-color="#5A97E7"/>
<stop offset="1" stop-color="#4B81C8"/>
</linearGradient>
</defs>
</svg>
