<svg width="26" height="26" viewBox="0 0 26 26" fill="none" xmlns="http://www.w3.org/2000/svg">
<path d="M25.1113 1.77405H0.888672C0.398684 1.77405 0 2.17273 0 2.66272V5.79059C0 6.28302 0.761719 6.28302 0.761719 5.79059V2.66272C0.761719 2.59274 0.818645 2.53577 0.888672 2.53577H25.1113C25.1814 2.53577 25.2383 2.59274 25.2383 2.66272V21.2354C25.2383 21.3054 25.1814 21.3624 25.1113 21.3624H20.2306V20.5699H24.0613C24.2717 20.5699 24.4421 20.3993 24.4421 20.189V16.2007C24.4421 15.7083 23.6804 15.7083 23.6804 16.2007V19.8081H20.2306V18.1183C20.243 18.1194 20.2555 18.1204 20.2673 18.1215C20.5834 18.1493 20.9767 18.1839 21.2491 17.9109C21.5212 17.6383 21.4868 17.2446 21.4591 16.9283C21.4293 16.5888 21.4614 16.4959 21.7223 16.279C22.3941 15.7204 22.4066 15.1223 21.7223 14.5535C21.4614 14.3364 21.4295 14.2436 21.4591 13.9041C21.5337 13.0521 21.1358 12.6346 20.2673 12.7109C19.9283 12.7407 19.8363 12.7085 19.6202 12.4475C19.0625 11.7741 18.464 11.7617 17.8959 12.4475C17.6797 12.7084 17.5878 12.7408 17.2489 12.7109C16.3963 12.636 15.9809 13.0362 16.0569 13.9041C16.0866 14.2436 16.0546 14.3364 15.7937 14.5535C15.1219 15.112 15.1095 15.7102 15.7937 16.279C16.0546 16.496 16.0866 16.5889 16.0569 16.9284C15.9769 17.8409 16.4128 18.1937 17.2853 18.1183V19.8082H2.31964V4.08993H23.6804V14.1694C23.6804 14.6619 24.4421 14.6619 24.4421 14.1694V3.70907C24.4421 3.49873 24.2717 3.32821 24.0613 3.32821H1.93878C1.72839 3.32821 1.55792 3.49873 1.55792 3.70907V20.189C1.55792 20.3993 1.72839 20.5699 1.93878 20.5699H17.2853V21.3624H0.888672C0.818645 21.3624 0.761719 21.3054 0.761719 21.2354V7.72023C0.761719 7.2278 0 7.2278 0 7.72023V21.2354C0 21.7254 0.398684 22.1241 0.888672 22.1241H17.2853V23.8481C17.3396 24.1611 17.5201 24.2762 17.8268 24.1934L18.758 23.7603L19.6892 24.1934C19.9196 24.3006 20.2306 24.1312 20.2306 23.8481V22.1241H25.1113C25.6013 22.1241 26 21.7254 26 21.2354V2.66272C26 2.17268 25.6013 1.77405 25.1113 1.77405ZM17.1821 17.3626C16.8008 17.3962 16.7823 17.3758 16.8157 16.9947C16.8668 16.4099 16.7323 16.0686 16.2806 15.6931C15.9716 15.4361 15.9716 15.3961 16.2806 15.1391C16.7323 14.7636 16.8669 14.4223 16.8157 13.8375C16.7823 13.4564 16.8008 13.4362 17.1821 13.4696C17.767 13.5211 18.1078 13.3856 18.4824 12.9333C18.7384 12.6243 18.7775 12.6243 19.0335 12.9333C19.4082 13.3856 19.7489 13.5209 20.3338 13.4696C20.7151 13.436 20.7336 13.4564 20.7003 13.8375C20.6491 14.4223 20.7836 14.7635 21.2353 15.139C21.5443 15.396 21.5445 15.4362 21.2352 15.6931C20.7835 16.0687 20.649 16.4098 20.7002 16.9946C20.7337 17.3757 20.7151 17.3961 20.3339 17.3626C20.0946 17.3416 19.8233 17.3177 19.5844 17.417C19.3532 17.513 19.1906 17.7092 19.0335 17.8989C18.9594 17.9883 18.8243 18.1515 18.7579 18.1807C18.6915 18.1515 18.5564 17.9883 18.4823 17.8989C18.3252 17.7092 18.1627 17.513 17.9314 17.417C17.6849 17.3418 17.4351 17.3237 17.1821 17.3626ZM18.9186 22.995C18.8167 22.9476 18.6992 22.9476 18.5974 22.995L18.047 23.251V18.5614C18.2278 18.7601 18.4508 18.9446 18.758 18.9446C19.0652 18.9446 19.2882 18.7601 19.4689 18.5614V23.251L18.9186 22.995Z" fill="url(#paint0_linear_937_5817)"/>
<path d="M4.93918 7.27795H18.0685C18.5609 7.27795 18.5609 6.51624 18.0685 6.51624H4.93918C4.44671 6.51624 4.44671 7.27795 4.93918 7.27795Z" fill="url(#paint1_linear_937_5817)"/>
<path d="M21.4417 9.21362C21.4417 9.00329 21.2713 8.83276 21.0609 8.83276H4.93914C4.44672 8.83276 4.44672 9.59448 4.93914 9.59448H21.0609C21.2713 9.59448 21.4417 9.42396 21.4417 9.21362Z" fill="url(#paint2_linear_937_5817)"/>
<path d="M14.4796 11.5302C14.4796 11.3198 14.3092 11.1493 14.0988 11.1493H4.93914C4.44672 11.1493 4.44672 11.911 4.93914 11.911H14.0988C14.3091 11.911 14.4796 11.7405 14.4796 11.5302Z" fill="url(#paint3_linear_937_5817)"/>
<path d="M9.47814 16.8389C9.2705 16.8393 9.0628 16.8395 8.85516 16.8397C8.45566 16.84 8.23573 16.7335 8.15412 16.3099C8.07963 15.9232 7.52184 15.9724 7.41962 16.3099C7.37438 16.4593 7.14586 16.8872 6.94624 16.8522C6.84046 16.8336 6.79425 16.6705 6.75515 16.586C6.67903 16.4215 6.62357 16.2472 6.57609 16.0725C6.37561 15.3344 6.33559 14.5638 6.21016 13.8118C6.13745 13.3758 5.47277 13.4991 5.46206 13.9131C5.42793 15.2319 5.21231 16.5327 4.74279 17.7689C4.56856 18.2276 5.30463 18.4259 5.47729 17.9714C5.65832 17.4948 5.80204 17.0067 5.91355 16.5114C5.97337 16.6919 6.04472 16.8689 6.13181 17.0411C6.35423 17.4806 6.80786 17.7407 7.29323 17.5452C7.46644 17.4754 7.62447 17.3534 7.75899 17.205C8.11934 17.6205 8.65543 17.6017 9.15558 17.6011C9.90953 17.6001 10.6635 17.5984 11.4175 17.5963C11.9076 17.5949 11.9085 16.8332 11.4175 16.8346C10.771 16.8364 10.1246 16.8379 9.47814 16.8389Z" fill="url(#paint4_linear_937_5817)"/>
<path d="M18.7581 16.9038C19.5784 16.9038 20.2457 16.2364 20.2457 15.4162C20.2457 14.5959 19.5784 13.9286 18.7581 13.9286C17.9379 13.9286 17.2705 14.596 17.2705 15.4162C17.2705 16.2364 17.9378 16.9038 18.7581 16.9038ZM18.7581 14.6903C19.1584 14.6903 19.484 15.016 19.484 15.4162C19.484 15.8164 19.1584 16.142 18.7581 16.142C18.3578 16.142 18.0322 15.8164 18.0322 15.4162C18.0322 15.0159 18.3578 14.6903 18.7581 14.6903Z" fill="url(#paint5_linear_937_5817)"/>
<defs>
<linearGradient id="paint0_linear_937_5817" x1="26" y1="12.9999" x2="1.00883" y2="11.0091" gradientUnits="userSpaceOnUse">
<stop stop-color="#5A97E7"/>
<stop offset="1" stop-color="#4B81C8"/>
</linearGradient>
<linearGradient id="paint1_linear_937_5817" x1="18.4378" y1="6.89709" x2="13.2154" y2="0.356245" gradientUnits="userSpaceOnUse">
<stop stop-color="#5A97E7"/>
<stop offset="1" stop-color="#4B81C8"/>
</linearGradient>
<linearGradient id="paint2_linear_937_5817" x1="21.4417" y1="9.21362" x2="16.5286" y2="1.72735" gradientUnits="userSpaceOnUse">
<stop stop-color="#5A97E7"/>
<stop offset="1" stop-color="#4B81C8"/>
</linearGradient>
<linearGradient id="paint3_linear_937_5817" x1="14.4796" y1="11.5302" x2="9.15709" y2="6.76664" gradientUnits="userSpaceOnUse">
<stop stop-color="#5A97E7"/>
<stop offset="1" stop-color="#4B81C8"/>
</linearGradient>
<linearGradient id="paint4_linear_937_5817" x1="11.7854" y1="15.8834" x2="5.0202" y2="15.182" gradientUnits="userSpaceOnUse">
<stop stop-color="#5A97E7"/>
<stop offset="1" stop-color="#4B81C8"/>
</linearGradient>
<linearGradient id="paint5_linear_937_5817" x1="20.2457" y1="15.4162" x2="17.3814" y2="15.2191" gradientUnits="userSpaceOnUse">
<stop stop-color="#5A97E7"/>
<stop offset="1" stop-color="#4B81C8"/>
</linearGradient>
</defs>
</svg>
