<svg width="26" height="26" viewBox="0 0 26 26" fill="none" xmlns="http://www.w3.org/2000/svg">
<path d="M13 0.8125C10.8463 0.812949 8.73106 1.38402 6.86973 2.46758C5.00839 3.55115 3.46736 5.10852 2.40349 6.98119C1.33963 8.85386 0.790908 10.975 0.813183 13.1286C0.835459 15.2823 1.42793 17.3916 2.53031 19.2418C2.4748 19.3091 2.44245 19.3924 2.43803 19.4795C2.43361 19.5666 2.45737 19.6528 2.50578 19.7254L2.96586 20.4155L1.00976 21.5891C0.939445 21.6313 0.883538 21.6938 0.849394 21.7684C0.81525 21.8429 0.804466 21.926 0.81846 22.0068C0.832455 22.0876 0.870573 22.1623 0.927802 22.221C0.985032 22.2798 1.05869 22.3198 1.1391 22.3359L2.8254 22.6731L2.71251 24.7593C2.70852 24.8329 2.72466 24.9063 2.7592 24.9715C2.79375 25.0366 2.84539 25.0912 2.90858 25.1293C2.97178 25.1673 3.04414 25.1874 3.11791 25.1875C3.19168 25.1875 3.26408 25.1675 3.32732 25.1295L6.43005 23.2658C8.39171 24.5205 10.6716 25.1873 13.0002 25.1873C15.3288 25.1873 17.6087 24.5205 19.5704 23.2658L22.6731 25.1295C22.7363 25.1675 22.8087 25.1875 22.8825 25.1875C22.9563 25.1874 23.0286 25.1673 23.0918 25.1293C23.155 25.0912 23.2067 25.0366 23.2412 24.9715C23.2757 24.9063 23.2919 24.8329 23.2879 24.7593L23.175 22.6731L24.8613 22.3359C24.9417 22.3198 25.0154 22.2798 25.0726 22.221C25.1298 22.1623 25.1679 22.0876 25.1819 22.0068C25.1959 21.926 25.1852 21.8429 25.151 21.7684C25.1169 21.6938 25.061 21.6313 24.9906 21.5891L23.0344 20.4155L23.4945 19.7254C23.5429 19.6528 23.5667 19.5666 23.5622 19.4794C23.5578 19.3923 23.5254 19.3089 23.4698 19.2417C24.5726 17.3915 25.1654 15.2821 25.1878 13.1283C25.2102 10.9745 24.6616 8.85327 23.5976 6.98049C22.5337 5.10771 20.9925 3.55031 19.1309 2.46685C17.2693 1.38339 15.1539 0.812568 13 0.8125ZM4.58908 19.1129C7.21398 17.853 10.0884 17.1988 13 17.1988C15.9116 17.1988 18.7861 17.853 21.411 19.1129L22.5586 19.6639L21.3864 21.4222C18.753 20.2238 15.8932 19.6037 12.9999 19.6037C10.1066 19.6037 7.24688 20.2238 4.6134 21.4222L3.44127 19.6639L4.58908 19.1129ZM13 16.3863C10.7051 16.3896 8.42716 16.7804 6.26237 17.5423C5.35421 16.2019 4.87077 14.6191 4.87503 13C4.87503 8.51982 8.51985 4.875 13 4.875C17.4802 4.875 21.125 8.51982 21.125 13C21.1289 14.619 20.6454 16.2017 19.7374 17.5422C17.5727 16.7803 15.2949 16.3896 13 16.3863ZM15.8118 20.6235C13.9969 21.2922 12.003 21.2922 10.1881 20.6235C12.0525 20.3471 13.9474 20.3471 15.8118 20.6235ZM3.56518 24.0389L3.65567 22.3657C3.66096 22.2682 3.63092 22.172 3.57105 22.0948C3.51119 22.0176 3.4255 21.9645 3.3297 21.9454L2.32886 21.7452L3.4171 21.0923L4.13078 22.1629C4.18496 22.2441 4.2666 22.3031 4.36074 22.3291C4.45489 22.3551 4.55524 22.3463 4.64341 22.3043C4.91533 22.1748 5.19045 22.0519 5.46876 21.9355L5.92579 22.621L3.56518 24.0389ZM6.86982 22.583C6.86082 22.5627 6.85019 22.5432 6.83803 22.5246L6.24206 21.6309C7.07191 21.3242 7.92156 21.0741 8.78518 20.8821C10.082 21.575 11.5297 21.9375 13 21.9375C14.4704 21.9375 15.918 21.575 17.2149 20.8821C18.0785 21.0739 18.9282 21.324 19.758 21.6306L19.1621 22.5244C19.1499 22.5429 19.1393 22.5624 19.1303 22.5827C17.2999 23.7529 15.1727 24.3747 13.0001 24.3747C10.8275 24.3747 8.70035 23.7529 6.86987 22.5827L6.86982 22.583ZM23.6712 21.7451L22.6703 21.9452C22.5745 21.9644 22.4889 22.0174 22.429 22.0946C22.3691 22.1718 22.3391 22.268 22.3444 22.3656L22.4349 24.0387L20.0743 22.621L20.5313 21.9355C20.8094 22.0521 21.0845 22.1751 21.3567 22.3043C21.4449 22.3463 21.5453 22.3552 21.6395 22.3292C21.7337 22.3032 21.8154 22.2442 21.8696 22.1629L22.5833 21.0923L23.6712 21.7451ZM22.7537 18.856L21.7626 18.3803C21.3544 18.1844 20.9395 18.0025 20.5178 17.8346C21.4484 16.3942 21.9415 14.7149 21.9375 13C21.9375 8.07183 17.9282 4.0625 13 4.0625C8.07186 4.0625 4.06253 8.07183 4.06253 13C4.05806 14.715 4.55107 16.3945 5.48181 17.8349C5.0608 18.0028 4.64609 18.1846 4.23767 18.3804L3.24678 18.856C2.21097 17.13 1.65177 15.1599 1.62627 13.1471C1.60077 11.1342 2.10989 9.15064 3.10164 7.39887C4.09339 5.64711 5.53225 4.18991 7.27131 3.17605C9.01037 2.16219 10.9873 1.62798 13.0004 1.62798C15.0134 1.62798 16.9903 2.16219 18.7294 3.17605C20.4685 4.18991 21.9073 5.64711 22.8991 7.39887C23.8908 9.15064 24.3999 11.1342 24.3744 13.1471C24.3489 15.1599 23.7897 17.13 22.7539 18.856H22.7537Z" fill="url(#paint0_linear_937_5780)"/>
<path d="M16.8594 9.75H14.625C14.5173 9.74988 14.414 9.70704 14.3379 9.63088C14.2617 9.55472 14.2189 9.45146 14.2187 9.34375V8.125C14.2184 7.80188 14.0898 7.49211 13.8614 7.26363C13.6329 7.03515 13.3231 6.90663 13 6.90625H12.1875C12.0798 6.90625 11.9764 6.94905 11.9002 7.02524C11.8241 7.10142 11.7812 7.20476 11.7812 7.3125V8.20793C11.7821 8.51481 11.7221 8.81881 11.6046 9.10233C11.4872 9.38585 11.3146 9.64325 11.097 9.85964L10.8005 10.1562H8.53125C8.42351 10.1562 8.32017 10.1991 8.24399 10.2752C8.1678 10.3514 8.125 10.4548 8.125 10.5625V15.0312C8.125 15.139 8.1678 15.2423 8.24399 15.3185C8.32017 15.3947 8.42351 15.4375 8.53125 15.4375H15.6406C15.8051 15.4375 15.9672 15.3976 16.1129 15.3212C16.2585 15.2447 16.3834 15.134 16.4769 14.9986C16.5703 14.8632 16.6294 14.7071 16.6492 14.5438C16.6689 14.3805 16.6487 14.2148 16.5902 14.061C16.7881 13.9359 16.9366 13.7462 17.0107 13.5241C17.0847 13.302 17.0797 13.0611 16.9965 12.8423C17.1943 12.7171 17.3429 12.5274 17.4169 12.3053C17.4909 12.0832 17.4859 11.8424 17.4027 11.6235C17.5885 11.5058 17.7311 11.3309 17.809 11.1252C17.8869 10.9194 17.8958 10.694 17.8346 10.4827C17.7733 10.2715 17.6451 10.0858 17.4692 9.95366C17.2934 9.82152 17.0793 9.75005 16.8594 9.75ZM8.9375 10.9688H10.5625V14.625H8.9375V10.9688ZM16.8594 10.9688H16.4531C16.3454 10.9688 16.242 11.0116 16.1659 11.0877C16.0897 11.1639 16.0469 11.2673 16.0469 11.375C16.0469 11.4827 16.0897 11.5861 16.1659 11.6623C16.242 11.7384 16.3454 11.7812 16.4531 11.7812C16.507 11.7812 16.5587 11.8027 16.5968 11.8407C16.6348 11.8788 16.6562 11.9305 16.6562 11.9844C16.6562 12.0382 16.6348 12.0899 16.5968 12.128C16.5587 12.1661 16.507 12.1875 16.4531 12.1875H16.0469C15.9391 12.1875 15.8358 12.2303 15.7596 12.3065C15.6834 12.3827 15.6406 12.486 15.6406 12.5938C15.6406 12.7015 15.6834 12.8048 15.7596 12.881C15.8358 12.9572 15.9391 13 16.0469 13C16.1007 13 16.1524 13.0214 16.1905 13.0595C16.2286 13.0976 16.25 13.1493 16.25 13.2031C16.25 13.257 16.2286 13.3087 16.1905 13.3468C16.1524 13.3848 16.1007 13.4062 16.0469 13.4062H15.6406C15.5329 13.4062 15.4295 13.4491 15.3534 13.5252C15.2772 13.6014 15.2344 13.7048 15.2344 13.8125C15.2344 13.9202 15.2772 14.0236 15.3534 14.0998C15.4295 14.1759 15.5329 14.2188 15.6406 14.2188C15.6945 14.2188 15.7462 14.2402 15.7843 14.2782C15.8223 14.3163 15.8437 14.368 15.8437 14.4219C15.8437 14.4757 15.8223 14.5274 15.7843 14.5655C15.7462 14.6036 15.6945 14.625 15.6406 14.625H11.375V10.7307L11.6716 10.4342C11.9649 10.1425 12.1974 9.79558 12.3557 9.41343C12.5139 9.03129 12.5949 8.62155 12.5937 8.20793V7.71875H13C13.1077 7.71887 13.211 7.76171 13.2871 7.83787C13.3633 7.91403 13.4061 8.01729 13.4062 8.125V9.34375C13.4066 9.66687 13.5352 9.97664 13.7636 10.2051C13.9921 10.4336 14.3019 10.5621 14.625 10.5625H16.8594C16.9132 10.5625 16.9649 10.5839 17.003 10.622C17.0411 10.6601 17.0625 10.7118 17.0625 10.7656C17.0625 10.8195 17.0411 10.8712 17.003 10.9093C16.9649 10.9473 16.9132 10.9688 16.8594 10.9688Z" fill="url(#paint1_linear_937_5780)"/>
<path d="M12.1575 18.2914L12.5333 18.5644L12.3897 19.0062C12.3798 19.0368 12.3798 19.0698 12.3897 19.1004C12.3996 19.131 12.419 19.1577 12.4451 19.1766C12.4711 19.1955 12.5024 19.2057 12.5346 19.2057C12.5668 19.2057 12.5982 19.1955 12.6242 19.1766L13 18.9035L13.3758 19.1766C13.4018 19.1955 13.4332 19.2057 13.4653 19.2057C13.4975 19.2057 13.5289 19.1955 13.5549 19.1766C13.581 19.1577 13.6003 19.131 13.6103 19.1004C13.6202 19.0698 13.6202 19.0368 13.6102 19.0062L13.4667 18.5644L13.8424 18.2914C13.8685 18.2725 13.8878 18.2458 13.8978 18.2152C13.9077 18.1846 13.9077 18.1517 13.8978 18.1211C13.8879 18.0905 13.8685 18.0638 13.8425 18.0449C13.8164 18.026 13.7851 18.0158 13.7529 18.0158H13.2884L13.1449 17.574C13.1349 17.5434 13.1155 17.5167 13.0895 17.4978C13.0635 17.4789 13.0322 17.4688 13 17.4688C12.9678 17.4688 12.9365 17.4789 12.9105 17.4978C12.8844 17.5167 12.8651 17.5434 12.8551 17.574L12.7115 18.0158H12.247C12.2149 18.0158 12.1835 18.026 12.1575 18.0449C12.1315 18.0638 12.1121 18.0905 12.1022 18.1211C12.0922 18.1517 12.0922 18.1846 12.1022 18.2152C12.1121 18.2458 12.1315 18.2725 12.1575 18.2914Z" fill="url(#paint2_linear_937_5780)"/>
<path d="M9.61016 18.456L9.98594 18.7291L9.84238 19.1709C9.83242 19.2015 9.8324 19.2344 9.84234 19.265C9.85227 19.2957 9.87165 19.3223 9.89769 19.3413C9.92372 19.3602 9.95508 19.3704 9.98727 19.3704C10.0195 19.3704 10.0508 19.3602 10.0768 19.3412L10.4526 19.0682L10.8284 19.3412C10.8544 19.3602 10.8858 19.3704 10.918 19.3704C10.9502 19.3704 10.9815 19.3602 11.0076 19.3413C11.0336 19.3223 11.053 19.2957 11.0629 19.265C11.0728 19.2344 11.0728 19.2015 11.0629 19.1709L10.9193 18.7291L11.2951 18.456C11.3211 18.4371 11.3405 18.4104 11.3504 18.3798C11.3604 18.3492 11.3604 18.3163 11.3504 18.2857C11.3405 18.2551 11.3211 18.2284 11.2951 18.2095C11.2691 18.1906 11.2377 18.1804 11.2056 18.1804H10.741L10.5975 17.7386C10.5876 17.708 10.5682 17.6813 10.5422 17.6624C10.5161 17.6435 10.4848 17.6333 10.4526 17.6333C10.4204 17.6333 10.3891 17.6435 10.363 17.6624C10.337 17.6813 10.3176 17.708 10.3077 17.7386L10.1642 18.1804H9.69969C9.66752 18.1804 9.63617 18.1906 9.61015 18.2095C9.58413 18.2284 9.56476 18.2551 9.55482 18.2857C9.54488 18.3163 9.54488 18.3492 9.55482 18.3798C9.56476 18.4104 9.58413 18.4371 9.61016 18.456Z" fill="url(#paint3_linear_937_5780)"/>
<path d="M7.06279 18.9283L7.43858 19.2013L7.29502 19.6431C7.28505 19.6737 7.28504 19.7067 7.29497 19.7373C7.30491 19.7679 7.32429 19.7946 7.35032 19.8135C7.37636 19.8325 7.40772 19.8427 7.4399 19.8426C7.47209 19.8426 7.50344 19.8324 7.52947 19.8135L7.90526 19.5405L8.28104 19.8135C8.30707 19.8324 8.33842 19.8426 8.37061 19.8426C8.40279 19.8427 8.43415 19.8325 8.46019 19.8135C8.48622 19.7946 8.5056 19.7679 8.51554 19.7373C8.52547 19.7067 8.52546 19.6737 8.51549 19.6431L8.37193 19.2013L8.74772 18.9283C8.77374 18.9094 8.79311 18.8827 8.80305 18.8521C8.813 18.8215 8.813 18.7886 8.80306 18.758C8.79312 18.7274 8.77375 18.7007 8.74772 18.6818C8.7217 18.6629 8.69036 18.6527 8.65819 18.6527H8.19364L8.05013 18.2109C8.0402 18.1803 8.02083 18.1536 7.9948 18.1347C7.96877 18.1158 7.93741 18.1056 7.90523 18.1056C7.87305 18.1056 7.84169 18.1158 7.81566 18.1347C7.78963 18.1536 7.77026 18.1803 7.76033 18.2109L7.61682 18.6527H7.15232C7.12015 18.6527 7.08881 18.6629 7.06279 18.6818C7.03676 18.7007 7.01739 18.7274 7.00745 18.758C6.99751 18.7886 6.99752 18.8215 7.00746 18.8521C7.0174 18.8827 7.03677 18.9094 7.06279 18.9283Z" fill="url(#paint4_linear_937_5780)"/>
<path d="M14.7054 18.456L15.0812 18.7291L14.9376 19.1709C14.9276 19.2015 14.9276 19.2344 14.9376 19.265C14.9475 19.2957 14.9669 19.3223 14.9929 19.3413C15.0189 19.3602 15.0503 19.3704 15.0825 19.3704C15.1147 19.3704 15.146 19.3602 15.1721 19.3412L15.5478 19.0682L15.9236 19.3412C15.9496 19.3602 15.981 19.3704 16.0132 19.3704C16.0454 19.3704 16.0767 19.3602 16.1028 19.3413C16.1288 19.3223 16.1482 19.2957 16.1581 19.265C16.1681 19.2344 16.168 19.2015 16.1581 19.1709L16.0145 18.7291L16.3903 18.456C16.4163 18.4371 16.4357 18.4104 16.4456 18.3798C16.4556 18.3492 16.4556 18.3163 16.4456 18.2857C16.4357 18.2551 16.4163 18.2284 16.3903 18.2095C16.3642 18.1906 16.3329 18.1804 16.3007 18.1804H15.8362L15.6927 17.7386C15.6828 17.708 15.6634 17.6813 15.6374 17.6624C15.6113 17.6435 15.58 17.6333 15.5478 17.6333C15.5156 17.6333 15.4843 17.6435 15.4582 17.6624C15.4322 17.6813 15.4128 17.708 15.4029 17.7386L15.2594 18.1804H14.7949C14.7627 18.1804 14.7314 18.1906 14.7054 18.2095C14.6793 18.2284 14.66 18.2551 14.65 18.2857C14.6401 18.3163 14.6401 18.3492 14.65 18.3798C14.66 18.4104 14.6793 18.4371 14.7054 18.456Z" fill="url(#paint5_linear_937_5780)"/>
<path d="M17.2527 18.9283L17.6285 19.2013L17.485 19.6431C17.475 19.6737 17.475 19.7067 17.4849 19.7373C17.4949 19.7679 17.5142 19.7946 17.5403 19.8135C17.5663 19.8325 17.5977 19.8427 17.6298 19.8426C17.662 19.8426 17.6934 19.8324 17.7194 19.8135L18.0952 19.5405L18.471 19.8135C18.497 19.8324 18.5284 19.8426 18.5605 19.8426C18.5927 19.8427 18.6241 19.8325 18.6501 19.8135C18.6762 19.7946 18.6955 19.7679 18.7055 19.7373C18.7154 19.7067 18.7154 19.6737 18.7054 19.6431L18.5619 19.2013L18.9377 18.9283C18.9637 18.9094 18.9831 18.8827 18.993 18.8521C19.0029 18.8215 19.0029 18.7886 18.993 18.758C18.983 18.7274 18.9637 18.7007 18.9376 18.6818C18.9116 18.6629 18.8803 18.6527 18.8481 18.6527H18.3836L18.2401 18.2109C18.2301 18.1803 18.2108 18.1536 18.1847 18.1347C18.1587 18.1158 18.1274 18.1056 18.0952 18.1056C18.063 18.1056 18.0316 18.1158 18.0056 18.1347C17.9796 18.1536 17.9602 18.1803 17.9503 18.2109L17.8068 18.6527H17.3423C17.3101 18.6527 17.2788 18.6629 17.2527 18.6818C17.2267 18.7007 17.2073 18.7274 17.1974 18.758C17.1875 18.7886 17.1875 18.8215 17.1974 18.8521C17.2073 18.8827 17.2267 18.9094 17.2527 18.9283Z" fill="url(#paint6_linear_937_5780)"/>
<defs>
<linearGradient id="paint0_linear_937_5780" x1="25.1885" y1="13" x2="1.72069" y2="11.3855" gradientUnits="userSpaceOnUse">
<stop stop-color="#5A97E7"/>
<stop offset="1" stop-color="#4B81C8"/>
</linearGradient>
<linearGradient id="paint1_linear_937_5780" x1="17.8748" y1="11.1719" x2="8.50176" y2="10.435" gradientUnits="userSpaceOnUse">
<stop stop-color="#5A97E7"/>
<stop offset="1" stop-color="#4B81C8"/>
</linearGradient>
<linearGradient id="paint2_linear_937_5780" x1="13.9052" y1="18.3372" x2="12.1629" y2="18.2123" gradientUnits="userSpaceOnUse">
<stop stop-color="#5A97E7"/>
<stop offset="1" stop-color="#4B81C8"/>
</linearGradient>
<linearGradient id="paint3_linear_937_5780" x1="11.3579" y1="18.5018" x2="9.61553" y2="18.3769" gradientUnits="userSpaceOnUse">
<stop stop-color="#5A97E7"/>
<stop offset="1" stop-color="#4B81C8"/>
</linearGradient>
<linearGradient id="paint4_linear_937_5780" x1="8.81051" y1="18.9741" x2="7.06816" y2="18.8492" gradientUnits="userSpaceOnUse">
<stop stop-color="#5A97E7"/>
<stop offset="1" stop-color="#4B81C8"/>
</linearGradient>
<linearGradient id="paint5_linear_937_5780" x1="16.4531" y1="18.5018" x2="14.7107" y2="18.3769" gradientUnits="userSpaceOnUse">
<stop stop-color="#5A97E7"/>
<stop offset="1" stop-color="#4B81C8"/>
</linearGradient>
<linearGradient id="paint6_linear_937_5780" x1="19.0005" y1="18.9741" x2="17.2581" y2="18.8492" gradientUnits="userSpaceOnUse">
<stop stop-color="#5A97E7"/>
<stop offset="1" stop-color="#4B81C8"/>
</linearGradient>
</defs>
</svg>
