<svg width="26" height="26" viewBox="0 0 26 26" fill="none" xmlns="http://www.w3.org/2000/svg">
<g clip-path="url(#clip0_937_5762)">
<path d="M8.66576 6.94689C8.4964 6.82212 8.25783 6.85838 8.13317 7.02784L7.37932 8.05204L7.12155 7.698C6.99775 7.52798 6.75948 7.4904 6.58937 7.61426C6.4193 7.73811 6.38177 7.97643 6.50563 8.1465L6.95032 8.75719C7.04934 8.89313 7.20885 8.97454 7.37698 8.97499H7.3783C7.54598 8.97499 7.70528 8.8945 7.80471 8.75943L8.7468 7.47954C8.87142 7.31008 8.83516 7.07161 8.66576 6.94689Z" fill="#3C7DD2"/>
<path d="M8.66581 13.1943C8.49645 13.0696 8.25788 13.1058 8.13322 13.2753L7.37937 14.2994L7.1216 13.9454C6.99775 13.7754 6.75958 13.7378 6.58937 13.8617C6.4193 13.9855 6.38177 14.2238 6.50563 14.3938L6.95032 15.0046C7.04929 15.1405 7.20879 15.222 7.37693 15.2224C7.37739 15.2224 7.37785 15.2224 7.37825 15.2224C7.54593 15.2224 7.70528 15.1419 7.80471 15.0068L8.7468 13.727C8.87147 13.5575 8.83521 13.319 8.66581 13.1943Z" fill="#3C7DD2"/>
<path d="M8.66581 19.1755C8.49645 19.0508 8.25788 19.087 8.13322 19.2565L7.37937 20.2806L7.1216 19.9266C6.99775 19.7566 6.75958 19.719 6.58937 19.8429C6.4193 19.9667 6.38177 20.205 6.50563 20.375L6.95032 20.9858C7.04929 21.1217 7.20879 21.2032 7.37693 21.2036C7.37739 21.2036 7.37785 21.2036 7.37825 21.2036C7.54593 21.2036 7.70528 21.1231 7.80471 20.988L8.7468 19.7082C8.87147 19.5388 8.83521 19.3003 8.66581 19.1755Z" fill="#3C7DD2"/>
<path d="M11.5797 7.50912H16.2879C16.4983 7.50912 16.6689 7.33859 16.6689 7.12815C16.6689 6.91772 16.4983 6.74719 16.2879 6.74719H11.5797C11.3693 6.74719 11.1987 6.91772 11.1987 7.12815C11.1987 7.33859 11.3693 7.50912 11.5797 7.50912Z" fill="#3C7DD2"/>
<path d="M11.5797 9.10055H13.9338C14.1442 9.10055 14.3148 8.93003 14.3148 8.71959C14.3148 8.50915 14.1442 8.33862 13.9338 8.33862H11.5797C11.3693 8.33862 11.1987 8.50915 11.1987 8.71959C11.1987 8.93003 11.3693 9.10055 11.5797 9.10055Z" fill="#3C7DD2"/>
<path d="M11.5797 13.6235H14.7387C14.9491 13.6235 15.1197 13.453 15.1197 13.2425C15.1197 13.0321 14.9491 12.8616 14.7387 12.8616H11.5797C11.3693 12.8616 11.1987 13.0321 11.1987 13.2425C11.1987 13.453 11.3693 13.6235 11.5797 13.6235Z" fill="#3C7DD2"/>
<path d="M13.9338 15.215C14.1442 15.215 14.3148 15.0445 14.3148 14.8341C14.3148 14.6236 14.1442 14.4531 13.9338 14.4531H11.5797C11.3693 14.4531 11.1987 14.6236 11.1987 14.8341C11.1987 15.0445 11.3693 15.215 11.5797 15.215H13.9338Z" fill="#3C7DD2"/>
<path d="M9.09402 5.48669H6.15917C5.6245 5.48669 5.18945 5.92174 5.18945 6.45641V9.39126C5.18945 9.92594 5.6245 10.361 6.15917 10.361H9.09402C9.62869 10.361 10.0637 9.92594 10.0637 9.39126V6.45641C10.0637 5.92174 9.62874 5.48669 9.09402 5.48669ZM9.30186 9.39126C9.30186 9.50582 9.20863 9.59906 9.09407 9.59906H6.15922C6.04466 9.59906 5.95142 9.50587 5.95142 9.39126V6.45641C5.95142 6.34185 6.04466 6.24862 6.15922 6.24862H9.09407C9.20863 6.24862 9.30186 6.3418 9.30186 6.45641V9.39126Z" fill="#3C7DD2"/>
<path d="M9.09402 11.6012H6.15917C5.6245 11.6012 5.18945 12.0362 5.18945 12.5709V15.5058C5.18945 16.0404 5.6245 16.4755 6.15917 16.4755H9.09402C9.62869 16.4755 10.0637 16.0404 10.0637 15.5058V12.5709C10.0637 12.0362 9.62874 11.6012 9.09402 11.6012ZM9.30186 15.5058C9.30186 15.6203 9.20863 15.7136 9.09407 15.7136H6.15922C6.04466 15.7136 5.95142 15.6204 5.95142 15.5058V12.5709C5.95142 12.4564 6.04466 12.3631 6.15922 12.3631H9.09407C9.20863 12.3631 9.30186 12.4563 9.30186 12.5709V15.5058Z" fill="#3C7DD2"/>
<path d="M9.09402 17.7155H6.15917C5.6245 17.7155 5.18945 18.1505 5.18945 18.6852V21.62C5.18945 22.1547 5.6245 22.5897 6.15917 22.5897H9.09402C9.62869 22.5897 10.0637 22.1547 10.0637 21.62V18.6852C10.0637 18.1505 9.62874 17.7155 9.09402 17.7155ZM9.30186 21.62C9.30186 21.7346 9.20863 21.8278 9.09407 21.8278H6.15922C6.04466 21.8278 5.95142 21.7346 5.95142 21.62V18.6852C5.95142 18.5706 6.04466 18.4774 6.15922 18.4774H9.09407C9.20863 18.4774 9.30186 18.5706 9.30186 18.6852V21.62Z" fill="#3C7DD2"/>
<path d="M23.6261 6.51615L23.0215 6.13326C22.7075 5.9344 22.3349 5.86986 21.9724 5.95126C21.6099 6.03276 21.3008 6.25056 21.1021 6.56454L20.5477 7.44062L19.7778 8.65709L18.9072 10.0328V4.31443C18.9072 3.92062 18.5869 3.60024 18.193 3.60024H15.4633V2.83837H19.1178C19.4218 2.83837 19.6692 3.08567 19.6692 3.3897V6.68886C19.6692 6.89929 19.8397 7.06982 20.0501 7.06982C20.2605 7.06982 20.4311 6.89929 20.4311 6.68886V3.3897C20.4311 2.66561 19.842 2.07645 19.1178 2.07645H15.3845C15.2285 1.6998 14.8573 1.43401 14.425 1.43401H13.4408V1.05036C13.4408 0.47125 12.9696 0 12.3904 0H9.76819C9.18898 0 8.71778 0.47125 8.71778 1.05041V1.43406H7.73364C7.30129 1.43406 6.93013 1.69985 6.77418 2.0765H3.04079C2.31665 2.0765 1.72754 2.66561 1.72754 3.38975V24.6868C1.72754 25.4109 2.31665 26 3.04079 26H19.1179C19.842 26 20.4311 25.4109 20.4311 24.6868V16.145C20.4311 15.9345 20.2606 15.764 20.0502 15.764C19.8398 15.764 19.6692 15.9345 19.6692 16.145V24.6867C19.6692 24.9908 19.4219 25.2381 19.1178 25.2381H3.04079C2.73677 25.2381 2.48941 24.9908 2.48941 24.6867V3.3897C2.48941 3.08567 2.73677 2.83837 3.04079 2.83837H6.69531V3.60029H3.96552C3.57171 3.60029 3.25133 3.92067 3.25133 4.31448V23.762C3.25133 24.1558 3.57171 24.4762 3.96552 24.4762H18.1931C18.5869 24.4762 18.9073 24.1558 18.9073 23.762V16.5728L22.7327 10.528C22.7327 10.5279 22.7328 10.5277 22.7329 10.5276L23.5025 9.31155L24.0573 8.43492C24.4672 7.787 24.2738 6.92626 23.6261 6.51615ZM22.1395 6.69464C22.3035 6.65768 22.4719 6.68698 22.6139 6.77691L23.2185 7.15985C23.5114 7.3453 23.5988 7.73449 23.4134 8.02745L23.0624 8.58208L21.3952 7.52629L21.746 6.97201C21.8358 6.82998 21.9755 6.73146 22.1395 6.69464ZM14.9244 21.4418C14.8523 21.5557 14.7716 21.663 14.6831 21.7635C14.5636 21.6032 14.4277 21.458 14.2782 21.33L21.3768 10.1203L21.8852 10.4424L14.9244 21.4418ZM12.323 23.7138C12.3204 23.7129 12.3171 23.7111 12.3158 23.7111C12.3156 23.7111 12.3154 23.7112 12.3153 23.7114C13.1405 20.2843 12.7388 21.9527 12.8535 21.4763C13.3484 21.559 13.8085 21.8372 14.1113 22.2728C12.0942 23.8982 12.3517 23.6878 12.323 23.7138ZM20.9877 8.17009L22.655 9.22589L22.2926 9.7985L20.6254 8.7427L20.9877 8.17009ZM7.45718 2.48087C7.45744 2.4762 7.45774 2.47152 7.45784 2.4668C7.4579 2.46518 7.45769 2.4636 7.45774 2.46198C7.46323 2.31441 7.5847 2.19588 7.73364 2.19588H8.82498C9.18598 2.19588 9.4797 1.90216 9.4797 1.54116V1.05036C9.4797 0.891262 9.60914 0.761871 9.76824 0.761871H12.3905C12.5496 0.761871 12.679 0.891262 12.679 1.05036V1.54116C12.679 1.90216 12.9727 2.19588 13.3337 2.19588H14.4251C14.574 2.19588 14.6955 2.31436 14.701 2.46198C14.701 2.4636 14.7008 2.46518 14.7009 2.4668C14.701 2.47142 14.7013 2.47609 14.7015 2.48077V3.60024H7.45718V2.48087ZM4.0132 4.36216H18.1454V11.2368L14.1582 17.5373C14.0457 17.7151 14.0986 17.9505 14.2764 18.0629C14.4534 18.1749 14.689 18.1233 14.802 17.9447L20.2179 9.38651L20.733 9.71268L13.6345 20.9224C13.4549 20.842 13.2656 20.7812 13.0695 20.7417C13.1226 20.6188 13.1851 20.4999 13.2572 20.3859L13.8494 19.4502C13.9619 19.2724 13.909 19.0371 13.7312 18.9245C13.5534 18.8121 13.318 18.865 13.2056 19.0428L12.6134 19.9785C12.4177 20.2875 12.2752 20.6243 12.1895 20.9797C12.1895 20.9798 12.1894 20.9798 12.1894 20.9799L11.5756 23.5266C11.5604 23.5896 11.5533 23.6525 11.5535 23.7143H4.0132V4.36216ZM18.1454 23.7143H13.5368L14.8443 22.6607C15.1289 22.4314 15.3724 22.1584 15.5681 21.8493L18.1454 17.7768V23.7143Z" fill="#3C7DD2"/>
</g>
<defs>
<clipPath id="clip0_937_5762">
<rect width="26" height="26" fill="white"/>
</clipPath>
</defs>
</svg>
