<svg width="28" height="28" viewBox="0 0 28 28" fill="none" xmlns="http://www.w3.org/2000/svg">
<g clip-path="url(#clip0_937_5793)">
<path d="M5.40282 18.3339H7.90712C8.2173 18.3339 8.51296 18.1959 8.74004 17.9453C9.04103 17.6129 9.191 17.1161 9.14144 16.6164L8.76396 12.8199C8.68685 12.0434 8.16774 11.4796 7.52965 11.4796H5.78029C5.1422 11.4796 4.6231 12.0434 4.54598 12.8199L4.16851 16.6164C4.11895 17.1161 4.26891 17.6129 4.56991 17.9453C4.79699 18.1959 5.09264 18.3339 5.40282 18.3339ZM4.99779 16.6989L5.37505 12.9023C5.41137 12.5383 5.61367 12.313 5.78029 12.313H7.52965C7.69628 12.313 7.89879 12.5383 7.93489 12.9023L8.31215 16.6989C8.33864 16.9644 8.2658 17.2276 8.12245 17.3861C8.07503 17.4384 7.99919 17.5008 7.90712 17.5008H5.40282C5.31075 17.5008 5.23491 17.4384 5.1877 17.3861C5.04415 17.2276 4.9713 16.9644 4.99779 16.6989Z" fill="url(#paint0_linear_937_5793)"/>
<path d="M19.9969 3.46176C20.9514 3.46176 21.7277 2.68524 21.7277 1.73077C21.7277 0.77652 20.9514 0 19.9969 0C19.0424 0 18.2661 0.77652 18.2661 1.73077C18.2661 2.68524 19.0424 3.46176 19.9969 3.46176ZM19.9969 0.83313C20.4919 0.83313 20.8945 1.23581 20.8945 1.73077C20.8945 2.22574 20.4919 2.62842 19.9969 2.62842C19.5019 2.62842 19.0992 2.22574 19.0992 1.73077C19.0992 1.23581 19.5019 0.83313 19.9969 0.83313Z" fill="url(#paint1_linear_937_5793)"/>
<path d="M20.7471 13.9478C20.7471 15.2511 21.8075 16.3118 23.111 16.3118C24.4146 16.3118 25.475 15.2511 25.475 13.9478C25.475 12.6443 24.4146 11.5839 23.111 11.5839C21.8075 11.5839 20.7471 12.6443 20.7471 13.9478ZM23.111 12.417C23.955 12.417 24.6416 13.1036 24.6416 13.9478C24.6416 14.7918 23.955 15.4784 23.111 15.4784C22.267 15.4784 21.5802 14.7918 21.5802 13.9478C21.5802 13.1038 22.267 12.417 23.111 12.417Z" fill="url(#paint2_linear_937_5793)"/>
<path d="M24.5152 23.2363C24.5223 23.2169 24.5283 23.197 24.5325 23.1761C24.59 22.8954 24.6193 22.6066 24.6193 22.3177C24.6193 19.9679 22.7076 18.0564 20.3577 18.0564C19.5938 18.0564 18.8651 18.254 18.2191 18.6313L17.4828 13.2997C18.6331 12.5377 19.315 11.2748 19.315 9.88601C19.315 7.62717 17.4774 5.7896 15.2188 5.7896C14.3874 5.7896 13.5814 6.0453 12.9055 6.50758V5.11775C12.9055 4.88768 12.719 4.70119 12.4889 4.70119H11.4401V2.65619C11.4401 2.42612 11.2536 2.23962 11.0235 2.23962H7.56474C7.33467 2.23962 7.14818 2.42612 7.14818 2.65619V4.70119H6.09951C5.86944 4.70119 5.68273 4.88768 5.68273 5.11775V7.82947C3.69584 7.83396 2.00032 9.32013 1.73692 11.2904L1.36308 14.0869C1.33254 14.315 1.49275 14.5246 1.72069 14.5551C1.94841 14.5855 2.1584 14.4253 2.18895 14.1973L2.56278 11.4008C2.77149 9.83987 4.11646 8.6626 5.69149 8.6626H13.2505C14.8255 8.6626 16.1705 9.83987 16.3796 11.4027L17.5913 20.1762C16.9492 19.4163 15.9915 18.9472 14.9499 18.9472C14.0819 18.9472 13.2522 19.2704 12.6135 19.857C12.0895 20.3385 11.7306 20.9623 11.5778 21.6468C11.4202 21.629 11.2621 21.6201 11.1045 21.6201C8.75419 21.6201 6.84206 23.5322 6.84206 25.8825C6.84206 26.3262 6.90892 26.7579 7.04073 27.1725H4.06092C4.00238 27.1725 3.94364 27.1706 3.88511 27.1674C3.8725 27.1668 3.86033 27.1653 3.84772 27.1644C3.80201 27.1612 3.75608 27.1578 3.71036 27.1527C3.69135 27.1505 3.67234 27.1475 3.65311 27.145C3.61594 27.1401 3.57856 27.1351 3.54139 27.1292C3.5055 27.1232 3.46982 27.1159 3.43415 27.1089C3.41706 27.1052 3.39976 27.1022 3.38267 27.0986C2.72984 26.9551 2.13319 26.6064 1.68544 26.0948C1.08602 25.4097 0.811511 24.4997 0.931994 23.5976L1.27336 21.0441H10.4405C10.6706 21.0441 10.8571 20.8576 10.8571 20.6276C10.8571 20.3975 10.6706 20.2108 10.4405 20.2108H1.38487L1.94243 16.0407C1.97297 15.8125 1.81276 15.603 1.58461 15.5724C1.35667 15.5417 1.14711 15.7021 1.11656 15.9302L0.0206826 24.1276C-0.0850603 24.9184 0.227896 25.7987 0.879016 26.543C1.64378 27.4167 2.71424 27.9399 3.84366 27.9997C3.91587 28.0035 25.9305 27.9736 25.9305 27.9736C26.1176 27.9736 26.2819 27.8488 26.3319 27.6686C26.4271 27.3265 26.4752 26.9741 26.4752 26.6207C26.4752 25.1754 25.6854 23.9116 24.5152 23.2363ZM7.98131 3.07296H10.6069V4.70119H7.98131V3.07296ZM12.0722 7.82926H6.51607V5.53432H12.0722V7.82926ZM17.2051 11.2904C16.9413 9.31714 15.2413 7.82926 13.2505 7.82926H12.9055V7.58509C13.516 6.97178 14.3502 6.62272 15.2188 6.62272C17.0179 6.62272 18.4819 8.08667 18.4819 9.8858C18.4819 10.8518 18.0677 11.7415 17.3525 12.3559L17.2051 11.2904ZM20.3577 18.8895C22.2481 18.8895 23.7859 20.4274 23.7859 22.3175C23.7859 22.5111 23.7688 22.704 23.7368 22.8932C23.3681 22.7777 22.9761 22.7149 22.5696 22.7149C22.2455 22.7149 21.9259 22.7546 21.6149 22.833C21.2188 21.7194 20.1595 20.9512 18.9425 20.9512C18.8077 20.9512 18.6746 20.9606 18.5434 20.979L18.345 19.5422C18.932 19.1147 19.6248 18.8895 20.3577 18.8895ZM25.5976 27.1403H7.91338C7.7553 26.741 7.6754 26.3189 7.6754 25.8822C7.6754 23.9915 9.21369 22.4532 11.1045 22.4532C11.3484 22.4532 11.5943 22.4799 11.8355 22.5322C11.9521 22.5576 12.0741 22.5316 12.1704 22.4609C12.2668 22.3902 12.3281 22.2816 12.3388 22.1627C12.462 20.8044 13.5846 19.7803 14.9499 19.7803C16.1333 19.7803 17.1745 20.5776 17.4819 21.7192C17.5144 21.8392 17.5986 21.9386 17.7116 21.99C17.8246 22.0415 17.9549 22.0398 18.0666 21.9853C18.1493 21.9452 18.2341 21.9117 18.3204 21.8835C18.3253 21.8817 18.3304 21.8805 18.3354 21.8785C18.5304 21.8166 18.7333 21.7843 18.9425 21.7843C19.9149 21.7843 20.7444 22.4782 20.9151 23.4341C20.9368 23.5563 21.0123 23.6625 21.1201 23.7236C21.2282 23.7847 21.3581 23.7943 21.4739 23.7501C21.8247 23.6161 22.1932 23.5482 22.5696 23.5482C24.2638 23.5482 25.6421 24.9265 25.6421 26.6207C25.6421 26.7946 25.6271 26.9685 25.5976 27.1403Z" fill="url(#paint3_linear_937_5793)"/>
</g>
<defs>
<linearGradient id="paint0_linear_937_5793" x1="9.15076" y1="14.9068" x2="4.3345" y2="14.6655" gradientUnits="userSpaceOnUse">
<stop stop-color="#5A97E7"/>
<stop offset="1" stop-color="#4B81C8"/>
</linearGradient>
<linearGradient id="paint1_linear_937_5793" x1="21.7277" y1="1.73088" x2="18.3951" y2="1.50164" gradientUnits="userSpaceOnUse">
<stop stop-color="#5A97E7"/>
<stop offset="1" stop-color="#4B81C8"/>
</linearGradient>
<linearGradient id="paint2_linear_937_5793" x1="25.475" y1="13.9478" x2="20.9232" y2="13.6347" gradientUnits="userSpaceOnUse">
<stop stop-color="#5A97E7"/>
<stop offset="1" stop-color="#4B81C8"/>
</linearGradient>
<linearGradient id="paint3_linear_937_5793" x1="26.4752" y1="15.1198" x2="0.99361" y2="13.3183" gradientUnits="userSpaceOnUse">
<stop stop-color="#5A97E7"/>
<stop offset="1" stop-color="#4B81C8"/>
</linearGradient>
<clipPath id="clip0_937_5793">
<rect width="28" height="28" fill="white"/>
</clipPath>
</defs>
</svg>
