<svg width="10" height="15" viewBox="0 0 10 15" fill="none" xmlns="http://www.w3.org/2000/svg">
<path d="M5 6.96255C5.4736 6.96255 5.9278 6.77738 6.26269 6.44778C6.59758 6.11818 6.78571 5.67114 6.78571 5.20502C6.78571 4.73889 6.59758 4.29186 6.26269 3.96226C5.9278 3.63266 5.4736 3.44749 5 3.44749C4.5264 3.44749 4.0722 3.63266 3.73731 3.96226C3.40242 4.29186 3.21429 4.73889 3.21429 5.20502C3.21429 5.43582 3.26047 5.66436 3.35021 5.87759C3.43996 6.09083 3.57149 6.28458 3.73731 6.44778C3.90313 6.61098 4.09998 6.74044 4.31664 6.82876C4.53329 6.91709 4.7655 6.96255 5 6.96255ZM5 0.283936C6.32608 0.283936 7.59785 0.802405 8.53553 1.72529C9.47322 2.64817 10 3.89987 10 5.20502C10 8.89583 5 14.3442 5 14.3442C5 14.3442 0 8.89583 0 5.20502C0 3.89987 0.526784 2.64817 1.46447 1.72529C2.40215 0.802405 3.67392 0.283936 5 0.283936Z" fill="#3C7DD2"/>
</svg>
