<svg width="23" height="22" viewBox="0 0 23 22" fill="none" xmlns="http://www.w3.org/2000/svg">
<path d="M14.2221 2.26287C12.7507 1.53688 11.2341 1.11686 9.95155 1.08017C8.61191 1.04187 7.6706 1.4284 7.29734 2.16867C7.24812 2.2499 6.80107 3.00511 6.37903 4.29545C5.79621 6.10138 5.55009 7.999 5.65292 9.89386C5.77788 12.2223 5.66399 13.7308 5.54646 14.5862C5.48572 15.0163 5.57947 15.4541 5.81104 15.8216L4.89471 17.5118C4.8938 17.5134 4.89293 17.5151 4.8921 17.5168C4.8803 17.5406 4.86221 17.5607 4.83978 17.5749C4.81736 17.5892 4.79146 17.597 4.76489 17.5976C4.58458 17.5997 4.40677 17.64 4.24326 17.7161C4.07976 17.7921 3.93431 17.9021 3.81658 18.0387C3.69884 18.1753 3.61152 18.3353 3.56042 18.5083C3.50931 18.6812 3.49558 18.863 3.52016 19.0417C3.54473 19.2203 3.60703 19.3917 3.70293 19.5444C3.79883 19.6971 3.92612 19.8276 4.07636 19.9274C4.2266 20.0271 4.39633 20.0937 4.5743 20.1228C4.75226 20.1519 4.93437 20.1427 5.10854 20.096C5.22242 20.4049 5.45226 20.6571 5.74922 20.7992C5.9181 20.8804 6.10312 20.9224 6.29052 20.9223C6.53302 20.9227 6.77058 20.8538 6.97515 20.7235C7.17973 20.5933 7.34277 20.4073 7.44502 20.1874C7.54728 19.9675 7.58447 19.723 7.55221 19.4826C7.51996 19.2423 7.4196 19.0162 7.26299 18.831C7.24216 18.807 7.22892 18.7774 7.22494 18.7459C7.22095 18.7143 7.22641 18.6823 7.24061 18.6539L8.06954 17.0252C8.31862 17.0159 8.56319 16.956 8.78839 16.8492C9.01359 16.7424 9.2147 16.5909 9.37949 16.4039C10.1439 15.5307 11.6261 14.1374 14.3455 12.4583C17.8115 10.3177 18.4521 7.98767 18.5218 7.68746C19.2255 6.1797 17.3471 3.8049 14.2221 2.26287ZM6.81787 18.4379C6.76107 18.5494 6.73857 18.6753 6.75318 18.7996C6.7678 18.9239 6.81889 19.041 6.90001 19.1363C7.00627 19.2632 7.07077 19.4197 7.08469 19.5846C7.09862 19.7494 7.06129 19.9146 6.97781 20.0574C6.89387 20.2007 6.76699 20.3139 6.61514 20.381C6.4633 20.4481 6.29419 20.4658 6.13175 20.4315C5.96931 20.3972 5.82178 20.3126 5.71006 20.1898C5.59833 20.067 5.52807 19.9122 5.50922 19.7472C5.50459 19.7087 5.49057 19.6719 5.46839 19.64C5.44622 19.6082 5.41656 19.5823 5.38203 19.5645C5.3475 19.5468 5.30915 19.5378 5.27035 19.5384C5.23154 19.5389 5.19346 19.549 5.15945 19.5677C5.03723 19.6358 4.89898 19.6699 4.75911 19.6664C4.61923 19.663 4.48285 19.622 4.36416 19.5479C4.21753 19.4573 4.10422 19.3215 4.0412 19.161C3.97818 19.0006 3.96885 18.824 4.0146 18.6578C4.06035 18.4915 4.15872 18.3446 4.29497 18.2389C4.43123 18.1333 4.59804 18.0747 4.77042 18.0718C4.88287 18.0703 4.99278 18.0382 5.08835 17.979C5.18393 17.9197 5.26155 17.8355 5.31287 17.7355L6.1403 16.2093C6.24267 16.3003 6.35479 16.3798 6.47462 16.4462L7.11004 16.7988C7.25227 16.8775 7.40447 16.9367 7.56252 16.9748L6.81787 18.4379ZM14.0961 12.0544C11.3264 13.7646 9.80829 15.1936 9.02241 16.0913C8.81689 16.3238 8.53837 16.4794 8.23265 16.5326C7.92693 16.5858 7.61221 16.5334 7.34023 16.384L6.70481 16.0314C6.46338 15.8984 6.26818 15.6951 6.14521 15.4484C6.02224 15.2017 5.97733 14.9234 6.01645 14.6506C6.13678 13.7748 6.25364 12.2342 6.12658 9.86829C5.97091 6.96823 6.68504 4.68669 7.20381 3.44525C7.56501 4.82833 9.21496 6.46967 11.577 7.63524C13.0483 8.3612 14.5649 8.78125 15.8475 8.81794C15.9081 8.81968 15.9679 8.82055 16.027 8.82055C16.6919 8.82055 17.2513 8.71081 17.6825 8.50066C17.2137 9.38043 16.2035 10.7532 14.0961 12.0544ZM18.0829 7.50701C17.8051 8.07123 16.9955 8.37645 15.8612 8.34376C14.6454 8.30898 13.1986 7.90627 11.7871 7.20981C8.97706 5.82337 7.11289 3.61666 7.71614 2.39115C7.98044 1.85419 8.72663 1.55198 9.77575 1.55198C9.82904 1.55198 9.88307 1.55276 9.93783 1.55431C11.1536 1.5891 12.6005 1.9918 14.0119 2.68826C16.8219 4.07474 18.6861 6.28146 18.0829 7.50701Z" fill="#3C7DD2"/>
<path d="M13.7399 3.12103C12.5515 2.53462 11.3475 2.15168 10.3497 2.04269C9.27228 1.92505 8.53775 2.1469 8.28151 2.66748C8.02527 3.18807 8.29697 3.90608 9.04636 4.68967C9.74049 5.4155 10.7772 6.13821 11.9656 6.72462C13.154 7.31102 14.358 7.69396 15.3558 7.80295C15.533 7.82285 15.7111 7.83313 15.8895 7.83374C16.6757 7.83374 17.2125 7.60754 17.4239 7.17816C17.68 6.65773 17.4084 5.93956 16.659 5.15594C15.9652 4.4301 14.9284 3.70739 13.7399 3.12103ZM16.9984 6.96864C16.8414 7.28746 16.2466 7.42289 15.4073 7.33138C14.4632 7.22824 13.3155 6.86167 12.1755 6.29918C9.73223 5.09348 8.38666 3.52804 8.70714 2.87696C8.83174 2.62376 9.23255 2.48615 9.81271 2.48615C9.97493 2.48673 10.137 2.49612 10.2982 2.51426C11.2423 2.6174 12.39 2.98397 13.53 3.54646C15.9734 4.75201 17.319 6.3176 16.9985 6.96864H16.9984Z" fill="#3C7DD2"/>
<path d="M13.3088 4.13422C12.8393 3.9026 12.3614 3.75104 11.9632 3.70756C11.3508 3.64035 11.1148 3.84457 11.0248 4.02744C10.9348 4.21032 10.9171 4.52158 11.3429 4.96683C11.6199 5.25647 12.0311 5.54359 12.5005 5.77524C12.9699 6.00689 13.4479 6.15842 13.8461 6.20194C13.9208 6.21034 13.9959 6.21468 14.0711 6.21495C14.5187 6.21495 14.7064 6.04061 14.7844 5.88209C14.8744 5.69934 14.8922 5.38795 14.4663 4.94271C14.1893 4.65303 13.7782 4.36591 13.3088 4.13422ZM14.3589 5.67254C14.3488 5.6929 14.2353 5.76721 13.8976 5.73033C13.5531 5.6927 13.1315 5.55754 12.7104 5.34976C11.756 4.87887 11.4005 4.33844 11.4504 4.23688C11.4583 4.22048 11.5339 4.16897 11.7398 4.16897C11.7973 4.16922 11.8546 4.1726 11.9117 4.17909C12.2562 4.21672 12.6778 4.35184 13.0989 4.55961C14.0532 5.03067 14.4088 5.57102 14.3588 5.67254H14.3589Z" fill="#3C7DD2"/>
<path d="M7.28714 8.43978C7.28929 8.40871 7.2853 8.37751 7.27539 8.34798C7.26549 8.31845 7.24986 8.29116 7.22941 8.26766C7.20895 8.24417 7.18407 8.22494 7.15618 8.21106C7.1283 8.19718 7.09795 8.18893 7.06687 8.18678C7.0358 8.18463 7.0046 8.18863 6.97507 8.19853C6.94554 8.20844 6.91825 8.22407 6.89476 8.24452C6.87126 8.26497 6.85203 8.28985 6.83815 8.31774C6.82427 8.34563 6.81602 8.37598 6.81387 8.40705C6.76992 9.04664 6.7651 9.68833 6.79945 10.3285C6.84724 11.2189 6.86372 12.0595 6.84842 12.8271C6.84781 12.8583 6.85333 12.8892 6.86467 12.9182C6.87602 12.9472 6.89297 12.9737 6.91456 12.9962C6.93614 13.0186 6.96194 13.0366 6.99047 13.0491C7.01901 13.0616 7.04973 13.0684 7.08087 13.069H7.08565C7.14775 13.069 7.20738 13.0446 7.25173 13.0012C7.29607 12.9577 7.32161 12.8986 7.32284 12.8365C7.33833 12.0574 7.32165 11.205 7.27323 10.303C7.2399 9.68226 7.24455 9.06001 7.28714 8.43978Z" fill="#3C7DD2"/>
<path d="M7.22017 6.96573C7.15797 6.95634 7.09459 6.97205 7.04397 7.00939C6.99336 7.04673 6.95964 7.10265 6.95025 7.16485C6.94234 7.21663 6.93495 7.25443 6.92709 7.29447C6.91633 7.34879 6.90526 7.40492 6.89487 7.48885C6.88713 7.55126 6.90451 7.61419 6.94317 7.6638C6.98183 7.71341 7.03861 7.74564 7.10102 7.75339C7.11081 7.75461 7.12066 7.75523 7.13051 7.75525C7.18832 7.75517 7.24412 7.73399 7.28741 7.69568C7.3307 7.65737 7.35851 7.60456 7.36561 7.54719C7.37395 7.47999 7.38253 7.43651 7.39245 7.38638C7.40063 7.34495 7.40988 7.29803 7.41929 7.23565C7.42868 7.17345 7.41297 7.11007 7.37563 7.05945C7.33829 7.00883 7.28237 6.97512 7.22017 6.96573Z" fill="#3C7DD2"/>
</svg>
