<svg width="21" height="22" viewBox="0 0 21 22" fill="none" xmlns="http://www.w3.org/2000/svg">
<path d="M7.19246 13.1752C6.93749 13.1752 6.68825 13.2508 6.47625 13.3925C6.26426 13.5341 6.09902 13.7355 6.00145 13.971C5.90388 14.2066 5.87835 14.4658 5.92809 14.7159C5.97783 14.966 6.10061 15.1957 6.2809 15.3759C6.46119 15.5562 6.6909 15.679 6.94096 15.7288C7.19103 15.7785 7.45024 15.753 7.6858 15.6554C7.92136 15.5578 8.12269 15.3926 8.26435 15.1806C8.406 14.9686 8.48161 14.7193 8.48161 14.4644C8.4812 14.1226 8.34524 13.7949 8.10357 13.5533C7.8619 13.3116 7.53424 13.1756 7.19246 13.1752ZM7.19246 15.1497C7.05687 15.1497 6.92432 15.1095 6.81158 15.0342C6.69885 14.9589 6.61098 14.8518 6.5591 14.7265C6.50722 14.6012 6.49365 14.4634 6.52012 14.3304C6.54658 14.1974 6.61189 14.0753 6.70778 13.9794C6.80367 13.8835 6.92584 13.8183 7.05883 13.7918C7.19182 13.7654 7.32966 13.779 7.45492 13.8309C7.58019 13.8828 7.68724 13.9707 7.76255 14.0835C7.83785 14.1962 7.87803 14.3288 7.87799 14.4644C7.87777 14.6461 7.80546 14.8203 7.67694 14.9488C7.54843 15.0773 7.37419 15.1496 7.19246 15.1497Z" fill="#3C7DD2"/>
<path d="M20.6066 4.4339H19.6704C19.6049 4.22579 19.5213 4.02382 19.4206 3.83029L20.0825 3.16821C20.1106 3.1402 20.1328 3.10693 20.148 3.07031C20.1632 3.03369 20.171 2.99443 20.171 2.95479C20.171 2.91515 20.1632 2.87589 20.148 2.83927C20.1328 2.80265 20.1106 2.76938 20.0825 2.74137L18.9151 1.57398C18.8871 1.54593 18.8539 1.52368 18.8172 1.5085C18.7806 1.49332 18.7414 1.4855 18.7017 1.4855C18.6621 1.4855 18.6228 1.49332 18.5862 1.5085C18.5496 1.52368 18.5163 1.54593 18.4883 1.57398L17.8262 2.23606C17.6328 2.13517 17.4308 2.05155 17.2226 1.98616V1.05022C17.2226 1.01058 17.2148 0.971323 17.1997 0.934696C17.1845 0.898069 17.1623 0.864789 17.1343 0.83676C17.1062 0.80873 17.073 0.7865 17.0363 0.771341C16.9997 0.756181 16.9604 0.74839 16.9208 0.748413H15.2698C15.2302 0.748436 15.191 0.75626 15.1544 0.77144C15.1178 0.786619 15.0846 0.808856 15.0566 0.836882C15.0286 0.864907 15.0064 0.898171 14.9913 0.934776C14.9761 0.971381 14.9684 1.01061 14.9684 1.05022V1.98651C14.7603 2.05198 14.5583 2.13554 14.3648 2.23623L13.7027 1.57433C13.6747 1.54628 13.6414 1.52404 13.6048 1.50886C13.5682 1.49368 13.529 1.48586 13.4894 1.48586C13.4497 1.48586 13.4105 1.49368 13.3739 1.50886C13.3373 1.52404 13.304 1.54628 13.276 1.57433L12.1085 2.74171C12.0804 2.76973 12.0582 2.803 12.043 2.83962C12.0278 2.87624 12.02 2.91549 12.02 2.95514C12.02 2.99478 12.0278 3.03403 12.043 3.07065C12.0582 3.10727 12.0804 3.14054 12.1085 3.16856L12.7704 3.83063C12.6697 4.02413 12.5862 4.22612 12.5208 4.43425H11.5844C11.5447 4.43422 11.5055 4.44201 11.4688 4.45717C11.4322 4.47233 11.3989 4.49456 11.3709 4.52259C11.3429 4.55062 11.3206 4.5839 11.3055 4.62053C11.2903 4.65716 11.2825 4.69641 11.2825 4.73605V6.38736C11.2827 6.4673 11.3145 6.54392 11.3711 6.60038C11.4277 6.65684 11.5044 6.68853 11.5844 6.68848H11.7187L8.68132 9.37663V7.97866C8.68132 7.89862 8.64952 7.82185 8.59293 7.76525C8.53633 7.70865 8.45956 7.67685 8.37952 7.67685H6.00559C5.92555 7.67685 5.84878 7.70865 5.79218 7.76525C5.73558 7.82185 5.70379 7.89862 5.70379 7.97866V9.42267C5.34851 9.52735 5.00534 9.66945 4.68006 9.84658L3.65926 8.82561C3.63125 8.79757 3.59798 8.77531 3.56136 8.76013C3.52474 8.74495 3.48549 8.73714 3.44584 8.73714C3.4062 8.73714 3.36695 8.74495 3.33033 8.76013C3.29371 8.77531 3.26044 8.79757 3.23242 8.82561L1.55386 10.5042C1.52581 10.5322 1.50356 10.5655 1.48838 10.6021C1.4732 10.6387 1.46538 10.678 1.46538 10.7176C1.46538 10.7572 1.4732 10.7965 1.48838 10.8331C1.50356 10.8697 1.52581 10.903 1.55386 10.931L2.57483 11.9518C2.39765 12.277 2.25561 12.6202 2.15109 12.9755H0.70708C0.66744 12.9755 0.628184 12.9833 0.591557 12.9985C0.55493 13.0136 0.52165 13.0359 0.49362 13.0639C0.46559 13.0919 0.44336 13.1252 0.428201 13.1618C0.413042 13.1984 0.405251 13.2377 0.405273 13.2773V15.6513C0.405251 15.6909 0.413042 15.7302 0.428201 15.7668C0.44336 15.8034 0.46559 15.8367 0.49362 15.8647C0.52165 15.8928 0.55493 15.915 0.591557 15.9301C0.628184 15.9453 0.66744 15.9531 0.70708 15.9531H2.15109C2.25564 16.3084 2.39768 16.6515 2.57483 16.9768L1.55386 17.9976C1.52581 18.0256 1.50356 18.0589 1.48838 18.0955C1.4732 18.1321 1.46538 18.1714 1.46538 18.211C1.46538 18.2507 1.4732 18.2899 1.48838 18.3265C1.50356 18.3632 1.52581 18.3964 1.55386 18.4244L3.23242 20.103C3.29008 20.1576 3.36645 20.188 3.44584 20.188C3.52524 20.188 3.60161 20.1576 3.65926 20.103L4.68006 19.082C5.00531 19.2592 5.34848 19.4012 5.70379 19.5058V20.9498C5.70376 20.9894 5.71156 21.0287 5.72671 21.0653C5.74187 21.1019 5.7641 21.1352 5.79213 21.1632C5.82016 21.1913 5.85344 21.2135 5.89007 21.2287C5.9267 21.2438 5.96595 21.2516 6.00559 21.2516H8.38038C8.42002 21.2516 8.45927 21.2438 8.4959 21.2287C8.53253 21.2135 8.56581 21.1913 8.59384 21.1632C8.62187 21.1352 8.6441 21.1019 8.65926 21.0653C8.67442 21.0287 8.68221 20.9894 8.68218 20.9498V19.5058C9.0375 19.4013 9.38067 19.2592 9.70591 19.082L10.7267 20.103C10.7547 20.131 10.788 20.1533 10.8246 20.1685C10.8612 20.1837 10.9005 20.1915 10.9401 20.1915C10.9798 20.1915 11.019 20.1837 11.0556 20.1685C11.0923 20.1533 11.1255 20.131 11.1535 20.103L12.8321 18.4244C12.8602 18.3964 12.8824 18.3632 12.8976 18.3265C12.9128 18.2899 12.9206 18.2507 12.9206 18.211C12.9206 18.1714 12.9128 18.1321 12.8976 18.0955C12.8824 18.0589 12.8602 18.0256 12.8321 17.9976L11.8111 16.9768C11.9883 16.6515 12.1304 16.3084 12.235 15.9531H13.6791C13.7591 15.9531 13.8359 15.9213 13.8925 15.8647C13.9491 15.8081 13.9809 15.7313 13.9809 15.6513V13.2773C13.9809 13.1973 13.9491 13.1205 13.8925 13.0639C13.8359 13.0073 13.7591 12.9755 13.6791 12.9755H12.2802L14.9684 9.93816V10.0725C14.9684 10.1121 14.9761 10.1514 14.9913 10.188C15.0065 10.2247 15.0287 10.2579 15.0567 10.286C15.0848 10.314 15.118 10.3362 15.1547 10.3514C15.1913 10.3665 15.2305 10.3743 15.2702 10.3743H16.9213C16.961 10.3743 17.0002 10.3665 17.0368 10.3514C17.0735 10.3362 17.1068 10.314 17.1348 10.286C17.1628 10.2579 17.185 10.2247 17.2002 10.188C17.2154 10.1514 17.2232 10.1121 17.2231 10.0725V9.13604C17.4313 9.07079 17.6333 8.98722 17.8267 8.88632L18.4888 9.5484C18.5168 9.57645 18.5501 9.5987 18.5867 9.61388C18.6233 9.62906 18.6626 9.63688 18.7022 9.63688C18.7419 9.63688 18.7811 9.62906 18.8178 9.61388C18.8544 9.5987 18.8876 9.57645 18.9157 9.5484L20.083 8.38084C20.1111 8.35284 20.1333 8.31958 20.1485 8.28298C20.1637 8.24637 20.1715 8.20713 20.1715 8.1675C20.1715 8.12788 20.1637 8.08864 20.1485 8.05203C20.1333 8.01542 20.1111 7.98217 20.083 7.95417L19.4206 7.29209C19.5213 7.09856 19.6049 6.89659 19.6704 6.68848H20.6066C20.6463 6.6885 20.6855 6.68071 20.7222 6.66555C20.7588 6.65039 20.7921 6.62816 20.8201 6.60013C20.8481 6.5721 20.8704 6.53882 20.8855 6.5022C20.9007 6.46557 20.9085 6.42631 20.9084 6.38667V4.73571C20.9085 4.69607 20.9007 4.65681 20.8855 4.62018C20.8704 4.58356 20.8481 4.55028 20.8201 4.52225C20.7921 4.49422 20.7588 4.47199 20.7222 4.45683C20.6855 4.44167 20.6463 4.43388 20.6066 4.4339ZM16.0954 7.01616C15.8075 7.01612 15.5261 6.93072 15.2868 6.77075C15.0474 6.61078 14.8609 6.38343 14.7507 6.11745C14.6406 5.85147 14.6118 5.5588 14.668 5.27645C14.7242 4.9941 14.8629 4.73476 15.0665 4.53122C15.2701 4.32768 15.5294 4.18908 15.8118 4.13295C16.0941 4.07682 16.3868 4.10568 16.6528 4.21588C16.9187 4.32608 17.146 4.51267 17.3059 4.75206C17.4659 4.99145 17.5512 5.27287 17.5512 5.56076C17.5507 5.94667 17.3972 6.31665 17.1243 6.5895C16.8513 6.86235 16.4813 7.01579 16.0954 7.01616ZM16.0954 7.61977C16.1368 7.61977 16.1773 7.61597 16.2182 7.61356L15.335 8.61159C15.03 8.5361 14.7381 8.41499 14.4693 8.25236C14.4115 8.21743 14.3437 8.20287 14.2767 8.211C14.2098 8.21913 14.1474 8.24948 14.0997 8.29719L13.4894 8.90753L12.7478 8.16595L13.3581 7.55561C13.4058 7.50789 13.4362 7.44555 13.4443 7.37856C13.4524 7.31156 13.4379 7.24378 13.403 7.18603C13.2403 6.91717 13.1192 6.6253 13.0437 6.32028L14.0417 5.4371C14.0393 5.47798 14.0355 5.51851 14.0355 5.5599C14.036 6.10608 14.2531 6.62978 14.6393 7.01599C15.0255 7.4022 15.5492 7.61936 16.0954 7.61977ZM8.79428 16.0048C8.58863 16.2142 8.34355 16.3807 8.07318 16.4948C7.80281 16.609 7.51252 16.6684 7.21905 16.6697C6.92559 16.671 6.63477 16.6142 6.3634 16.5025C6.09202 16.3908 5.84546 16.2264 5.63795 16.0189C5.43043 15.8114 5.26608 15.5648 5.15438 15.2935C5.04269 15.0221 4.98585 14.7313 4.98716 14.4378C4.98847 14.1443 5.04791 13.854 5.16202 13.5837C5.27614 13.3133 5.44269 13.0682 5.65205 12.8626L5.80071 12.731C6.22757 12.3864 6.76679 12.2119 7.31459 12.2411C7.86239 12.2702 8.38004 12.501 8.76791 12.8889C9.15578 13.2769 9.38644 13.7945 9.41551 14.3424C9.44458 14.8902 9.26999 15.4294 8.92535 15.8562L8.79428 16.0048ZM7.19247 11.636C7.13745 11.636 7.08365 11.6412 7.02949 11.6443L8.78152 10.0941C9.06595 10.1962 9.33969 10.3259 9.59881 10.4814C9.65655 10.5165 9.72439 10.5311 9.79145 10.523C9.85851 10.5148 9.92088 10.4844 9.96857 10.4366L10.9394 9.4651L12.1918 10.7175L11.221 11.6883C11.1732 11.736 11.1428 11.7984 11.1347 11.8654C11.1266 11.9325 11.1412 12.0003 11.1761 12.058C11.3316 12.3172 11.4614 12.5909 11.5635 12.8753L10.0125 14.6274C10.0157 14.5732 10.0208 14.5194 10.0208 14.4644C10.02 13.7145 9.72169 12.9956 9.19146 12.4654C8.66123 11.9352 7.94233 11.6369 7.19247 11.636ZM11.8103 11.9518L12.8312 10.931C12.8593 10.903 12.8815 10.8697 12.8967 10.8331C12.9119 10.7965 12.9197 10.7572 12.9197 10.7176C12.9197 10.678 12.9119 10.6387 12.8967 10.6021C12.8815 10.5655 12.8593 10.5322 12.8312 10.5042L11.1527 8.82561C11.095 8.77103 11.0187 8.74061 10.9393 8.74061C10.8599 8.74061 10.7835 8.77103 10.7258 8.82561L9.70505 9.84658C9.5695 9.77277 9.43032 9.70654 9.2889 9.64498L12.5472 6.76178C12.6079 6.94402 12.6825 7.12132 12.7704 7.29209L12.1085 7.95417C12.0804 7.98217 12.0582 8.01542 12.043 8.05203C12.0278 8.08864 12.02 8.12788 12.02 8.1675C12.02 8.20713 12.0278 8.24637 12.043 8.28298C12.0582 8.31958 12.0804 8.35284 12.1085 8.38084L13.276 9.5484C13.304 9.57644 13.3373 9.59869 13.3739 9.61387C13.4105 9.62905 13.4497 9.63686 13.4894 9.63686C13.529 9.63686 13.5682 9.62905 13.6048 9.61387C13.6414 9.59869 13.6747 9.57644 13.7027 9.5484L14.3648 8.88649C14.5355 8.9744 14.7128 9.04901 14.8951 9.10966L12.0119 12.368C11.9503 12.2265 11.8841 12.0874 11.8103 11.9518ZM12.0031 13.5792H13.3764V15.3495H12.0031C11.9356 15.3495 11.87 15.3721 11.8169 15.4137C11.7637 15.4554 11.7261 15.5136 11.7099 15.5792C11.5982 16.0342 11.4179 16.4697 11.1753 16.8706C11.1403 16.9283 11.1257 16.9962 11.1339 17.0632C11.142 17.1302 11.1724 17.1926 11.2201 17.2403L12.1909 18.2111L10.9392 19.4628L9.9684 18.4919C9.92068 18.4441 9.85829 18.4137 9.79124 18.4056C9.72419 18.3975 9.65637 18.4122 9.59864 18.4472C9.19776 18.6898 8.76232 18.8701 8.30725 18.9818C8.2417 18.998 8.18345 19.0356 8.14181 19.0888C8.10017 19.1419 8.07754 19.2075 8.07754 19.275V20.6483H6.3074V19.2747C6.30739 19.2072 6.28476 19.1416 6.24312 19.0884C6.20148 19.0353 6.14324 18.9976 6.07768 18.9815C5.62261 18.8698 5.18718 18.6895 4.78629 18.4469C4.72855 18.4119 4.66074 18.3973 4.59371 18.4054C4.52667 18.4135 4.46429 18.4438 4.41654 18.4915L3.44576 19.4625L2.19404 18.2108L3.16499 17.24C3.21267 17.1922 3.24297 17.1298 3.25107 17.0628C3.25917 16.9958 3.24459 16.928 3.20966 16.8702C2.96703 16.4693 2.78676 16.0339 2.67503 15.5788C2.65887 15.5133 2.62122 15.455 2.56807 15.4134C2.51493 15.3718 2.44936 15.3491 2.38185 15.3491H1.00889V13.5792H2.38219C2.44971 13.5791 2.51527 13.5565 2.56842 13.5149C2.62156 13.4732 2.65922 13.415 2.67537 13.3494C2.78711 12.8944 2.96738 12.4589 3.21 12.058C3.24496 12.0003 3.25956 11.9325 3.25146 11.8655C3.24336 11.7984 3.21304 11.7361 3.16534 11.6883L2.19438 10.7175L3.44576 9.4651L4.41654 10.4359C4.46424 10.4837 4.52662 10.5141 4.59366 10.5222C4.66071 10.5304 4.72855 10.5157 4.78629 10.4807C5.18718 10.2381 5.62261 10.0578 6.07768 9.94609C6.14324 9.92994 6.20148 9.89228 6.24312 9.83913C6.28476 9.78599 6.30739 9.72042 6.3074 9.65291V8.28047H8.07771V9.65377C8.07811 9.72468 8.10359 9.79316 8.14963 9.8471L5.41026 12.271C5.37456 12.3002 5.34127 12.3317 5.30678 12.3624L5.20606 12.4518C5.19005 12.466 5.1756 12.4819 5.16295 12.4992C4.64233 13.0307 4.35241 13.7461 4.35613 14.4901C4.35986 15.2341 4.65694 15.9466 5.18285 16.4728C5.70876 16.9991 6.42105 17.2966 7.16503 17.3008C7.90901 17.305 8.62462 17.0156 9.15645 16.4953C9.17438 16.4823 9.19081 16.4674 9.20543 16.4508L9.29477 16.3501C9.32546 16.3156 9.35702 16.2823 9.38617 16.2466L11.8098 13.5072C11.8637 13.5533 11.9322 13.5787 12.0031 13.5792ZM20.3048 6.08487H19.4415C19.374 6.08487 19.3084 6.1075 19.2553 6.14914C19.2021 6.19078 19.1645 6.24903 19.1483 6.31459C19.0729 6.6221 18.9511 6.91635 18.7872 7.18724C18.7522 7.24497 18.7376 7.31274 18.7457 7.37974C18.7538 7.44673 18.7842 7.50908 18.8318 7.55682L19.4422 8.16716L18.7015 8.90874L18.0911 8.2984C18.0435 8.2506 17.9811 8.2202 17.9141 8.21207C17.8471 8.20394 17.7793 8.21855 17.7215 8.25356C17.4504 8.41746 17.1559 8.53912 16.8482 8.61435C16.7826 8.63048 16.7244 8.66813 16.6827 8.72128C16.6411 8.77443 16.6185 8.84001 16.6185 8.90753V9.77087H15.572V9.2559L17.5643 7.00408C17.567 7.00098 17.5687 6.99736 17.5713 6.99408C17.9477 6.60647 18.1565 6.08633 18.1525 5.54605C18.1486 5.00577 17.9322 4.48874 17.5502 4.10668C17.1681 3.72463 16.6511 3.50822 16.1108 3.50423C15.5706 3.50024 15.0504 3.70898 14.6628 4.08536C14.6595 4.08812 14.6559 4.08984 14.6528 4.0926L12.401 6.08487H11.8862V5.03751H12.7495C12.817 5.03754 12.8826 5.01492 12.9358 4.97327C12.9889 4.93163 13.0266 4.87336 13.0427 4.8078C13.1181 4.50026 13.24 4.206 13.404 3.93514C13.4389 3.8774 13.4535 3.80961 13.4453 3.74261C13.4372 3.67562 13.4069 3.61328 13.3591 3.56556L12.7488 2.95522L13.4904 2.21364L14.0997 2.82536C14.1474 2.87308 14.2098 2.90341 14.2768 2.91151C14.3438 2.91961 14.4116 2.905 14.4693 2.87003C14.7402 2.70609 15.0344 2.58432 15.3419 2.50889C15.4075 2.49274 15.4657 2.45508 15.5074 2.40193C15.549 2.34879 15.5716 2.28322 15.5716 2.21571V1.35203H16.6192V2.21536C16.6192 2.28288 16.6418 2.34845 16.6835 2.40159C16.7251 2.45473 16.7833 2.49239 16.8489 2.50855C17.1565 2.58393 17.4508 2.70571 17.7217 2.86968C17.7794 2.90478 17.8472 2.91945 17.9142 2.91135C17.9813 2.90325 18.0436 2.87284 18.0913 2.82501L18.7016 2.21467L19.4424 2.95626L18.8315 3.56556C18.7838 3.6133 18.7535 3.67565 18.7454 3.74264C18.7373 3.80964 18.7519 3.87741 18.7868 3.93514C18.9508 4.20601 19.0726 4.50027 19.148 4.8078C19.1641 4.87335 19.2018 4.9316 19.2549 4.97324C19.3081 5.01488 19.3736 5.03751 19.4412 5.03751H20.3045L20.3048 6.08487Z" fill="#3C7DD2"/>
<path d="M16.0952 4.60956C15.907 4.60959 15.723 4.66544 15.5665 4.77004C15.41 4.87464 15.288 5.02329 15.216 5.19721C15.144 5.37112 15.1251 5.56248 15.1619 5.7471C15.1986 5.93172 15.2892 6.1013 15.4223 6.2344C15.5554 6.3675 15.725 6.45815 15.9096 6.49488C16.0943 6.53161 16.2856 6.51278 16.4595 6.44076C16.6334 6.36874 16.7821 6.24677 16.8867 6.09027C16.9913 5.93378 17.0471 5.74978 17.0472 5.56154C17.047 5.30913 16.9466 5.06712 16.7681 4.88864C16.5896 4.71016 16.3476 4.60979 16.0952 4.60956ZM16.0952 5.90957C16.0263 5.90953 15.959 5.88908 15.9018 5.85079C15.8445 5.8125 15.7999 5.7581 15.7736 5.69446C15.7473 5.63082 15.7404 5.56081 15.7539 5.49327C15.7674 5.42573 15.8006 5.36371 15.8493 5.31503C15.898 5.26636 15.9601 5.23323 16.0276 5.21983C16.0952 5.20643 16.1652 5.21336 16.2288 5.23974C16.2924 5.26613 16.3467 5.31078 16.385 5.36806C16.4232 5.42534 16.4436 5.49267 16.4436 5.56154C16.4435 5.65388 16.4067 5.7424 16.3414 5.80765C16.2761 5.87291 16.1875 5.90957 16.0952 5.90957Z" fill="#3C7DD2"/>
</svg>
