<svg width="19" height="18" viewBox="0 0 19 18" fill="none" xmlns="http://www.w3.org/2000/svg">
<g clip-path="url(#clip0_703_5240)">
<path d="M16.2699 12.6H15.7945C15.4611 12.6003 15.1323 12.677 14.834 12.8241C14.3999 13.0373 13.8898 13.0373 13.4558 12.8241C13.2826 12.7401 13.0988 12.6796 12.9093 12.6441L13.501 8.1H14.1449C14.3125 8.1 14.4485 7.96568 14.4485 7.8V6.6C14.4485 6.43433 14.3125 6.3 14.1449 6.3H12.9306V5.4C12.9306 5.32043 12.8986 5.24415 12.8416 5.1879L11.4127 3.7758V2.844L11.873 2.4804L12.6589 4.0341L13.2023 3.7659L12.3578 2.097L12.7333 1.8H13.8413C14.009 1.8 14.1449 1.66568 14.1449 1.5V0.3C14.1449 0.134325 14.009 0 13.8413 0H10.8056C9.29745 0.0018 8.07527 1.2096 8.07345 2.7C8.07345 2.86568 8.20938 3 8.37702 3H8.98417V3.7758L8.1624 4.5879C8.10548 4.64415 8.07345 4.72043 8.07345 4.8V6.3H7.46631V3.9C7.46585 3.86284 7.45834 3.82613 7.44415 3.7917C7.43861 3.78004 7.43231 3.76871 7.42533 3.7578C7.41804 3.74209 7.4095 3.72694 7.39983 3.7125L6.25202 2.295V0.3C6.25202 0.134325 6.1161 0 5.94845 0H4.12702C3.95938 0 3.82345 0.134325 3.82345 0.3V2.295L2.67565 3.7125C2.66597 3.72694 2.65743 3.74209 2.65015 3.7578C2.64317 3.76871 2.63687 3.78004 2.63133 3.7917C2.61713 3.82613 2.60962 3.86284 2.60917 3.9V6.3H1.39488C1.22723 6.3 1.09131 6.43433 1.09131 6.6V7.8C1.09131 7.96568 1.22723 8.1 1.39488 8.1H2.03875L3.21874 17.1384C3.23828 17.288 3.36722 17.4 3.51988 17.4H10.666C11.0102 17.7814 11.5027 17.9996 12.0199 18H12.4953C12.8287 17.9997 13.1574 17.923 13.4558 17.7759C13.8898 17.5627 14.3999 17.5627 14.834 17.7759C15.1323 17.923 15.4611 17.9997 15.7945 18H16.2699C17.2754 17.999 18.0903 17.1937 18.0913 16.2V14.4C18.0903 13.4063 17.2754 12.601 16.2699 12.6ZM12.9306 0.6H13.5377V1.2H12.9306V0.6ZM13.8413 6.9V7.5H9.59131V6.9H13.8413ZM8.70215 2.4C8.85443 1.36744 9.7497 0.601313 10.8056 0.6H12.3235V1.356L11.0026 2.4H8.70215ZM10.8056 3V3.6H9.59131V3H10.8056ZM8.68059 4.9242L9.41342 4.2H10.9835L12.3235 5.5242V6.3H8.68059V4.9242ZM8.37702 6.9H8.98417V9C8.98352 9.11426 9.04864 9.21893 9.15204 9.27L10.9735 10.17C11.0623 10.2133 11.1296 10.2902 11.1602 10.3833C11.1916 10.4832 11.1807 10.5915 11.1298 10.6833C11.0425 10.8565 10.8296 10.9269 10.6543 10.8406C10.654 10.8405 10.6538 10.8403 10.6535 10.8402L9.42101 10.2312C9.27036 10.1585 9.08859 10.2202 9.01498 10.3691C8.99483 10.4099 8.98428 10.4546 8.98417 10.5V13.5C8.98417 13.8314 8.71236 14.1 8.37702 14.1V11.4H7.76988V14.1H7.16274V11.4H6.55559V14.1H5.94845V11.4H5.34131V14.1C5.00598 14.1 4.73417 13.8314 4.73417 13.5V6.9H8.37702ZM4.43059 0.6H5.64488V2.1H4.43059V0.6ZM4.27274 2.7H5.80274L6.53131 3.6H3.54417L4.27274 2.7ZM3.21631 4.2H6.85917V6.3H3.21631V4.2ZM1.69845 7.5V6.9H4.12702V7.5H1.69845ZM10.1985 14.4V16.2C10.199 16.4045 10.2349 16.6074 10.3047 16.8H3.78672L2.65076 8.1H4.12702V13.5C4.12702 14.1627 4.67068 14.7 5.34131 14.7H8.37702C9.04765 14.7 9.59131 14.1627 9.59131 13.5V10.9854L10.3842 11.3772C10.8634 11.6109 11.4435 11.4165 11.68 10.943C11.681 10.941 11.6819 10.9391 11.6829 10.9371C11.8005 10.7067 11.8205 10.4396 11.7385 10.1946C11.6576 9.94954 11.4804 9.74696 11.2467 9.6324L9.59131 8.8146V8.1H12.889L12.3013 12.6H12.0199C11.0143 12.601 10.1994 13.4063 10.1985 14.4ZM17.4842 16.2C17.4842 16.8627 16.9405 17.4 16.2699 17.4H15.7945C15.5554 17.3997 15.3196 17.3447 15.1057 17.2392C14.5004 16.942 13.7893 16.942 13.1841 17.2392C12.9701 17.3447 12.7344 17.3997 12.4953 17.4H12.0199C11.3493 17.4 10.8056 16.8627 10.8056 16.2V15.738C11.1385 16.0353 11.5712 16.1999 12.0199 16.2H12.4953C12.8287 16.1997 13.1574 16.123 13.4558 15.9759C13.8898 15.7627 14.3999 15.7627 14.834 15.9759C15.1323 16.123 15.4611 16.1997 15.7945 16.2H16.2699C16.7186 16.1999 17.1513 16.0353 17.4842 15.738V16.2ZM16.2699 15.6H15.7945C15.5554 15.5997 15.3196 15.5447 15.1057 15.4392C14.5004 15.142 13.7893 15.142 13.1841 15.4392C12.9701 15.5447 12.7344 15.5997 12.4953 15.6H12.0199C11.3493 15.6 10.8056 15.0627 10.8056 14.4C10.8056 13.7373 11.3493 13.2 12.0199 13.2H12.4953C12.7344 13.2003 12.9701 13.2554 13.1841 13.3608C13.7894 13.6578 14.5004 13.6578 15.1057 13.3608C15.3196 13.2554 15.5554 13.2003 15.7945 13.2H16.2699C16.9405 13.2 17.4842 13.7373 17.4842 14.4C17.4842 15.0627 16.9405 15.6 16.2699 15.6Z" fill="#3C7DD2"/>
<path d="M16.0913 14H15.0913V15H16.0913V14Z" fill="#3C7DD2"/>
<path d="M13.0913 14H12.0913V15H13.0913V14Z" fill="#3C7DD2"/>
<path d="M12.0913 14H11.0913V15H12.0913V14Z" fill="#3C7DD2"/>
<path d="M15.0913 14H14.0913V15H15.0913V14Z" fill="#3C7DD2"/>
</g>
<defs>
<clipPath id="clip0_703_5240">
<rect width="18" height="18" fill="#3C7DD2" transform="translate(0.0913086)"/>
</clipPath>
</defs>
</svg>
