<svg width="18" height="18" viewBox="0 0 18 18" fill="none" xmlns="http://www.w3.org/2000/svg">
<g clip-path="url(#clip0_940_5520)">
<path d="M12.2774 6.15829C11.9282 6.14617 11.6128 5.99071 11.3892 5.72064C11.2261 5.52351 10.9265 5.52391 10.7636 5.72064C10.279 6.30624 9.38695 6.30521 8.90322 5.72064C8.7381 5.52119 8.43821 5.52667 8.27757 5.72064C7.79307 6.30611 6.90113 6.30545 6.41716 5.72061C6.25374 5.52322 5.95415 5.52421 5.79158 5.72061C5.56803 5.99071 5.2526 6.14614 4.90343 6.15829C4.76597 6.16307 4.65843 6.27835 4.66324 6.41581C4.66802 6.55327 4.78257 6.66055 4.92077 6.65604C5.3712 6.64036 5.79686 6.44593 6.10432 6.11858C6.77755 6.83673 7.91619 6.83766 8.59041 6.11861C9.2637 6.83676 10.4023 6.83759 11.0765 6.11858C11.384 6.44593 11.8096 6.64036 12.2601 6.65604C12.3969 6.66098 12.5128 6.55327 12.5176 6.41581C12.5224 6.27835 12.4149 6.16307 12.2774 6.15829Z" fill="#3C7DD2"/>
<path d="M11.3895 7.76342C11.2263 7.5663 10.9267 7.56669 10.7639 7.76342C10.2792 8.34899 9.38724 8.34803 8.90347 7.76342C8.73835 7.56397 8.43846 7.56945 8.27783 7.76342C7.79319 8.34909 6.90119 8.348 6.41742 7.76339C6.25459 7.56676 5.955 7.56623 5.79184 7.76342C5.52642 8.0841 5.12174 8.24434 4.70902 8.19221C4.57289 8.17498 4.44801 8.27153 4.43071 8.408C4.41342 8.54443 4.51007 8.66904 4.6465 8.68631C5.19372 8.75567 5.73085 8.5603 6.10465 8.16143C6.77791 8.87955 7.91648 8.88041 8.59067 8.16143C9.26389 8.87951 10.4026 8.88048 11.0767 8.16143C11.4505 8.5603 11.9876 8.75563 12.5348 8.68631C12.6712 8.66904 12.7679 8.54446 12.7506 8.408C12.7333 8.27153 12.6082 8.17494 12.4723 8.19221C12.0594 8.2443 11.6549 8.08413 11.3895 7.76342Z" fill="#3C7DD2"/>
<path d="M12.0699 4.076C11.8015 4.01946 11.5663 3.87679 11.3897 3.66339C11.2265 3.46626 10.9269 3.46666 10.7641 3.66339C10.2794 4.24899 9.38738 4.24796 8.90364 3.66339C8.73852 3.46394 8.43863 3.46942 8.278 3.66339C7.7935 4.24886 6.90156 4.2482 6.41759 3.66336C6.25416 3.46596 5.95457 3.46696 5.79201 3.66336C5.61537 3.87675 5.38016 4.01946 5.11181 4.076C4.9772 4.10436 4.89111 4.23644 4.91946 4.37101C4.94782 4.50559 5.08017 4.59171 5.21447 4.56333C5.55922 4.49068 5.86499 4.31796 6.10485 4.0614C6.77828 4.77961 7.91681 4.78018 8.59084 4.06136C9.26406 4.77941 10.4026 4.78041 11.0768 4.06143C11.3167 4.31799 11.6225 4.49074 11.9672 4.56333C12.1016 4.59171 12.2339 4.50555 12.2622 4.37098C12.2906 4.23641 12.2044 4.10433 12.0699 4.076Z" fill="#3C7DD2"/>
<path d="M1.91646 14.7532H7.5521V17.0634C7.5521 17.3042 7.74793 17.5 7.98868 17.5H8.82514C9.06586 17.5 9.26169 17.3042 9.26169 17.0634V17.0148H11.7253V17.0634C11.7253 17.3042 11.9212 17.5 12.1619 17.5H12.9984C13.2391 17.5 13.4349 17.3042 13.4349 17.0634V14.7532H15.265C16.0659 14.7532 16.6955 14.0597 16.615 13.2605C16.6149 13.2592 16.6147 13.2579 16.6146 13.2565L16.1818 9.55217C16.1658 9.41557 16.0418 9.31769 15.9055 9.33372C15.7689 9.3497 15.6711 9.47338 15.6871 9.60997L16.1197 13.3122C16.1682 13.8047 15.7846 14.2551 15.2651 14.2551H13.435V13.6223H14.9271C15.2415 13.6223 15.4875 13.3504 15.4562 13.0374C15.456 13.036 15.4558 13.0346 15.4557 13.0331L14.1688 2.10687C14.1403 1.8353 13.9134 1.63083 13.64 1.63083H9.17184C9.03428 1.63083 8.92282 1.74233 8.92282 1.87986C8.92282 2.01738 9.03428 2.12888 9.17184 2.12888H13.64C13.6574 2.12888 13.6718 2.14193 13.6736 2.15923C13.6737 2.16062 13.6739 2.16198 13.674 2.16338L14.9606 13.0883C14.9613 13.0975 14.9582 13.1065 14.952 13.1133C14.9457 13.1203 14.9365 13.1243 14.927 13.1243H13.435V12.3642C13.435 11.0535 12.364 10.0286 11.0993 10.0286C10.2102 10.0286 9.40772 10.5329 9.01287 11.315C8.61416 10.5257 7.79348 10.0118 6.88103 10.029C5.62927 10.0526 4.59041 11.078 4.59041 12.3643V13.1244H2.2545C2.24501 13.1244 2.23591 13.1203 2.2295 13.1132C2.22336 13.1065 2.2203 13.0974 2.2209 13.0883L3.50759 2.16341C3.50776 2.16202 3.50792 2.16062 3.50805 2.15919C3.50981 2.14193 3.52419 2.12891 3.54159 2.12891H8.00973C8.14729 2.12891 8.25876 2.01742 8.25876 1.87989C8.25876 1.74236 8.14729 1.63087 8.00973 1.63087H3.54159C3.26823 1.63087 3.04132 1.8354 3.01276 2.10696L1.72591 13.0332C1.72574 13.0346 1.72558 13.0361 1.72541 13.0375C1.694 13.3503 1.94004 13.6224 2.2545 13.6224H7.5521V14.2552H1.91646C1.42333 14.2552 1.01071 13.8308 1.06185 13.3123L2.41019 1.77473C2.41036 1.77341 2.41049 1.77208 2.41062 1.77078C2.45498 1.33024 2.82231 0.998047 3.26507 0.998047H13.9166C14.3593 0.998047 14.7266 1.33024 14.771 1.77075C14.7711 1.77208 14.7713 1.77341 14.7714 1.77473L15.5513 8.44787C15.5672 8.5845 15.6913 8.68238 15.8275 8.66631C15.9641 8.65037 16.0619 8.52666 16.0459 8.39006L15.2663 1.71882C15.1953 1.02381 14.6154 0.5 13.9166 0.5H3.26507C2.56618 0.5 1.98622 1.02385 1.9153 1.71889L0.566922 13.2566C0.566756 13.2579 0.566623 13.2592 0.56649 13.2606C0.486305 14.0574 1.11321 14.7532 1.91646 14.7532ZM10.4733 12.3858C10.4733 12.0429 10.743 11.7453 11.0876 11.7389C11.4423 11.7321 11.7254 12.0208 11.7254 12.3643V13.1244H10.4733V12.3858ZM9.26172 14.7532H11.7254V15.386H9.26172V14.7532ZM11.8587 13.6224C12.0436 13.6224 12.1912 13.7823 12.1736 13.9687C12.1579 14.1308 12.0212 14.2551 11.8587 14.2551H9.26172V13.6223C10.1287 13.6224 10.9938 13.6224 11.8587 13.6224ZM9.26172 15.884H11.8587C12.0426 15.884 12.1913 16.0433 12.1736 16.2303C12.1579 16.3922 12.0213 16.5168 11.8587 16.5168H9.26172V15.884ZM12.937 17.002H12.2234V16.9285C12.8216 16.6254 12.8229 15.7761 12.2234 15.4724V14.6668C12.8244 14.3624 12.82 13.513 12.2234 13.2107V12.3643C12.2234 11.6841 11.6191 11.1518 10.9354 11.2523C10.3924 11.332 9.97529 11.801 9.97529 12.3643V13.1244H9.26176V12.3993C9.26176 11.3849 10.0739 10.5368 11.082 10.5271C12.1186 10.5184 12.937 11.3591 12.937 12.3643V17.002ZM5.08852 13.1243V12.3992C5.08852 11.3293 5.97491 10.4873 7.00066 10.5285C7.97959 10.5685 8.76371 11.3753 8.76371 12.3642V17.0019H8.05018C8.05018 16.5232 8.05018 12.9822 8.05018 12.3642C8.05018 11.7682 7.58317 11.275 6.9905 11.2421C6.35047 11.2057 5.80206 11.7156 5.80206 12.3642V13.1243H5.08852V13.1243ZM6.30011 13.1243V12.3857C6.30011 12.0728 6.52462 11.7972 6.82727 11.7468C7.21372 11.6853 7.5521 11.9871 7.5521 12.3642V13.1243H6.30011Z" fill="#3C7DD2"/>
</g>
<defs>
<clipPath id="clip0_940_5520">
<rect width="17" height="17" fill="white" transform="translate(0.0908203 0.5)"/>
</clipPath>
</defs>
</svg>
