<svg width="20" height="20" viewBox="0 0 20 20" fill="none" xmlns="http://www.w3.org/2000/svg">
<g clip-path="url(#clip0_940_5507)">
<path d="M9.0152 15.7524C9.17397 15.7148 9.27226 15.5557 9.23473 15.3969C9.1972 15.2382 9.03806 15.1399 8.87928 15.1774C8.72051 15.2149 8.62222 15.3741 8.65975 15.5328C8.69729 15.6916 8.85642 15.7899 9.0152 15.7524Z" fill="#3C7DD2"/>
<path d="M11.94 15.7516C12.0988 15.7141 12.1971 15.555 12.1595 15.3962C12.122 15.2374 11.9629 15.1391 11.8041 15.1767C11.6453 15.2142 11.547 15.3733 11.5846 15.5321C11.6221 15.6909 11.7812 15.7892 11.94 15.7516Z" fill="#3C7DD2"/>
<path d="M6.69238 8.96606C6.53868 8.96606 6.41406 9.09068 6.41406 9.24438C6.41406 9.39809 6.53868 9.52271 6.69238 9.52271C7.03646 9.52271 7.31641 9.80262 7.31641 10.1467C7.31641 10.3004 7.44103 10.4251 7.59473 10.4251C7.74844 10.4251 7.87305 10.3004 7.87305 10.1467C7.87302 9.49569 7.34339 8.96606 6.69238 8.96606Z" fill="#3C7DD2"/>
<path d="M14.4024 9.24438C14.4024 9.09068 14.2778 8.96606 14.124 8.96606C13.473 8.96606 12.9434 9.49569 12.9434 10.1467C12.9434 10.3004 13.0679 10.4251 13.2217 10.4251C13.3754 10.4251 13.5 10.3004 13.5 10.1467C13.5 9.80266 13.78 9.52271 14.124 9.52271C14.2778 9.52271 14.4024 9.39809 14.4024 9.24438Z" fill="#3C7DD2"/>
<path d="M19.7063 7.4149L18.3563 5.70512C18.0559 5.32475 17.5464 5.17539 17.0882 5.33355C16.01 5.69288 15.7704 5.82242 15.2652 5.90555C15.8116 5.39611 16.2706 4.78663 16.6338 4.08422C16.9969 3.38208 17.2578 2.60556 17.4094 1.77621C17.511 1.22038 16.8059 0.893449 16.4458 1.32922C16.1639 1.67011 15.801 2.06102 15.367 2.49101C14.0446 3.8013 12.4695 3.99809 11.8489 4.02155H8.9671C8.57489 4.00666 7.79367 3.92191 6.93425 3.52346C6.79483 3.45886 6.62936 3.51946 6.56468 3.65888C6.50003 3.79833 6.56067 3.9638 6.70009 4.02845C7.04469 4.18824 7.37819 4.30209 7.68412 4.38332C7.44807 4.52935 7.23561 4.7166 7.05734 4.941L6.33924 5.84491C4.79987 4.66135 4.1948 2.96289 3.96023 1.70637C4.25069 2.05571 4.6197 2.45256 5.05755 2.88641C5.20844 3.03592 5.36853 3.17816 5.53341 3.30916C5.65375 3.40482 5.8288 3.38479 5.92447 3.26444C6.0201 3.14409 6.0001 2.96901 5.87975 2.87338C5.73068 2.75493 5.58592 2.62627 5.44936 2.49097C5.0151 2.06076 4.65217 1.66989 4.37062 1.32922C4.01066 0.893672 3.30529 1.22009 3.40693 1.77617C3.55852 2.60549 3.81951 3.38204 4.18259 4.08419C4.54585 4.78663 5.00479 5.39615 5.55129 5.90559C5.04542 5.82235 4.79864 5.69032 3.72819 5.33355C3.27003 5.17535 2.76045 5.32468 2.46008 5.70512L1.11008 7.41494C0.740808 7.8827 0.896222 8.57074 1.42882 8.8353C1.98779 9.06808 2.66207 9.61556 3.86048 9.61556C4.33337 9.61556 4.80562 9.52375 5.25026 9.34158C5.28177 9.66695 5.34697 9.99151 5.44754 10.3101L6.9308 15.009L6.54089 16.326C6.29923 17.1424 7.01671 17.922 7.85118 17.7467C7.90696 17.735 7.96285 17.7247 8.0187 17.7137C8.40912 18.4059 9.35089 18.8724 10.4082 18.8724C11.4655 18.8724 12.4072 18.4059 12.7976 17.7137C12.8535 17.7247 12.9093 17.735 12.9652 17.7467C13.7951 17.9212 14.5183 17.1464 14.2754 16.326L13.8855 15.009L14.3572 13.5146C14.4035 13.3681 14.3222 13.2117 14.1756 13.1654C14.029 13.1192 13.8727 13.2005 13.8264 13.3471L13.5511 14.219C13.1256 13.6487 12.3808 13.4495 11.7393 13.7014H11.7393C10.8808 14.0385 9.9354 14.0385 9.07698 13.7014C8.43454 13.4492 7.6902 13.6493 7.26515 14.219L5.97839 10.1426C5.56131 8.82131 5.82683 7.3848 6.6887 6.29995L7.49315 5.28734C7.85115 4.83673 8.38656 4.57826 8.96209 4.57826H11.8542C12.4297 4.57826 12.9652 4.83673 13.3232 5.28734L14.1277 6.29995C14.9895 7.38484 15.2551 8.82134 14.8379 10.1426L14.2223 12.093C14.176 12.2396 14.2573 12.3959 14.4039 12.4422C14.5505 12.4884 14.7068 12.4071 14.7531 12.2605L15.3688 10.3101C15.4693 9.99155 15.5345 9.66703 15.566 9.34173C16.0107 9.52397 16.4829 9.61556 16.9558 9.61556C18.1552 9.61548 18.8292 9.06779 19.3875 8.8353C19.6417 8.70909 19.823 8.4779 19.8852 8.20102C19.9474 7.92411 19.8821 7.63759 19.7063 7.4149ZM10.4082 18.3157C9.6573 18.3157 8.96862 18.0329 8.62057 17.6107C9.80963 17.4369 11.0067 17.4369 12.1958 17.6107C11.8478 18.0329 11.1591 18.3157 10.4082 18.3157ZM8.87358 14.2195C9.86314 14.6082 10.9532 14.6081 11.9428 14.2195C12.4829 14.0075 13.0948 14.2992 13.2621 14.864L13.7417 16.4841C13.8641 16.8973 13.5005 17.2904 13.0796 17.2019C12.1933 17.0158 11.3007 16.9226 10.4082 16.9226C9.51561 16.9226 8.62306 17.0158 7.73674 17.2019C7.3157 17.2903 6.95228 16.8972 7.07463 16.484L7.55427 14.8639C7.71934 14.3066 8.32615 14.0046 8.87358 14.2195ZM2.89694 6.05005C3.05075 5.85519 3.31178 5.77864 3.54654 5.85972C4.52856 6.17133 5.00397 6.44486 5.877 6.50268C5.81937 6.60087 5.76512 6.70069 5.71498 6.80219C4.30717 6.55244 3.35598 5.90366 2.45274 6.70882L2.2054 6.92595L2.89694 6.05005ZM1.67641 8.33673C1.62813 8.31276 1.58668 8.27918 1.55328 8.23902L2.82157 7.12574C3.43944 6.575 4.14151 7.06444 5.49418 7.32732C5.3345 7.78221 5.24536 8.25884 5.23034 8.74063C3.45796 9.61025 2.0655 8.45674 1.67641 8.33673ZM17.2698 5.85972C17.5046 5.77875 17.7655 5.85519 17.9194 6.05005L18.6108 6.92572L18.3653 6.71023C17.4597 5.90295 16.508 6.55277 15.1014 6.80219C15.0513 6.70069 14.9971 6.60091 14.9394 6.50271C15.8105 6.44501 16.2805 6.1737 17.2698 5.85972ZM13.759 4.941C13.5808 4.7166 13.3683 4.52939 13.1323 4.38332C13.9192 4.17436 14.8886 3.74861 15.7588 2.88637C16.1955 2.45371 16.5639 2.05757 16.8563 1.7064C16.6224 2.96055 16.0176 4.66049 14.4771 5.84488L13.759 4.941ZM19.14 8.33673C18.7526 8.45626 17.3619 9.61226 15.5861 8.741C15.5711 8.2591 15.4819 7.78236 15.3222 7.32736C16.6773 7.06399 17.3766 6.57463 17.9965 7.12715L19.2631 8.23899C19.2297 8.27914 19.1882 8.31276 19.14 8.33673Z" fill="#3C7DD2"/>
</g>
<defs>
<clipPath id="clip0_940_5507">
<rect width="19" height="19" fill="white" transform="translate(0.908203 0.5)"/>
</clipPath>
</defs>
</svg>
