<svg width="17" height="16" viewBox="0 0 17 16" fill="none" xmlns="http://www.w3.org/2000/svg">
<path d="M15.8108 7.86069C15.6179 7.82289 15.4219 7.86242 15.2587 7.97203C15.1236 8.06283 15.0244 8.19275 14.9729 8.34428L14.1344 7.97816C14.1362 7.92078 14.137 7.86424 14.137 7.80916C14.137 7.31622 14.0753 6.82675 13.9535 6.35258L14.3296 6.09747C14.568 6.30625 14.9145 6.36867 15.2178 6.2369C15.6259 6.05954 15.8214 5.58722 15.6628 5.16162L15.4858 4.68649C15.3252 4.25568 14.8635 4.0287 14.4347 4.16944C14.2177 4.2407 14.043 4.39274 13.943 4.59753C13.886 4.71401 13.8573 4.83895 13.8573 4.96449L13.4306 5.02407C13.3721 4.91692 13.3083 4.80833 13.2401 4.70015C13.1696 4.58828 13.0216 4.55478 12.9098 4.62528C12.7979 4.69581 12.7644 4.84367 12.8349 4.95555C12.9154 5.08323 12.9892 5.21117 13.0541 5.33588C13.1194 5.46091 13.2569 5.53183 13.3961 5.51241L14.1655 5.40501C14.2369 5.39504 14.3001 5.35344 14.3373 5.29176C14.3746 5.23007 14.3822 5.15485 14.3578 5.087C14.3248 4.99492 14.3303 4.89578 14.3732 4.80785C14.4161 4.72017 14.491 4.65507 14.5841 4.62448C14.7647 4.56522 14.9678 4.66806 15.037 4.85376L15.214 5.32889C15.2825 5.51277 15.1986 5.72308 15.0269 5.79773C14.8625 5.86912 14.669 5.80791 14.5765 5.65539C14.5425 5.59929 14.4869 5.5596 14.4228 5.54562C14.3587 5.5316 14.2916 5.5446 14.2373 5.58141L13.5992 6.01427C13.4808 6.09453 13.4269 6.24131 13.4651 6.3795C13.5932 6.84332 13.6581 7.32436 13.6581 7.80919C13.6581 7.88863 13.6561 7.97164 13.6522 8.05597C13.6458 8.19332 13.7261 8.32251 13.8518 8.37739L15.0482 8.89987C15.1148 8.92896 15.1909 8.92624 15.2552 8.89256C15.3195 8.85887 15.3651 8.79783 15.379 8.72656L15.417 8.53339C15.4302 8.46606 15.4689 8.40788 15.5258 8.3696C15.5828 8.33132 15.6512 8.31749 15.7186 8.33074C15.8576 8.35801 15.9486 8.49332 15.9213 8.63234L15.7251 9.63225C15.7114 9.70185 15.671 9.76121 15.6111 9.79939C15.5514 9.83755 15.4803 9.8491 15.411 9.83218C15.2801 9.80003 15.196 9.65983 15.2235 9.5196L15.2287 9.49288C15.2428 9.42075 15.2231 9.34614 15.1751 9.29048C15.1271 9.23477 15.0557 9.20399 14.9828 9.2076L13.6886 9.26663C13.5516 9.27286 13.4304 9.36475 13.3872 9.4954C13.2673 9.85741 13.1081 10.2072 12.9141 10.535C12.8419 10.657 12.8546 10.8117 12.9456 10.92L13.5182 11.6001C13.5607 11.6507 13.6222 11.6814 13.6881 11.685C13.7541 11.6886 13.8186 11.6649 13.8664 11.6194C13.9948 11.4974 14.1899 11.4869 14.3304 11.5944C14.4064 11.6526 14.4552 11.7369 14.4678 11.8318C14.4805 11.9267 14.4554 12.0208 14.3972 12.0968L14.2313 12.3136C14.1121 12.4694 13.8895 12.5094 13.7351 12.403C13.6038 12.3125 13.5477 12.1439 13.5986 11.993C13.6382 11.8755 13.5816 11.7471 13.468 11.6973L12.6432 11.335C12.512 11.2773 12.3589 11.3099 12.2621 11.4161C11.8944 11.82 11.4697 12.164 10.9999 12.4388C10.8812 12.508 10.8164 12.6455 10.8386 12.7808L11.0497 14.0683C11.0615 14.1399 11.1051 14.2024 11.1683 14.2381C11.2316 14.2738 11.3075 14.2788 11.375 14.2519L11.5577 14.1788C11.6236 14.1524 11.6954 14.1542 11.7599 14.1837C11.8245 14.2131 11.8728 14.2664 11.8962 14.3339C11.9403 14.4612 11.8683 14.6081 11.7356 14.6611L10.8025 15.0344C10.7367 15.0608 10.6649 15.059 10.6003 15.0295C10.5358 15.0001 10.4874 14.9467 10.464 14.8793C10.4199 14.752 10.4919 14.6051 10.6245 14.5521L10.6498 14.542C10.7181 14.5147 10.77 14.4576 10.7907 14.387C10.8113 14.3165 10.7985 14.2404 10.7558 14.1806L10.0031 13.1259C9.92342 13.0142 9.78041 12.9624 9.64746 12.9969C9.20861 13.1107 8.75493 13.1684 8.29899 13.1684C7.93798 13.1684 7.57607 13.1319 7.22339 13.06C7.08874 13.0326 6.94883 13.0917 6.87498 13.2073L6.12157 14.389C6.08252 14.4502 6.07339 14.5258 6.09672 14.5946C6.12 14.6634 6.17326 14.7179 6.24149 14.7427L6.26815 14.7525C6.35962 14.7858 6.43264 14.8528 6.47374 14.9411C6.51483 15.0293 6.51908 15.1283 6.48574 15.2198C6.47613 15.2461 6.47125 15.2739 6.47125 15.3018C6.47125 15.3924 6.44452 15.461 6.39599 15.495C6.34749 15.5289 6.27393 15.5306 6.18877 15.4995L5.26323 15.162C5.07789 15.0944 4.97923 14.8878 5.04324 14.7013C5.0738 14.6124 5.13957 14.5401 5.22846 14.4977C5.32236 14.4529 5.43153 14.4474 5.52785 14.4825L5.54906 14.4902C5.61805 14.5155 5.69487 14.5075 5.75732 14.4687C5.81981 14.43 5.861 14.3647 5.86907 14.2916L6.02246 12.9068C6.03756 12.7705 5.96566 12.6367 5.84356 12.5736C5.2837 12.2845 4.78277 11.902 4.35483 11.4371C4.26064 11.3346 4.11109 11.3012 3.98267 11.3539L2.8532 11.8171C2.79053 11.8428 2.74168 11.8938 2.71875 11.9576C2.6958 12.0213 2.70094 12.0918 2.73283 12.1515C2.80451 12.2856 2.76253 12.4499 2.63519 12.5336C2.50394 12.62 2.32016 12.5796 2.22565 12.4436L1.93634 12.0271C1.84356 11.8936 1.86565 11.7143 1.98663 11.6189C2.04918 11.5696 2.1268 11.5481 2.20502 11.5581C2.28385 11.5683 2.35359 11.6087 2.40145 11.672C2.44474 11.7292 2.51147 11.7641 2.58325 11.7669C2.65477 11.7696 2.72421 11.74 2.77178 11.6862L3.56732 10.7871C3.66067 10.6815 3.67741 10.5276 3.60892 10.404C3.52338 10.2497 3.44382 10.0872 3.37249 9.92107C3.32025 9.79958 3.17948 9.74336 3.05793 9.79556C2.93641 9.84776 2.88021 9.98857 2.93239 10.1101C2.99634 10.2589 3.06636 10.4051 3.14113 10.546L2.57134 11.1901C2.4797 11.1339 2.37632 11.0972 2.2662 11.083C2.05908 11.0564 1.85467 11.1132 1.69021 11.2427C1.37063 11.4946 1.30601 11.9591 1.54308 12.3003L1.83238 12.7167C2.0738 13.0642 2.55196 13.1615 2.89841 12.9337C3.15751 12.7633 3.28239 12.4661 3.2388 12.1765L4.0715 11.835C4.49915 12.2841 4.99085 12.6594 5.53555 12.9525L5.42163 13.9812C5.28491 13.9773 5.14736 14.0057 5.02227 14.0654C4.81639 14.1636 4.66297 14.3341 4.59031 14.5456C4.44209 14.9772 4.67038 15.4555 5.09918 15.6119L6.02473 15.9494C6.11761 15.9832 6.21093 16 6.30081 16C6.43619 16 6.56381 15.962 6.67061 15.8873C6.83817 15.77 6.93836 15.5735 6.94922 15.3437C7.01132 15.1435 6.99708 14.9302 6.90793 14.7388C6.85081 14.6161 6.767 14.5111 6.6633 14.4302L7.22559 13.5482C8.03306 13.6985 8.87505 13.6764 9.67077 13.4846L10.2172 14.2502C10.0021 14.4449 9.91279 14.7512 10.0115 15.0361C10.0781 15.2284 10.2166 15.3808 10.4013 15.4651C10.5835 15.5483 10.7945 15.5534 10.9804 15.479L11.9135 15.1058C12.2863 14.9566 12.4775 14.5487 12.3487 14.1771C12.2821 13.9848 12.1437 13.8324 11.9589 13.748C11.8074 13.6788 11.6357 13.6636 11.4752 13.7034L11.3273 12.8011C11.7755 12.5287 12.1845 12.1976 12.5453 11.8151L13.1025 12.0598C13.087 12.3461 13.2197 12.6294 13.4633 12.7974C13.8308 13.0506 14.3352 12.9659 14.6117 12.6047L14.7776 12.3879C14.9135 12.2103 14.9721 11.9903 14.9426 11.7686C14.9131 11.5469 14.7991 11.3499 14.6214 11.214C14.3623 11.0157 14.0239 10.989 13.7454 11.1263L13.3779 10.6898C13.5497 10.3874 13.6945 10.0689 13.8096 9.74052L14.7488 9.69767C14.7954 9.98397 15.004 10.2254 15.2969 10.2973C15.4945 10.3458 15.6977 10.3123 15.8689 10.203C16.0376 10.0953 16.1565 9.92085 16.1951 9.72439L16.3913 8.72449C16.4694 8.32631 16.209 7.93882 15.8108 7.86069Z" fill="#3C7DD2"/>
<path d="M1.63367 8.50756L2.53124 8.71487C2.55078 8.83968 2.57495 8.9664 2.60337 9.09281C2.62837 9.20417 2.72722 9.27988 2.8368 9.27985C2.85417 9.27985 2.87183 9.27793 2.88948 9.27397C3.01851 9.24498 3.09964 9.11691 3.07064 8.98786C3.03766 8.84086 3.01087 8.69364 2.99108 8.55028C2.97221 8.41385 2.86959 8.3014 2.73578 8.27052L1.46454 7.97694C1.39389 7.96062 1.31943 7.97726 1.26244 8.02218C1.20541 8.06714 1.17186 8.13553 1.17122 8.20813L1.16991 8.35695C1.16841 8.52355 1.03166 8.65912 0.865022 8.65912C0.78568 8.65912 0.711191 8.62809 0.655348 8.57174C0.599473 8.51535 0.569109 8.44064 0.569811 8.36129L0.578113 7.43779C0.578847 7.35312 0.614831 7.27027 0.676804 7.21049C0.735042 7.1543 0.808637 7.12416 0.886383 7.12646C1.04813 7.13074 1.17904 7.26599 1.17815 7.42796C1.17773 7.5013 1.21097 7.57081 1.26834 7.61653C1.32572 7.66228 1.40094 7.6792 1.47227 7.66241L2.73456 7.36643C2.86828 7.33508 2.97045 7.22234 2.98888 7.08588C3.08201 6.39517 3.30612 5.73856 3.65494 5.13422C3.72531 5.01218 3.71145 4.85823 3.62029 4.75107L3.01835 4.04411C2.97128 3.98888 2.90209 3.95784 2.82911 3.95998C2.75653 3.96209 2.68881 3.99699 2.64501 4.05487L2.59283 4.12384C2.55385 4.17537 2.49702 4.20778 2.43278 4.21515C2.36876 4.2225 2.30583 4.20366 2.25592 4.16209C2.16161 4.08351 2.1489 3.93492 2.2276 3.83086L2.62856 3.30072C2.7064 3.19782 2.85347 3.17738 2.95637 3.25525C3.05273 3.32812 3.07741 3.46499 3.0126 3.56688C2.97499 3.62604 2.96518 3.69868 2.98578 3.7657C3.00637 3.83271 3.05529 3.88734 3.11959 3.91515L3.96132 4.2792C4.09181 4.33568 4.24414 4.30293 4.34038 4.19756C4.72358 3.7778 5.16777 3.42326 5.66075 3.14382C5.78016 3.07607 5.84673 2.93955 5.82643 2.80398L5.63252 1.51381C5.62173 1.442 5.57892 1.37898 5.51618 1.34245C5.45337 1.30589 5.37738 1.29983 5.30973 1.32588L5.12604 1.39654C5.05982 1.42195 4.98805 1.4193 4.9239 1.38897C4.85979 1.35867 4.81215 1.30468 4.78971 1.23696C4.74727 1.10899 4.82125 0.963171 4.95468 0.911862L5.89261 0.551102C5.95883 0.525623 6.03061 0.528337 6.09475 0.558669C6.15887 0.588969 6.20653 0.64296 6.22898 0.710681C6.27138 0.83865 6.1974 0.984468 6.06397 1.03581L6.03862 1.04558C5.97004 1.07198 5.91736 1.1284 5.89574 1.19864C5.87416 1.26889 5.88597 1.34516 5.9279 1.40554L6.66627 2.46997C6.74437 2.58255 6.88648 2.63629 7.01991 2.60363C7.43607 2.50171 7.86653 2.45002 8.29986 2.45002H8.29999C8.44128 2.45002 8.56794 2.36097 8.61516 2.22856L8.85964 1.54446C8.88157 1.4831 8.87755 1.41541 8.84846 1.35711C8.81941 1.29877 8.76784 1.25477 8.70561 1.23533C8.52758 1.17965 8.41433 1.00481 8.4363 0.819621C8.44801 0.721089 8.49977 0.631402 8.58202 0.567066C8.66838 0.499505 8.77889 0.468439 8.88537 0.481881L9.22113 0.524154C9.43876 0.551549 9.59728 0.744046 9.57451 0.953241C9.55692 1.11474 9.44386 1.24571 9.28649 1.28689C9.17123 1.31707 9.09565 1.42741 9.10922 1.5458L9.19418 2.28712C9.21037 2.42859 9.3149 2.54424 9.4544 2.57492C9.98927 2.69242 10.5018 2.89156 10.9776 3.16672C11.0968 3.23568 11.2485 3.22381 11.3551 3.13728L12.3682 2.31496C12.4245 2.26921 12.4571 2.20034 12.4567 2.12773C12.4563 2.05516 12.423 1.98664 12.3662 1.94149L12.212 1.81911C12.1565 1.77502 12.1223 1.7118 12.1159 1.64108C12.1094 1.57048 12.1317 1.50203 12.1787 1.44829C12.2674 1.34673 12.4306 1.33645 12.5426 1.4253L13.3296 2.05018C13.3852 2.09427 13.4193 2.15749 13.4258 2.22818C13.4322 2.29877 13.4099 2.36723 13.3629 2.42099C13.2742 2.5225 13.1109 2.53278 12.9991 2.44402L12.9779 2.42716C12.9203 2.3814 12.8449 2.36467 12.7735 2.38172C12.7019 2.39877 12.6422 2.44772 12.6115 2.51448L12.0689 3.69239C12.0115 3.81697 12.0375 3.96678 12.1335 4.06515C12.1676 4.10002 12.2012 4.1361 12.2412 4.17955C12.3307 4.27687 12.4822 4.28313 12.5796 4.19354C12.6768 4.10395 12.6831 3.95248 12.5935 3.85516C12.5766 3.83674 12.5607 3.8195 12.5452 3.80299L12.9393 2.9475C13.215 3.03766 13.5253 2.96324 13.7236 2.73613C13.8575 2.58284 13.9211 2.38702 13.9027 2.18476C13.8845 1.98533 13.7842 1.7996 13.6274 1.67514L12.8403 1.0503C12.5259 0.800655 12.0768 0.837022 11.818 1.13329C11.6841 1.28658 11.6205 1.48239 11.6389 1.68466C11.6541 1.85062 11.7261 2.00714 11.8403 2.12671L11.1306 2.70286C10.667 2.44523 10.1726 2.25299 9.65845 2.13035L9.60584 1.67099C9.84923 1.53638 10.0199 1.28849 10.0508 1.00513C10.1017 0.537756 9.75638 0.10886 9.28112 0.0489941L8.94536 0.00672076C8.71337 -0.0224619 8.47336 0.0442687 8.28719 0.189831C8.10366 0.333349 7.98776 0.536958 7.96091 0.763171C7.92183 1.09203 8.07356 1.40628 8.33706 1.58399L8.1984 1.97195C7.79488 1.97885 7.39383 2.02703 7.00338 2.1155L6.46749 1.34296C6.68508 1.15126 6.77853 0.846185 6.68367 0.559978C6.61959 0.366779 6.4832 0.212564 6.29961 0.125718C6.11857 0.040118 5.90765 0.0322316 5.72077 0.104103L4.78287 0.464831C4.40807 0.608956 4.21142 1.01432 4.33521 1.38766C4.39925 1.58086 4.53562 1.73507 4.71924 1.82192C4.86988 1.89315 5.04118 1.91062 5.20229 1.87297L5.33818 2.77713C4.86535 3.05589 4.4352 3.399 4.05724 3.79881L3.51659 3.56499C3.56052 3.30902 3.46273 3.03766 3.24536 2.87323C3.09347 2.75835 2.90602 2.70941 2.71732 2.73568C2.52869 2.76183 2.36154 2.85992 2.2467 3.0118L1.84571 3.54194C1.61106 3.85209 1.65663 4.28613 1.94941 4.53003C2.10091 4.65625 2.29194 4.71343 2.48747 4.69095C2.61075 4.67681 2.72786 4.63022 2.8269 4.55797L3.18964 4.98406C2.85446 5.58869 2.63233 6.24003 2.52843 6.92285L1.60184 7.14012C1.48935 6.85941 1.21719 6.65609 0.899058 6.64769C0.691938 6.64249 0.495674 6.71972 0.344205 6.86586C0.190437 7.01426 0.101101 7.22113 0.0991533 7.43345L0.0908519 8.35702C0.089 8.56509 0.168662 8.7611 0.315118 8.9089C0.461574 9.0567 0.656881 9.13808 0.864991 9.13808C1.24334 9.13811 1.56183 8.86624 1.63367 8.50756Z" fill="#3C7DD2"/>
<path d="M7.11403 7.20033C7.23086 7.13842 7.2754 6.99347 7.21346 6.87661C7.15155 6.75981 7.00666 6.71518 6.8897 6.77718C6.31745 7.0805 5.66518 7.00033 5.33897 6.58641C5.15592 6.35423 5.09296 6.04653 5.16167 5.72006C5.2337 5.37772 5.4397 5.05809 5.74171 4.82006C6.04366 4.582 6.4026 4.45652 6.75225 4.46623C7.08574 4.47565 7.37019 4.60873 7.55327 4.84094C7.82811 5.18963 7.82463 5.7101 7.54436 6.1669C7.47521 6.27964 7.51049 6.42709 7.62326 6.49624C7.73597 6.5654 7.88341 6.53009 7.95257 6.41738C8.33897 5.78762 8.32984 5.05247 7.92936 4.54445C7.65691 4.19879 7.24366 4.001 6.76579 3.98752C6.30397 3.97411 5.83514 4.13657 5.44523 4.44394C5.05525 4.75132 4.78814 5.16952 4.69299 5.62143C4.59452 6.08925 4.69037 6.53727 4.96282 6.8829C5.2497 7.24682 5.6989 7.43826 6.18217 7.43823C6.49005 7.43823 6.81173 7.36058 7.11403 7.20033Z" fill="#3C7DD2"/>
<path d="M11.76 5.05288C11.76 4.55642 11.298 4.15253 10.7301 4.15253C10.1622 4.15253 9.7002 4.55642 9.7002 5.05288C9.7002 5.54933 10.1622 5.95323 10.7301 5.95323C11.298 5.95323 11.76 5.54933 11.76 5.05288ZM10.1792 5.05288C10.1792 4.8205 10.4263 4.63145 10.7301 4.63145C11.0339 4.63145 11.2811 4.8205 11.2811 5.05288C11.2811 5.28525 11.0339 5.4743 10.7301 5.4743C10.4263 5.4743 10.1792 5.28525 10.1792 5.05288Z" fill="#3C7DD2"/>
<path d="M8.98128 9.16842C8.98128 8.55999 8.48629 8.065 7.87786 8.065C7.2694 8.065 6.77441 8.55999 6.77441 9.16842C6.77441 9.77685 7.2694 10.2718 7.87786 10.2718C8.48629 10.2718 8.98128 9.77685 8.98128 9.16842ZM7.25337 9.16842C7.25337 8.82407 7.53351 8.54393 7.87789 8.54393C8.22221 8.54393 8.50238 8.82407 8.50238 9.16842C8.50238 9.51277 8.22224 9.79291 7.87789 9.79291C7.53351 9.79291 7.25337 9.51277 7.25337 9.16842Z" fill="#3C7DD2"/>
<path d="M12.1028 8.71831C12.1028 8.24516 11.7179 7.86023 11.2448 7.86023C10.7716 7.86023 10.3867 8.24516 10.3867 8.71831C10.3867 9.19146 10.7716 9.57639 11.2448 9.57639C11.7179 9.57635 12.1028 9.19146 12.1028 8.71831ZM10.8656 8.71831C10.8656 8.50924 11.0357 8.33916 11.2447 8.33916C11.4538 8.33916 11.6239 8.50924 11.6239 8.71831C11.6239 8.92738 11.4538 9.09746 11.2447 9.09746C11.0357 9.09743 10.8656 8.92738 10.8656 8.71831Z" fill="#3C7DD2"/>
<path d="M8.96102 12.578C9.42465 12.578 9.80189 12.2008 9.80189 11.7372C9.80189 11.2735 9.42468 10.8963 8.96102 10.8963C8.49735 10.8963 8.12012 11.2735 8.12012 11.7372C8.12012 12.2008 8.49732 12.578 8.96102 12.578ZM8.96102 11.3752C9.1606 11.3752 9.32296 11.5376 9.32296 11.7372C9.32296 11.9368 9.1606 12.0991 8.96102 12.0991C8.76143 12.0991 8.59904 11.9368 8.59904 11.7372C8.59904 11.5376 8.76143 11.3752 8.96102 11.3752Z" fill="#3C7DD2"/>
<path d="M5.19702 11.1646C5.67451 11.1646 6.06298 10.7761 6.06298 10.2986C6.06298 9.82109 5.67451 9.43262 5.19702 9.43262C4.71953 9.43262 4.33105 9.82109 4.33105 10.2986C4.33105 10.7761 4.71953 11.1646 5.19702 11.1646ZM5.19702 9.91155C5.41046 9.91155 5.58406 10.0852 5.58406 10.2986C5.58406 10.512 5.41043 10.6856 5.19702 10.6856C4.98361 10.6856 4.80998 10.512 4.80998 10.2986C4.80998 10.0852 4.98361 9.91155 5.19702 9.91155Z" fill="#3C7DD2"/>
<path d="M10.0734 7.30172C10.0734 7.16947 9.96625 7.06226 9.83397 7.06226H9.62228C9.49 7.06226 9.38281 7.16947 9.38281 7.30172C9.38281 7.43397 9.49 7.54118 9.62228 7.54118H9.83397C9.96625 7.54118 10.0734 7.43397 10.0734 7.30172Z" fill="#3C7DD2"/>
<path d="M6.79708 11.727H7.01458C7.14686 11.727 7.25404 11.6198 7.25404 11.4875C7.25404 11.3553 7.14686 11.248 7.01458 11.248H6.79708C6.6648 11.248 6.55762 11.3553 6.55762 11.4875C6.55762 11.6198 6.66483 11.727 6.79708 11.727Z" fill="#3C7DD2"/>
<path d="M4.78003 8.23961C4.91231 8.23961 5.0195 8.13239 5.0195 8.00015C5.0195 7.8679 4.91231 7.76068 4.78003 7.76068H4.57052C4.43824 7.76068 4.33105 7.8679 4.33105 8.00015C4.33105 8.13239 4.43824 8.23961 4.57052 8.23961H4.78003Z" fill="#3C7DD2"/>
<path d="M9.03396 4.05009C9.16624 4.05009 9.27343 3.94288 9.27343 3.81063C9.27343 3.67838 9.16624 3.57117 9.03396 3.57117H8.74239C8.61011 3.57117 8.50293 3.67838 8.50293 3.81063C8.50293 3.94288 8.61011 4.05009 8.74239 4.05009H9.03396Z" fill="#3C7DD2"/>
<path d="M10.6262 10.4684C10.4939 10.4684 10.3867 10.5757 10.3867 10.7079C10.3867 10.8402 10.4939 10.9474 10.6262 10.9474H10.9482C11.0804 10.9474 11.1876 10.8402 11.1876 10.7079C11.1876 10.5757 11.0804 10.4684 10.9482 10.4684H10.6262Z" fill="#3C7DD2"/>
</svg>
