<svg width="19" height="18" viewBox="0 0 19 18" fill="none" xmlns="http://www.w3.org/2000/svg">
<path d="M15.1113 0H3.07131C2.81148 0.00028123 2.56238 0.10148 2.37866 0.281394C2.19494 0.461307 2.0916 0.705242 2.09131 0.959677V16.0403C2.0916 16.2948 2.19494 16.5387 2.37866 16.7186C2.56238 16.8985 2.81148 16.9997 3.07131 17H15.1113C15.3711 16.9997 15.6202 16.8985 15.804 16.7186C15.9877 16.5387 16.091 16.2948 16.0913 16.0403V0.959677C16.091 0.705242 15.9877 0.461307 15.804 0.281394C15.6202 0.10148 15.3711 0.00028123 15.1113 0ZM15.5313 16.0403C15.5312 16.1494 15.4869 16.2539 15.4082 16.331C15.3294 16.4082 15.2227 16.4515 15.1113 16.4516H3.07131C2.95995 16.4515 2.85317 16.4082 2.77443 16.331C2.69568 16.2539 2.6514 16.1494 2.65131 16.0403V3.29032H15.5313V16.0403ZM15.5313 2.74194H2.65131V0.959677C2.6514 0.850624 2.69568 0.746064 2.77443 0.668952C2.85317 0.591839 2.95995 0.548478 3.07131 0.548387H15.1113C15.2227 0.548478 15.3294 0.591839 15.4082 0.668952C15.4869 0.746064 15.5312 0.850624 15.5313 0.959677V2.74194Z" fill="#3C7DD2"/>
<path d="M9.09131 6C8.30018 6 7.52683 6.2346 6.86903 6.67412C6.21123 7.11365 5.69854 7.73836 5.39579 8.46927C5.09304 9.20017 5.01383 10.0044 5.16817 10.7804C5.32251 11.5563 5.70347 12.269 6.26288 12.8284C6.82229 13.3878 7.53502 13.7688 8.31095 13.9231C9.08687 14.0775 9.89114 13.9983 10.622 13.6955C11.3529 13.3928 11.9777 12.8801 12.4172 12.2223C12.8567 11.5645 13.0913 10.7911 13.0913 10C13.0901 8.9395 12.6683 7.92278 11.9184 7.1729C11.1685 6.42301 10.1518 6.0012 9.09131 6ZM9.09131 13.4286C8.4132 13.4286 7.75032 13.2275 7.1865 12.8508C6.62267 12.474 6.18322 11.9385 5.92372 11.3121C5.66422 10.6856 5.59633 9.9962 5.72862 9.33112C5.86091 8.66604 6.18745 8.05513 6.66694 7.57563C7.14644 7.09614 7.75735 6.7696 8.42243 6.63731C9.08751 6.50502 9.77688 6.57291 10.4034 6.83241C11.0299 7.09191 11.5653 7.53136 11.9421 8.09519C12.3188 8.65901 12.5199 9.32189 12.5199 10C12.5189 10.909 12.1573 11.7805 11.5145 12.4232C10.8718 13.066 10.0003 13.4275 9.09131 13.4286Z" fill="#3C7DD2"/>
<path d="M3.42464 3H4.75798C4.84638 3 4.93117 2.96488 4.99368 2.90237C5.05619 2.83986 5.09131 2.75507 5.09131 2.66667V1.33333C5.09131 1.24493 5.05619 1.16014 4.99368 1.09763C4.93117 1.03512 4.84638 1 4.75798 1H3.42464C3.33624 1 3.25145 1.03512 3.18894 1.09763C3.12643 1.16014 3.09131 1.24493 3.09131 1.33333V2.66667C3.09131 2.75507 3.12643 2.83986 3.18894 2.90237C3.25145 2.96488 3.33624 3 3.42464 3ZM3.75798 1.66667H4.42464V2.33333H3.75798V1.66667Z" fill="#3C7DD2"/>
<path d="M5.42464 3H6.75798C6.84638 3 6.93117 2.96488 6.99368 2.90237C7.05619 2.83986 7.09131 2.75507 7.09131 2.66667V1.33333C7.09131 1.24493 7.05619 1.16014 6.99368 1.09763C6.93117 1.03512 6.84638 1 6.75798 1H5.42464C5.33624 1 5.25145 1.03512 5.18894 1.09763C5.12643 1.16014 5.09131 1.24493 5.09131 1.33333V2.66667C5.09131 2.75507 5.12643 2.83986 5.18894 2.90237C5.25145 2.96488 5.33624 3 5.42464 3ZM5.75798 1.66667H6.42464V2.33333H5.75798V1.66667Z" fill="#3C7DD2"/>
<path d="M7.42464 3H8.75798C8.84638 3 8.93117 2.96488 8.99368 2.90237C9.05619 2.83986 9.09131 2.75507 9.09131 2.66667V1.33333C9.09131 1.24493 9.05619 1.16014 8.99368 1.09763C8.93117 1.03512 8.84638 1 8.75798 1H7.42464C7.33624 1 7.25145 1.03512 7.18894 1.09763C7.12643 1.16014 7.09131 1.24493 7.09131 1.33333V2.66667C7.09131 2.75507 7.12643 2.83986 7.18894 2.90237C7.25145 2.96488 7.33624 3 7.42464 3ZM7.75798 1.66667H8.42464V2.33333H7.75798V1.66667Z" fill="#3C7DD2"/>
<path d="M14.1288 8.05556H13.7163C13.6799 8.05551 13.6439 8.06283 13.6104 8.07708C13.2337 7.1665 12.5991 6.38863 11.7862 5.84118C10.9733 5.29372 10.0183 5.00108 9.04131 5C6.31193 5 4.09131 7.24306 4.09131 10C4.09131 12.7569 6.31193 15 9.04131 15C10.0183 14.9989 10.9733 14.7063 11.7862 14.1588C12.5991 13.6114 13.2337 12.8335 13.6104 11.9229C13.6439 11.9372 13.6799 11.9445 13.7163 11.9444H14.1288C14.384 11.9442 14.6286 11.8416 14.8091 11.6594C14.9895 11.4771 15.091 11.23 15.0913 10.9722V9.02778C15.091 8.77002 14.9895 8.52289 14.8091 8.34063C14.6286 8.15836 14.384 8.05584 14.1288 8.05556ZM9.04131 14.4444C8.17107 14.4444 7.32038 14.1838 6.5968 13.6954C5.87322 13.2071 5.30926 12.5129 4.97624 11.7008C4.64321 10.8887 4.55608 9.99507 4.72585 9.13293C4.89563 8.27079 5.31469 7.47887 5.93004 6.8573C6.54539 6.23574 7.3294 5.81244 8.18291 5.64095C9.03643 5.46946 9.92112 5.55748 10.7251 5.89387C11.5291 6.23026 12.2163 6.79991 12.6998 7.5308C13.1833 8.26168 13.4413 9.12097 13.4413 10C13.44 11.1783 12.976 12.308 12.1511 13.1412C11.3263 13.9744 10.2079 14.4431 9.04131 14.4444ZM14.5413 10.9722C14.5412 11.0827 14.4977 11.1886 14.4204 11.2667C14.3431 11.3449 14.2382 11.3888 14.1288 11.3889H13.9913V8.61111H14.1288C14.2382 8.6112 14.3431 8.65513 14.4204 8.73325C14.4977 8.81137 14.5412 8.9173 14.5413 9.02778V10.9722Z" fill="#3C7DD2"/>
</svg>
