<svg width="30" height="22" viewBox="0 0 30 22" fill="none" xmlns="http://www.w3.org/2000/svg">
<mask id="path-1-inside-1_942_5585" fill="white">
<path fill-rule="evenodd" clip-rule="evenodd" d="M7.03404 2.41438C9.15833 2.41438 11.0301 3.49566 12.1289 5.13787C12.6599 2.29534 15.1539 0.143799 18.1504 0.143799C21.1352 0.143799 23.6213 2.27844 24.1656 5.10435C26.0639 6.145 27.351 8.16202 27.351 10.4797C27.351 10.8086 27.3251 11.1314 27.2752 11.4463C28.3193 12.1467 29.0066 13.3379 29.0066 14.6897C29.0066 16.845 27.2594 18.5923 25.1041 18.5923C24.8723 18.5923 24.6452 18.5721 24.4246 18.5333C23.719 19.5414 22.549 20.2006 21.2252 20.2006C20.3988 20.2006 19.6324 19.9438 19.0016 19.5055C17.8802 20.9366 16.1359 21.8562 14.1769 21.8562C11.4684 21.8562 9.17043 20.0984 8.36161 17.6613C8.13957 17.7433 7.89951 17.7881 7.64899 17.7881C6.99239 17.7881 6.40763 17.4806 6.03087 17.0017C5.57857 17.2031 5.07766 17.3151 4.55059 17.3151C2.53896 17.3151 0.908203 15.6843 0.908203 13.6727C0.908203 12.8437 1.18511 12.0795 1.65147 11.4673C1.17752 10.5977 0.908203 9.60038 0.908203 8.54021C0.908203 5.157 3.65083 2.41438 7.03404 2.41438ZM28.2971 4.68496C29.2376 4.68496 30 3.92253 30 2.98202C30 2.04152 29.2376 1.27909 28.2971 1.27909C27.3566 1.27909 26.5941 2.04152 26.5941 2.98202C26.5941 3.92253 27.3566 4.68496 28.2971 4.68496ZM6.68899 9.70338C7.02568 9.51256 7.41243 9.4321 7.79608 9.47305C8.22253 9.51812 8.62064 9.71073 8.92335 10.0184C9.22607 10.3261 9.41491 10.7301 9.45807 11.1624C9.4973 11.5513 9.4167 11.9429 9.22735 12.2835C9.038 12.6241 8.7492 12.8969 8.40064 13.0644C8.05208 13.2319 7.66087 13.2859 7.28079 13.219C6.90072 13.1521 6.55042 12.9675 6.27806 12.6907C6.0057 12.4138 5.82464 12.0583 5.75977 11.6729C5.69491 11.2876 5.74941 10.8914 5.9158 10.5387C6.08219 10.186 6.35229 9.89419 6.68899 9.70338ZM7.13558 12.247C7.31941 12.346 7.52923 12.3842 7.73557 12.3561C7.95261 12.3267 8.15401 12.2256 8.3086 12.0684C8.46319 11.9113 8.56235 11.7069 8.59072 11.4869C8.61776 11.2777 8.57943 11.0652 8.48113 10.8792C8.38282 10.6933 8.22949 10.5432 8.04267 10.4501C7.85585 10.357 7.64493 10.3256 7.43957 10.3602C7.23421 10.3949 7.04473 10.4938 6.89775 10.6432C6.75077 10.7926 6.65368 10.985 6.62014 11.1932C6.58659 11.4014 6.61827 11.615 6.71072 11.804C6.80318 11.993 6.95176 12.1479 7.13558 12.247ZM10.2697 9.59118C10.3281 9.56285 10.392 9.54806 10.4568 9.5479H13.1816C13.2049 9.54797 13.2278 9.55464 13.2476 9.56714C13.2674 9.57964 13.2834 9.59749 13.2937 9.61869C13.3041 9.63988 13.3084 9.66358 13.3062 9.68713C13.304 9.71068 13.2954 9.73314 13.2813 9.752L11.3963 12.2798H12.8733C12.938 12.2799 13.0019 12.2948 13.0603 12.3231C13.1187 12.3515 13.1701 12.3927 13.2109 12.4437C13.2516 12.4947 13.2805 12.5543 13.2957 12.6181C13.3108 12.6819 13.3117 12.7483 13.2983 12.8125C13.2574 13.0206 13.0655 13.1627 12.8567 13.1627H9.89764C9.87452 13.1626 9.85189 13.156 9.83227 13.1436C9.81266 13.1312 9.79684 13.1135 9.78659 13.0925C9.77634 13.0715 9.77206 13.048 9.77423 13.0247C9.77641 13.0014 9.78495 12.9791 9.79891 12.9605L11.6854 10.4307H10.4732C10.2643 10.4307 10.0725 10.2886 10.0316 10.0806C10.0182 10.0164 10.0191 9.94994 10.0342 9.88613C10.0494 9.82232 10.0784 9.76274 10.1191 9.71172C10.1599 9.6607 10.2113 9.61952 10.2697 9.59118ZM22.0343 9.71903C22.0961 9.63847 22.1832 9.58169 22.2812 9.55809C22.3448 9.54391 22.4107 9.54438 22.4741 9.55946C22.5375 9.57454 22.5968 9.60385 22.6475 9.64523C22.6982 9.6866 22.7392 9.73899 22.7673 9.79852C22.7954 9.85806 22.8099 9.92322 22.8098 9.98921V13.0353C22.8099 13.0591 22.8033 13.0825 22.7908 13.1027C22.7784 13.1229 22.7605 13.1392 22.7394 13.1495C22.7182 13.1599 22.6946 13.1641 22.6712 13.1615C22.6478 13.1589 22.6256 13.1496 22.6072 13.1348L20.2567 11.2394V12.722C20.2568 12.788 20.2422 12.8532 20.2142 12.9127C20.1861 12.9723 20.1452 13.0247 20.0944 13.0661C20.0437 13.1075 19.9844 13.1368 19.921 13.1519C19.8576 13.167 19.7916 13.1674 19.728 13.1533C19.63 13.1297 19.543 13.0729 19.4812 12.9923C19.4194 12.9118 19.3865 12.8122 19.3881 12.7102V9.67521C19.3881 9.65136 19.3947 9.62798 19.4071 9.60776C19.4196 9.58753 19.4374 9.57129 19.4586 9.56089C19.4798 9.55049 19.5034 9.54636 19.5268 9.54897C19.5502 9.55159 19.5724 9.56084 19.5909 9.57566L21.9413 11.471V10.0011C21.9397 9.89912 21.9725 9.79959 22.0343 9.71903ZM17.8983 11.3548C17.8983 10.8786 17.1554 10.3462 16.1612 10.3462C15.167 10.3462 14.4242 10.8786 14.4242 11.3548C14.4242 11.831 15.167 12.3634 16.1612 12.3634C17.1554 12.3634 17.8983 11.831 17.8983 11.3548ZM13.5556 11.3548C13.5556 10.3102 14.7222 9.46344 16.1612 9.46344C17.6002 9.46344 18.7668 10.3102 18.7668 11.3548C18.7668 12.3994 17.6003 13.2462 16.1612 13.2462C14.7222 13.2462 13.5556 12.3994 13.5556 11.3548Z"/>
</mask>
<path d="M12.1289 5.13787L11.7134 5.41592L12.3953 6.43503L12.6204 5.22967L12.1289 5.13787ZM24.1656 5.10435L23.6746 5.1989L23.719 5.42978L23.9252 5.5428L24.1656 5.10435ZM27.2752 11.4463L26.7813 11.368L26.7313 11.6836L26.9966 11.8616L27.2752 11.4463ZM24.4246 18.5333L24.511 18.0408L24.1975 17.9858L24.0149 18.2466L24.4246 18.5333ZM19.0016 19.5055L19.2868 19.0949L18.8991 18.8256L18.608 19.1972L19.0016 19.5055ZM8.36161 17.6613L8.83616 17.5039L8.67335 17.0133L8.18845 17.1923L8.36161 17.6613ZM6.03087 17.0017L6.42382 16.6925L6.1831 16.3866L5.82746 16.5449L6.03087 17.0017ZM1.65147 11.4673L2.04919 11.7703L2.24556 11.5126L2.09051 11.2281L1.65147 11.4673ZM7.79608 9.47305L7.74301 9.97022L7.74352 9.97028L7.79608 9.47305ZM6.68899 9.70338L6.93552 10.1384H6.93552L6.68899 9.70338ZM8.92335 10.0184L9.27978 9.66777H9.27978L8.92335 10.0184ZM9.45807 11.1624L8.96055 11.2121L8.9606 11.2126L9.45807 11.1624ZM9.22735 12.2835L8.79034 12.0406H8.79034L9.22735 12.2835ZM8.40064 13.0644L8.18406 12.6137L8.18405 12.6137L8.40064 13.0644ZM7.28079 13.219L7.3675 12.7266L7.28079 13.219ZM5.75977 11.6729L5.26671 11.7559L5.26671 11.7559L5.75977 11.6729ZM5.9158 10.5387L6.368 10.752V10.752L5.9158 10.5387ZM7.73557 12.3561L7.66837 11.8606L7.66822 11.8607L7.73557 12.3561ZM7.13558 12.247L7.37272 11.8068L7.37272 11.8068L7.13558 12.247ZM8.59072 11.4869L8.09485 11.4228L8.09483 11.4229L8.59072 11.4869ZM8.48113 10.8792L8.92317 10.6456L8.92317 10.6456L8.48113 10.8792ZM8.04267 10.4501L7.81967 10.8976L8.04267 10.4501ZM7.43957 10.3602L7.52275 10.8532L7.52275 10.8532L7.43957 10.3602ZM6.89775 10.6432L6.54131 10.2926L6.54131 10.2926L6.89775 10.6432ZM6.71072 11.804L7.15987 11.5843L7.15987 11.5843L6.71072 11.804ZM10.4568 9.5479V9.0479L10.4556 9.0479L10.4568 9.5479ZM13.1816 9.5479L13.1831 9.0479H13.1816V9.5479ZM13.2476 9.56714L13.5144 9.1443L13.5144 9.14429L13.2476 9.56714ZM13.3062 9.68713L12.8084 9.64077V9.64077L13.3062 9.68713ZM13.2813 9.752L12.8808 9.45273L12.8805 9.45309L13.2813 9.752ZM11.3963 12.2798L10.9955 11.9809L10.3997 12.7798H11.3963V12.2798ZM12.8733 12.2798L12.8747 11.7798H12.8733V12.2798ZM13.2109 12.4437L13.6017 12.1318L13.6017 12.1318L13.2109 12.4437ZM13.2957 12.6181L13.7822 12.5027L13.7822 12.5027L13.2957 12.6181ZM13.2983 12.8125L12.8088 12.7105L12.8078 12.7159L13.2983 12.8125ZM9.89764 13.1627L9.89566 13.6627H9.89764V13.1627ZM9.83227 13.1436L9.56517 13.5662L9.56518 13.5662L9.83227 13.1436ZM9.77423 13.0247L9.2764 12.9783V12.9783L9.77423 13.0247ZM9.79891 12.9605L10.1995 13.2597L10.1997 13.2594L9.79891 12.9605ZM11.6854 10.4307L12.0862 10.7296L12.6819 9.93073H11.6854V10.4307ZM10.0316 10.0806L10.5222 9.98394L10.521 9.9786L10.0316 10.0806ZM10.0342 9.88613L9.54777 9.77064L9.54777 9.77064L10.0342 9.88613ZM10.1191 9.71172L9.72837 9.39977L9.72837 9.39977L10.1191 9.71172ZM22.2812 9.55809L22.1724 9.06999L22.1641 9.072L22.2812 9.55809ZM22.0343 9.71903L21.6376 9.4147L21.6376 9.41471L22.0343 9.71903ZM22.4741 9.55946L22.5898 9.07304L22.5898 9.07304L22.4741 9.55946ZM22.6475 9.64523L22.9635 9.25775L22.9635 9.25775L22.6475 9.64523ZM22.7673 9.79852L23.2194 9.58515L23.2194 9.58514L22.7673 9.79852ZM22.8098 9.98921L22.3098 9.98869V9.98921H22.8098ZM22.8098 13.0353H22.3098L22.3098 13.0365L22.8098 13.0353ZM22.7394 13.1495L22.519 12.7007L22.519 12.7007L22.7394 13.1495ZM22.6712 13.1615L22.7267 12.6646L22.7267 12.6646L22.6712 13.1615ZM22.6072 13.1348L22.2933 13.524L22.2938 13.5244L22.6072 13.1348ZM20.2567 11.2394L20.5705 10.8502L19.7567 10.1939V11.2394H20.2567ZM20.2567 12.722H19.7567V12.7227L20.2567 12.722ZM20.2142 12.9127L19.7619 12.6995L19.7619 12.6995L20.2142 12.9127ZM19.728 13.1533L19.6109 13.6394L19.6192 13.6413L19.728 13.1533ZM19.4812 12.9923L19.0844 13.2966L19.0844 13.2967L19.4812 12.9923ZM19.3881 12.7102L19.8881 12.718V12.7102H19.3881ZM19.3881 9.67521H19.8881L19.8881 9.67389L19.3881 9.67521ZM19.4071 9.60776L19.8327 9.87018L19.8327 9.87015L19.4071 9.60776ZM19.4586 9.56089L19.2382 9.11208H19.2382L19.4586 9.56089ZM19.5909 9.57566L19.9047 9.18644L19.9042 9.18605L19.5909 9.57566ZM21.9413 11.471L21.6275 11.8602L22.4413 12.5165V11.471H21.9413ZM21.9413 10.0011H22.4414L22.4413 9.99335L21.9413 10.0011ZM12.5445 4.85981C11.3568 3.08482 9.3322 1.91438 7.03404 1.91438V2.91438C8.98447 2.91438 10.7034 3.9065 11.7134 5.41592L12.5445 4.85981ZM18.1504 -0.356201C14.9088 -0.356201 12.2118 1.97123 11.6374 5.04606L12.6204 5.22967C13.108 2.61945 15.399 0.643799 18.1504 0.643799V-0.356201ZM24.6565 5.0098C24.0678 1.95297 21.3793 -0.356201 18.1504 -0.356201V0.643799C20.891 0.643799 23.1748 2.60392 23.6746 5.1989L24.6565 5.0098ZM27.851 10.4797C27.851 7.97218 26.4579 5.79079 24.4059 4.66591L23.9252 5.5428C25.6699 6.49921 26.851 8.35186 26.851 10.4797H27.851ZM27.769 11.5246C27.823 11.1839 27.851 10.8349 27.851 10.4797H26.851C26.851 10.7823 26.8271 11.079 26.7813 11.368L27.769 11.5246ZM29.5066 14.6897C29.5066 13.1643 28.7304 11.8203 27.5537 11.0311L26.9966 11.8616C27.9083 12.473 28.5066 13.5116 28.5066 14.6897H29.5066ZM25.1041 19.0923C27.5355 19.0923 29.5066 17.1212 29.5066 14.6897H28.5066C28.5066 16.5689 26.9832 18.0923 25.1041 18.0923V19.0923ZM24.3381 19.0258C24.5872 19.0695 24.8432 19.0923 25.1041 19.0923V18.0923C24.9014 18.0923 24.7033 18.0746 24.511 18.0408L24.3381 19.0258ZM21.2252 20.7006C22.7191 20.7006 24.039 19.956 24.8342 18.82L24.0149 18.2466C23.3989 19.1267 22.379 19.7006 21.2252 19.7006V20.7006ZM18.7163 19.9162C19.4283 20.4107 20.2936 20.7006 21.2252 20.7006V19.7006C20.504 19.7006 19.8366 19.4768 19.2868 19.0949L18.7163 19.9162ZM14.1769 22.3562C16.2961 22.3562 18.1831 21.3608 19.3951 19.8139L18.608 19.1972C17.5773 20.5125 15.9758 21.3562 14.1769 21.3562V22.3562ZM7.88707 17.8188C8.76171 20.4543 11.2465 22.3562 14.1769 22.3562V21.3562C11.6902 21.3562 9.57914 19.7425 8.83616 17.5039L7.88707 17.8188ZM7.64899 18.2881C7.95948 18.2881 8.25812 18.2325 8.53478 18.1304L8.18845 17.1923C8.02102 17.2541 7.83954 17.2881 7.64899 17.2881V18.2881ZM5.63791 17.3109C6.10539 17.905 6.83259 18.2881 7.64899 18.2881V17.2881C7.15219 17.2881 6.70987 17.0561 6.42382 16.6925L5.63791 17.3109ZM4.55059 17.8151C5.14909 17.8151 5.7192 17.6878 6.23427 17.4584L5.82746 16.5449C5.43795 16.7184 5.00623 16.8151 4.55059 16.8151V17.8151ZM0.408203 13.6727C0.408203 15.9604 2.26281 17.8151 4.55059 17.8151V16.8151C2.8151 16.8151 1.4082 15.4082 1.4082 13.6727H0.408203ZM1.25374 11.1643C0.723353 11.8605 0.408203 12.7305 0.408203 13.6727H1.4082C1.4082 12.957 1.64686 12.2984 2.04919 11.7703L1.25374 11.1643ZM0.408203 8.54021C0.408203 9.68605 0.699481 10.7654 1.21243 11.7066L2.09051 11.2281C1.65556 10.43 1.4082 9.51472 1.4082 8.54021H0.408203ZM7.03404 1.91438C3.37469 1.91438 0.408203 4.88086 0.408203 8.54021H1.4082C1.4082 5.43314 3.92697 2.91438 7.03404 2.91438V1.91438ZM29.5 2.98202C29.5 3.64639 28.9614 4.18496 28.2971 4.18496V5.18496C29.5137 5.18496 30.5 4.19867 30.5 2.98202H29.5ZM28.2971 1.77909C28.9614 1.77909 29.5 2.31766 29.5 2.98202H30.5C30.5 1.76538 29.5137 0.779088 28.2971 0.779088V1.77909ZM27.0941 2.98202C27.0941 2.31766 27.6327 1.77909 28.2971 1.77909V0.779088C27.0804 0.779088 26.0941 1.76538 26.0941 2.98202H27.0941ZM28.2971 4.18496C27.6327 4.18496 27.0941 3.64639 27.0941 2.98202H26.0941C26.0941 4.19867 27.0804 5.18496 28.2971 5.18496V4.18496ZM7.84915 8.97587C7.36125 8.92379 6.86976 9.02621 6.44245 9.26838L6.93552 10.1384C7.18159 9.99891 7.46361 9.9404 7.74301 9.97022L7.84915 8.97587ZM9.27978 9.66777C8.8964 9.27807 8.39113 9.03316 7.84864 8.97582L7.74352 9.97028C8.05394 10.0031 8.34488 10.1434 8.56693 10.3691L9.27978 9.66777ZM9.9556 11.1127C9.90118 10.5678 9.66303 10.0573 9.27978 9.66777L8.56693 10.3691C8.7891 10.5949 8.92863 10.8925 8.96055 11.2121L9.9556 11.1127ZM9.66435 12.5265C9.90348 12.0963 10.005 11.6024 9.95555 11.1122L8.9606 11.2126C8.98961 11.5002 8.92992 11.7895 8.79034 12.0406L9.66435 12.5265ZM8.61722 13.5151C9.05972 13.3024 9.42518 12.9567 9.66435 12.5265L8.79034 12.0406C8.65082 12.2915 8.43867 12.4914 8.18406 12.6137L8.61722 13.5151ZM7.19409 13.7114C7.67737 13.7965 8.17463 13.7278 8.61722 13.5151L8.18405 12.6137C7.92953 12.7361 7.64437 12.7753 7.3675 12.7266L7.19409 13.7114ZM5.92163 13.0413C6.26647 13.3918 6.71085 13.6263 7.19409 13.7114L7.3675 12.7266C7.09058 12.6778 6.83437 12.5432 6.63449 12.34L5.92163 13.0413ZM5.26671 11.7559C5.34849 12.2417 5.57688 12.6909 5.92163 13.0413L6.63449 12.34C6.43452 12.1367 6.3008 11.8748 6.25284 11.5899L5.26671 11.7559ZM5.4636 10.3253C5.25357 10.7705 5.18494 11.2702 5.26671 11.7559L6.25284 11.5899C6.20487 11.305 6.24525 11.0122 6.368 10.752L5.4636 10.3253ZM6.44246 9.26838C6.01524 9.5105 5.67367 9.88008 5.4636 10.3253L6.368 10.752C6.49072 10.4919 6.68935 10.2779 6.93552 10.1384L6.44246 9.26838ZM7.66822 11.8607C7.56697 11.8744 7.46372 11.8558 7.37272 11.8068L6.89844 12.6871C7.1751 12.8362 7.49149 12.8939 7.80292 12.8516L7.66822 11.8607ZM7.95217 11.7178C7.87473 11.7965 7.77484 11.8462 7.66837 11.8606L7.80277 12.8516C8.13037 12.8071 8.43329 12.6546 8.66503 12.4191L7.95217 11.7178ZM8.09483 11.4229C8.08032 11.5354 8.02971 11.6389 7.95217 11.7178L8.66503 12.4191C8.89668 12.1836 9.04439 11.8783 9.08662 11.5508L8.09483 11.4229ZM8.03909 11.1129C8.08898 11.2073 8.10868 11.3157 8.09485 11.4228L9.0866 11.5509C9.12683 11.2396 9.06988 10.9231 8.92317 10.6456L8.03909 11.1129ZM7.81967 10.8976C7.91214 10.9437 7.98924 11.0186 8.03909 11.1129L8.92317 10.6456C8.77641 10.3679 8.54684 10.1427 8.26567 10.0026L7.81967 10.8976ZM7.52275 10.8532C7.62355 10.8362 7.72729 10.8516 7.81967 10.8976L8.26567 10.0026C7.9844 9.86242 7.66632 9.8149 7.3564 9.86718L7.52275 10.8532ZM7.25418 10.9939C7.32784 10.919 7.4219 10.8703 7.52275 10.8532L7.3564 9.86718C7.04653 9.91945 6.76162 10.0687 6.54131 10.2926L7.25418 10.9939ZM7.11377 11.2727C7.13092 11.1662 7.18044 11.0688 7.25418 10.9939L6.54131 10.2926C6.3211 10.5164 6.17644 10.8037 6.1265 11.1136L7.11377 11.2727ZM7.15987 11.5843C7.1129 11.4883 7.09661 11.3792 7.11377 11.2727L6.1265 11.1136C6.07657 11.4235 6.12364 11.7417 6.26158 12.0237L7.15987 11.5843ZM7.37272 11.8068C7.28163 11.7577 7.20681 11.6803 7.15987 11.5843L6.26158 12.0237C6.39955 12.3058 6.62189 12.5382 6.89844 12.6871L7.37272 11.8068ZM10.4556 9.0479C10.3154 9.04824 10.1774 9.08025 10.0515 9.14133L10.488 10.041C10.4789 10.0454 10.4686 10.0479 10.458 10.0479L10.4556 9.0479ZM13.1816 9.0479H10.4568V10.0479H13.1816V9.0479ZM13.5144 9.14429C13.4155 9.08188 13.3008 9.04827 13.1831 9.0479L13.18 10.0479C13.109 10.0477 13.04 10.0274 12.9807 9.98999L13.5144 9.14429ZM13.7429 9.39913C13.6921 9.29517 13.6133 9.20669 13.5144 9.1443L12.9807 9.98998C12.9215 9.9526 12.8746 9.89982 12.8445 9.83824L13.7429 9.39913ZM13.8041 9.73349C13.8148 9.61876 13.7937 9.50303 13.7429 9.39913L12.8445 9.83824C12.8145 9.77673 12.8021 9.70841 12.8084 9.64077L13.8041 9.73349ZM13.6819 10.0513C13.7513 9.9583 13.7934 9.84823 13.8041 9.73348L12.8084 9.64077C12.8147 9.57313 12.8395 9.50798 12.8808 9.45273L13.6819 10.0513ZM11.7971 12.5787L13.6821 10.0509L12.8805 9.45309L10.9955 11.9809L11.7971 12.5787ZM12.8733 11.7798H11.3963V12.7798H12.8733V11.7798ZM13.2787 11.8733C13.1529 11.8122 13.0149 11.7802 12.8747 11.7798L12.8718 12.7798C12.8612 12.7797 12.851 12.7773 12.8419 12.7729L13.2787 11.8733ZM13.6017 12.1318C13.5148 12.0229 13.4046 11.9344 13.2787 11.8733L12.8419 12.7729C12.8329 12.7685 12.8255 12.7624 12.82 12.7555L13.6017 12.1318ZM13.7822 12.5027C13.7501 12.3675 13.6886 12.2408 13.6017 12.1318L12.82 12.7555C12.8145 12.7487 12.811 12.7411 12.8092 12.7335L13.7822 12.5027ZM13.7878 12.9145C13.8162 12.7785 13.8142 12.6379 13.7822 12.5027L12.8092 12.7335C12.8074 12.7259 12.8073 12.7181 12.8089 12.7105L13.7878 12.9145ZM12.8567 13.6627C13.2802 13.6627 13.6973 13.3745 13.7889 12.9091L12.8078 12.7159C12.8123 12.6927 12.8251 12.6775 12.8337 12.6708C12.841 12.6651 12.8484 12.6627 12.8567 12.6627V13.6627ZM9.89764 13.6627H12.8567V12.6627H9.89764V13.6627ZM9.56518 13.5662C9.66384 13.6286 9.77829 13.6622 9.89566 13.6627L9.89962 12.6627C9.97075 12.6629 10.0399 12.6833 10.0994 12.7209L9.56518 13.5662ZM9.33729 13.3119C9.38794 13.4156 9.46657 13.5039 9.56517 13.5662L10.0994 12.7209C10.1587 12.7584 10.2057 12.8113 10.2359 12.8731L9.33729 13.3119ZM9.2764 12.9783C9.26572 13.0927 9.28666 13.2082 9.33729 13.3119L10.2359 12.8731C10.266 12.9348 10.2784 13.0033 10.2721 13.0711L9.2764 12.9783ZM9.39834 12.6612C9.32905 12.754 9.28708 12.8638 9.2764 12.9783L10.2721 13.0711C10.2657 13.139 10.2409 13.2043 10.1995 13.2597L9.39834 12.6612ZM11.2845 10.1318L9.39808 12.6616L10.1997 13.2594L12.0862 10.7296L11.2845 10.1318ZM10.4732 10.9307H11.6854V9.93073H10.4732V10.9307ZM9.54098 10.1772C9.63262 10.6424 10.0495 10.9307 10.4732 10.9307V9.93073C10.4814 9.93073 10.4889 9.93318 10.4962 9.93889C10.5049 9.94561 10.5176 9.96082 10.5221 9.98395L9.54098 10.1772ZM9.54777 9.77064C9.51567 9.90585 9.51373 10.0465 9.54207 10.1825L10.521 9.9786C10.5226 9.98621 10.5225 9.99402 10.5207 10.0016L9.54777 9.77064ZM9.72837 9.39977C9.64142 9.50869 9.57987 9.63543 9.54777 9.77064L10.5207 10.0016C10.5189 10.0092 10.5154 10.0168 10.5099 10.0237L9.72837 9.39977ZM10.0515 9.14133C9.92561 9.20239 9.81534 9.29083 9.72837 9.39977L10.5099 10.0237C10.5044 10.0306 10.497 10.0367 10.488 10.041L10.0515 9.14133ZM22.1641 9.072C21.9539 9.12263 21.7685 9.2441 21.6376 9.4147L22.4311 10.0234C22.4238 10.0328 22.4125 10.0408 22.3983 10.0442L22.1641 9.072ZM22.5898 9.07304C22.4527 9.04042 22.31 9.03939 22.1724 9.07006L22.39 10.0461C22.3796 10.0484 22.3687 10.0483 22.3584 10.0459L22.5898 9.07304ZM22.9635 9.25775C22.8546 9.16893 22.727 9.10566 22.5898 9.07304L22.3584 10.0459C22.3481 10.0434 22.3389 10.0388 22.3315 10.0327L22.9635 9.25775ZM23.2194 9.58514C23.1597 9.45853 23.0724 9.34654 22.9635 9.25775L22.3315 10.0327C22.3241 10.0267 22.3186 10.0194 22.3151 10.0119L23.2194 9.58514ZM23.3098 9.98973C23.31 9.84997 23.2792 9.71173 23.2194 9.58515L22.3151 10.0119C22.3115 10.0044 22.3098 9.99647 22.3098 9.98869L23.3098 9.98973ZM23.3098 13.0353V9.98921H22.3098V13.0353H23.3098ZM23.2164 13.3652C23.278 13.2654 23.3101 13.1506 23.3098 13.034L22.3098 13.0365C22.3097 12.9676 22.3287 12.8996 22.3653 12.8402L23.2164 13.3652ZM22.9597 13.5984C23.0662 13.5461 23.1549 13.465 23.2164 13.3652L22.3653 12.8402C22.4019 12.7809 22.4549 12.7322 22.519 12.7007L22.9597 13.5984ZM22.6157 13.6584C22.734 13.6716 22.8533 13.6506 22.9598 13.5984L22.519 12.7007C22.5831 12.6693 22.6552 12.6566 22.7267 12.6646L22.6157 13.6584ZM22.2938 13.5244C22.3859 13.5985 22.4974 13.6452 22.6157 13.6584L22.7267 12.6646C22.7982 12.6725 22.8653 12.7008 22.9205 12.7451L22.2938 13.5244ZM19.9428 11.6286L22.2933 13.524L22.921 12.7456L20.5705 10.8502L19.9428 11.6286ZM20.7567 12.722V11.2394H19.7567V12.722H20.7567ZM20.6664 13.126C20.7261 12.9994 20.7569 12.8611 20.7567 12.7213L19.7567 12.7227C19.7567 12.7149 19.7584 12.707 19.7619 12.6995L20.6664 13.126ZM20.4105 13.4535C20.5194 13.3647 20.6067 13.2527 20.6664 13.126L19.7619 12.6995C19.7655 12.6919 19.7709 12.6847 19.7784 12.6787L20.4105 13.4535ZM20.0367 13.6383C20.1739 13.6057 20.3015 13.5424 20.4105 13.4535L19.7784 12.6787C19.7858 12.6726 19.7949 12.6679 19.8053 12.6655L20.0367 13.6383ZM19.6192 13.6413C19.7568 13.672 19.8996 13.6709 20.0367 13.6383L19.8053 12.6655C19.8156 12.663 19.8264 12.6629 19.8368 12.6652L19.6192 13.6413ZM19.0844 13.2967C19.2153 13.4673 19.4008 13.5887 19.6109 13.6394L19.8451 12.6672C19.8593 12.6706 19.8706 12.6785 19.8779 12.688L19.0844 13.2967ZM18.8882 12.7024C18.8848 12.9165 18.9537 13.1262 19.0844 13.2966L19.8779 12.688C19.8851 12.6973 19.8882 12.708 19.8881 12.718L18.8882 12.7024ZM18.8881 9.67521V12.7102H19.8881V9.67521H18.8881ZM18.9815 9.34534C18.92 9.44514 18.8878 9.55992 18.8881 9.67653L19.8881 9.67389C19.8883 9.74281 19.8693 9.81083 19.8327 9.87018L18.9815 9.34534ZM19.2382 9.11208C19.1318 9.16433 19.0431 9.24549 18.9815 9.34537L19.8327 9.87015C19.7961 9.92958 19.7431 9.97824 19.679 10.0097L19.2382 9.11208ZM19.5824 9.05206C19.4641 9.03884 19.3447 9.05979 19.2382 9.11208L19.679 10.0097C19.6149 10.0412 19.5428 10.0539 19.4713 10.0459L19.5824 9.05206ZM19.9042 9.18605C19.8122 9.11202 19.7007 9.06528 19.5824 9.05206L19.4713 10.0459C19.3998 10.0379 19.3327 10.0097 19.2775 9.96528L19.9042 9.18605ZM22.2552 11.0818L19.9047 9.18644L19.277 9.96488L21.6275 11.8602L22.2552 11.0818ZM21.4413 10.0011V11.471H22.4413V10.0011H21.4413ZM21.6376 9.41471C21.5069 9.58518 21.438 9.79482 21.4414 10.0089L22.4413 9.99335C22.4414 10.0034 22.4382 10.014 22.4311 10.0234L21.6376 9.41471ZM16.1612 10.8462C16.5726 10.8462 16.9141 10.9571 17.1387 11.0966C17.3896 11.2526 17.3983 11.3724 17.3983 11.3548H18.3983C18.3983 10.861 18.0355 10.4766 17.6665 10.2473C17.2711 10.0016 16.744 9.84623 16.1612 9.84623V10.8462ZM14.9242 11.3548C14.9242 11.3724 14.9328 11.2526 15.1838 11.0966C15.4084 10.9571 15.7498 10.8462 16.1612 10.8462V9.84623C15.5784 9.84623 15.0514 10.0016 14.656 10.2473C14.287 10.4766 13.9242 10.861 13.9242 11.3548H14.9242ZM16.1612 11.8634C15.7498 11.8634 15.4084 11.7526 15.1838 11.613C14.9328 11.4571 14.9242 11.3372 14.9242 11.3548H13.9242C13.9242 11.8486 14.287 12.2331 14.656 12.4624C15.0514 12.7081 15.5784 12.8634 16.1612 12.8634V11.8634ZM17.3983 11.3548C17.3983 11.3372 17.3896 11.4571 17.1387 11.613C16.9141 11.7526 16.5726 11.8634 16.1612 11.8634V12.8634C16.744 12.8634 17.2711 12.7081 17.6665 12.4624C18.0355 12.2331 18.3983 11.8486 18.3983 11.3548H17.3983ZM16.1612 8.96344C15.3477 8.96344 14.5909 9.20207 14.0251 9.61278C13.4598 10.0231 13.0556 10.6327 13.0556 11.3548H14.0556C14.0556 11.0323 14.2347 10.6963 14.6125 10.422C14.9898 10.1482 15.5357 9.96344 16.1612 9.96344V8.96344ZM19.2668 11.3548C19.2668 10.6327 18.8626 10.0231 18.2973 9.61279C17.7316 9.20208 16.9747 8.96344 16.1612 8.96344V9.96344C16.7867 9.96344 17.3327 10.1482 17.7099 10.422C18.0877 10.6963 18.2668 11.0323 18.2668 11.3548H19.2668ZM16.1612 13.7462C16.9747 13.7462 17.7316 13.5076 18.2974 13.0969C18.8626 12.6866 19.2668 12.0769 19.2668 11.3548H18.2668C18.2668 11.6773 18.0877 12.0134 17.7099 12.2876C17.3327 12.5615 16.7868 12.7462 16.1612 12.7462V13.7462ZM13.0556 11.3548C13.0556 12.0769 13.4598 12.6866 14.0251 13.0969C14.5909 13.5076 15.3477 13.7462 16.1612 13.7462V12.7462C15.5357 12.7462 14.9898 12.5615 14.6125 12.2876C14.2347 12.0134 14.0556 11.6773 14.0556 11.3548H13.0556Z" fill="#3C7DD2" mask="url(#path-1-inside-1_942_5585)"/>
</svg>
