<svg width="85" height="85" viewBox="0 0 85 85" fill="none" xmlns="http://www.w3.org/2000/svg">
<g clip-path="url(#clip0_242_3478)">
<path d="M40.0478 62.9015C39.4085 62.4323 38.5088 62.5693 38.039 63.2089L37.8615 63.4505C37.3922 64.0897 37.5288 64.988 38.1673 65.4583C38.4238 65.6474 38.7226 65.7387 39.0187 65.7387C39.4591 65.7387 39.8939 65.5368 40.1755 65.1553L40.3556 64.9104C40.8252 64.2708 40.6874 63.3713 40.0478 62.9015Z" fill="white"/>
<path d="M40.4225 76.5735L36.7265 69.8528L40.1773 65.1529C40.6473 64.5132 40.5093 63.6138 39.8695 63.1439C39.2298 62.674 38.3303 62.8119 37.8607 63.4519L33.8667 68.8914C33.5355 69.3423 33.4963 69.9443 33.7657 70.4345L37.9042 77.9585V77.9584C38.166 78.434 38.6576 78.7031 39.1647 78.7031C39.399 78.703 39.6364 78.6457 39.856 78.525C40.5513 78.1427 40.805 77.2689 40.4225 76.5735Z" fill="white"/>
<path d="M51.134 68.8914L47.1563 63.474C46.8264 63.0249 46.2674 62.8066 45.7206 62.9148C45.1739 63.0222 44.7387 63.4363 44.6036 63.9767C44.4998 64.3917 44.5863 64.831 44.8395 65.1758L48.2734 69.8528L44.6026 76.5278C44.4861 76.7398 44.4248 76.9789 44.4248 77.2211C44.4248 77.877 44.8691 78.4498 45.5044 78.613C45.6234 78.6437 45.7435 78.6585 45.862 78.6585C46.3765 78.6585 46.8641 78.3809 47.1212 77.9139L51.2348 70.4349C51.5045 69.9443 51.465 69.3423 51.134 68.8914Z" fill="white"/>
<path d="M53.4111 46.3072C52.9384 46.059 52.367 46.0929 51.9272 46.3961C51.0724 46.9849 50.2792 47.6088 49.5696 48.2501C45.7021 51.7464 42.0277 51.2733 41.8838 51.2527C41.7971 51.2391 41.7089 51.2328 41.6218 51.2356C40.0933 51.2748 37.3374 49.8781 34.422 47.5884C33.9761 47.2383 33.5189 46.9046 33.0623 46.5964C32.6221 46.2989 32.0531 46.2689 31.584 46.5184C31.1146 46.7678 30.8213 47.2558 30.8213 47.7874V52.7175C30.8213 53.1534 31.0197 53.5655 31.3597 53.8384C31.3999 53.8708 31.4417 53.9007 31.4849 53.9282L41.6751 60.7375C41.6767 60.7385 41.6782 60.7399 41.6799 60.741L41.7068 60.759C41.9467 60.9177 42.2231 60.9978 42.5005 60.9978C42.7339 60.9978 42.9673 60.9412 43.1807 60.8272C43.2257 60.8031 43.2688 60.7767 43.3103 60.7485C43.3152 60.7453 43.32 60.7422 43.3249 60.7389C43.3306 60.7352 43.3362 60.7314 43.3419 60.7276L53.508 53.9344C53.5489 53.9085 53.5887 53.8806 53.6271 53.8507C53.9759 53.5784 54.1797 53.1606 54.1797 52.718V47.5796C54.1797 47.0453 53.8839 46.5558 53.4111 46.3072ZM51.3053 51.9488L42.5003 57.8324L33.6955 51.9486V50.6416C35.8395 52.1997 38.9933 54.1107 41.564 54.1105C41.5693 54.1105 41.5753 54.1105 41.5808 54.1105C42.4439 54.206 46.8455 54.4654 51.3057 50.5528V51.9488H51.3053Z" fill="white"/>
<path d="M43.9178 59.3248C43.823 58.7548 43.3958 58.2971 42.8337 58.163C42.2712 58.0297 41.6839 58.2447 41.3419 58.7105L38.0386 63.2097C37.5688 63.8495 37.7066 64.749 38.3466 65.2187C38.6028 65.4069 38.9006 65.4976 39.1959 65.4976C39.6379 65.4976 40.0738 65.2942 40.3557 64.9106L43.6417 60.4351C43.8286 60.1907 43.9375 59.8866 43.9375 59.5615C43.9374 59.4825 43.9307 59.4028 43.9178 59.3248Z" fill="white"/>
<path d="M64.3941 12.9944C64.3656 12.7692 63.6924 7.91061 59.119 5.99396C59.2518 5.14063 59.2378 4.04393 58.6961 2.97695C57.968 1.5429 56.5311 0.608399 54.4252 0.199004C54.3349 0.181406 54.2432 0.172607 54.1511 0.172607H34.8622C27.0299 0.172607 20.6577 6.54463 20.6577 14.3773V21.9461C20.6577 23.918 21.3299 25.841 22.5501 27.3604C23.1551 28.1138 23.9002 29.4294 24.0126 31.4186C24.0564 32.1953 24.7065 32.7954 25.488 32.7738C26.2656 32.7519 26.8845 32.1151 26.8845 31.3373V21.4693C27.8603 17.4336 31.1908 16.6482 31.7634 16.5421H38.0026C38.7365 16.5421 39.4582 16.4301 40.148 16.2089C41.3343 15.8284 43.2165 15.1282 44.5868 14.6077C45.5035 14.2592 46.5185 14.2464 47.4444 14.5718L54.1239 16.9166C57.4631 18.1485 58.0591 21.08 58.133 21.5405V33.3836C58.133 34.1358 58.7129 34.7599 59.463 34.8158C59.4995 34.8185 59.5353 34.82 59.5712 34.82C60.2761 34.8198 60.8847 34.3033 60.9915 33.5956C60.9971 33.5586 61.5709 29.8519 63.4213 26.8842C64.0651 25.8511 64.4056 24.6732 64.4056 23.4779V13.1758C64.4056 13.1152 64.4018 13.0546 64.3941 12.9944ZM61.5312 23.4773C61.5312 24.1192 61.3501 24.7561 61.0071 25.3224V21.4422C61.0071 21.3903 61.0042 21.3386 60.9986 21.287C60.976 21.0783 60.3822 16.1533 55.1054 14.2149C55.0989 14.2126 55.0924 14.2103 55.0859 14.2079L48.3963 11.8595C47.6421 11.5947 46.853 11.4625 46.0645 11.4625C45.2165 11.4625 44.3689 11.6154 43.5659 11.9209C41.6474 12.6497 40.1618 13.1861 39.2701 13.472C38.8645 13.602 38.438 13.668 38.0024 13.668H31.6471C31.5855 13.668 31.5238 13.672 31.4625 13.6798C31.2193 13.7114 25.4873 14.5265 24.0448 20.992C24.0219 21.0948 24.0102 21.1997 24.0102 21.3049V24.2627C23.6973 23.5395 23.5316 22.7496 23.5316 21.9463V14.3776C23.5316 8.13008 28.6145 3.04717 34.8619 3.04717H54.006C54.7986 3.21601 55.7618 3.56249 56.1272 4.26739C56.5746 5.13018 56.0649 6.31819 56.0644 6.31918C55.8807 6.71015 55.8828 7.16288 56.0696 7.55218C56.2565 7.94149 56.6088 8.22604 57.0288 8.32714C60.6875 9.20786 61.4337 12.7169 61.531 13.2845V23.4773H61.5312Z" fill="white"/>
<path d="M60.9993 21.287C60.9767 21.0784 60.3829 16.1533 55.106 14.2149C55.0996 14.2126 55.0931 14.2103 55.0866 14.208L48.397 11.8595C46.8315 11.31 45.1162 11.3319 43.5664 11.9206C41.648 12.6494 40.1623 13.1858 39.2706 13.4718C38.865 13.6018 38.4385 13.6677 38.0029 13.6677H31.6476C31.5861 13.6677 31.5243 13.6717 31.463 13.6795C31.2198 13.7111 25.4878 14.5262 24.0453 20.9917C24.0224 21.0945 24.0107 21.1994 24.0107 21.3046V33.6589C24.0107 33.6695 24.0109 33.6801 24.0111 33.6908C24.0205 34.1199 24.3242 44.2547 31.3267 48.8897L31.3629 48.9152C31.393 48.9365 31.423 48.9577 31.4544 48.9788C31.8537 49.2484 32.2546 49.5411 32.6467 49.8489C34.6867 51.4508 38.5312 54.1105 41.564 54.1105C41.5696 54.1105 41.5749 54.1105 41.5807 54.1105C41.7454 54.1286 42.0394 54.1529 42.4382 54.1529C44.157 54.1529 47.8239 53.7025 51.4969 50.3822C52.1133 49.8252 52.8064 49.2803 53.5578 48.7627L53.6652 48.6875C53.7002 48.6627 53.7353 48.6378 53.7714 48.6136C56.1073 47.0447 60.1528 42.9966 61.0021 33.5115C61.0059 33.469 61.0079 33.426 61.0079 33.3831V21.4423C61.0077 21.3905 61.0048 21.3388 60.9993 21.287ZM58.1333 33.3182C57.3503 41.8783 53.703 45.1968 52.1687 46.2273C52.1143 46.264 52.0605 46.3018 52.0067 46.3397L51.927 46.3958C51.0722 46.9846 50.279 47.6085 49.5694 48.2499C45.7163 51.7332 42.0539 51.2763 41.8742 51.2511C41.7907 51.2386 41.7061 51.2333 41.6216 51.2356C40.093 51.2748 37.3372 49.8781 34.4218 47.5884C33.9759 47.2381 33.5186 46.9045 33.0628 46.5968L33.0274 46.5719C32.9929 46.5474 32.9585 46.523 32.918 46.4961C27.2671 42.7559 26.8974 34.0034 26.885 33.6381V21.4692C27.8643 17.4187 31.2153 16.6422 31.7615 16.542H38.0031C38.737 16.542 39.4587 16.4299 40.1485 16.2088C41.3348 15.8283 43.2171 15.128 44.5873 14.6076C45.504 14.2591 46.519 14.2463 47.4449 14.5717L54.1244 16.9165C57.4636 18.1483 58.0596 21.0799 58.1335 21.5404V33.3182H58.1333Z" fill="white"/>
<path d="M43.7858 58.9188C43.5619 58.4709 43.1209 58.1719 42.622 58.1294C42.124 58.0883 41.6382 58.3072 41.3419 58.711L37.8994 63.3996C37.4301 64.0391 37.5672 64.9379 38.2062 65.4079C38.4625 65.5965 38.7609 65.6876 39.0565 65.6876C39.4975 65.6876 39.9328 65.4853 40.2145 65.1029L43.6572 60.4316C43.8393 60.1845 43.9376 59.8688 43.9376 59.562C43.9377 59.339 43.8854 59.1186 43.7858 58.9188Z" fill="white"/>
<path d="M43.8774 82.0577C43.3375 81.4931 42.4455 81.463 41.8691 81.9905L41.5405 82.291C41.0486 82.7407 40.9306 83.4699 41.2557 84.0519L41.2658 84.07C41.4853 84.4633 41.8767 84.7309 42.3228 84.7929C42.3889 84.802 42.455 84.8065 42.5207 84.8065C42.899 84.8065 43.2654 84.6569 43.5369 84.3854L43.8551 84.0669C44.4074 83.5145 44.4174 82.622 43.8774 82.0577Z" fill="white"/>
<path d="M43.4592 82.2911L43.1307 81.9906C42.5543 81.4633 41.6621 81.4934 41.1222 82.0578C40.5822 82.6226 40.5921 83.5153 41.1446 84.0675L41.4634 84.386C41.7348 84.6575 42.1011 84.8069 42.4794 84.8069C42.547 84.8069 42.6149 84.8022 42.6828 84.7924C43.1304 84.7285 43.5218 84.4574 43.7395 84.061L43.7496 84.0429C44.068 83.4618 43.9482 82.7382 43.4592 82.2911Z" fill="white"/>
<path d="M43.4838 82.3133L43.482 82.3116C43.26 82.1041 42.973 81.9673 42.6567 81.9326C42.2332 81.8864 41.8207 82.0299 41.5207 82.3093L41.5163 82.3133C41.2258 82.5782 41.0567 82.9509 41.0482 83.3441C41.0397 83.7375 41.1928 84.1169 41.4715 84.3941L41.4866 84.4092C41.767 84.688 42.1334 84.8272 42.5 84.8272C42.8679 84.8272 43.2356 84.6868 43.516 84.4066L43.5311 84.3915C43.8087 84.1137 43.9608 83.7347 43.9516 83.3422C43.943 82.9496 43.7738 82.5779 43.4838 82.3133Z" fill="white"/>
<path d="M42.9662 58.1703C42.371 57.9798 41.7179 58.2007 41.3555 58.7104C40.9501 59.2812 41.017 60.0589 41.5109 60.5552C41.7888 60.8344 42.1577 60.9775 42.5294 60.9775C42.8181 60.9775 43.1083 60.8912 43.3586 60.7149C43.7411 60.4458 43.9688 60.0075 43.9688 59.5396V59.5362C43.9688 58.9108 43.562 58.3604 42.9662 58.1703Z" fill="white"/>
<path d="M43.668 58.6985L43.6557 58.6819C43.2869 58.1829 42.6395 57.9773 42.0503 58.1714C41.4611 58.3655 41.063 58.916 41.063 59.5362V59.5608C41.063 60.0899 41.36 60.5722 41.8262 60.8225C42.0373 60.9359 42.2704 60.9919 42.5032 60.9919C42.7839 60.9919 43.0643 60.9105 43.3054 60.7508C43.6339 60.5333 43.8589 60.1903 43.9274 59.8024C43.996 59.4145 43.9022 59.0153 43.668 58.6985Z" fill="white"/>
<path d="M59.5962 54.1837C59.4472 53.7901 59.1333 53.4816 58.7372 53.3398L53.227 51.3646C53.1823 51.3486 53.136 51.3343 53.0898 51.323C52.6965 51.2246 52.2798 51.2968 51.9428 51.5223L41.7332 58.3445C41.7305 58.3464 41.7275 58.3482 41.7247 58.3502L42.5264 59.5422L41.7068 58.3623C41.4073 58.5604 41.1928 58.864 41.1058 59.2123C41.058 59.4035 41.0502 59.6033 41.0826 59.7977C41.1196 60.0198 41.2082 60.2303 41.3417 60.4121L48.8166 70.5924C49.0882 70.9626 49.5192 71.1791 49.9747 71.1791C50.0059 71.1791 50.0373 71.1779 50.0687 71.1757C50.5582 71.1435 50.9977 70.8643 51.2341 70.4342L59.5112 55.3851C59.7142 55.0162 59.7452 54.577 59.5962 54.1837ZM49.8007 67.0763L44.5471 59.921L52.9379 54.3142L56.1807 55.4768L49.8007 67.0763Z" fill="white"/>
<path d="M43.916 59.3132C43.8485 58.9274 43.6265 58.5859 43.3011 58.3676L33.0574 51.5226C32.7314 51.3045 32.3294 51.2298 31.9464 51.3148C31.8877 51.3277 31.8299 51.3446 31.7733 51.3649L26.2631 53.3402C25.867 53.4821 25.553 53.7906 25.4041 54.184C25.2552 54.5776 25.2861 55.0166 25.4889 55.3855L33.766 70.4345C34.0024 70.8645 34.4418 71.1439 34.9314 71.1761C34.9626 71.1781 34.994 71.1791 35.0252 71.1791C35.4808 71.1791 35.9116 70.9626 36.1837 70.5922L40.1777 65.1527C40.1808 65.1486 40.184 65.1441 40.1871 65.1396L43.6587 60.4113C43.8905 60.0955 43.9834 59.6991 43.916 59.3132ZM37.8611 63.451C37.8576 63.4557 37.8543 63.4603 37.8508 63.465L35.199 67.0767L28.819 55.4769L32.062 54.3145L40.4526 59.9214L37.8611 63.451Z" fill="white"/>
<path d="M84.9292 78.7171L83.0753 67.5221C82.491 63.9941 80.0392 61.0465 76.6763 59.8303L58.741 53.3414C58.188 53.1415 57.5699 53.2982 57.1791 53.7368C56.7883 54.1756 56.7038 54.8081 56.9661 55.3342L60.7108 62.8438L57.0363 62.9004C56.5374 62.9082 56.0781 63.1738 55.8232 63.6028C55.5682 64.0318 55.554 64.5621 55.7854 65.0042L57.2925 67.8817L41.8691 81.9909C41.8533 82.0054 41.8379 82.02 41.8228 82.0351L41.5044 82.3535C41.0533 82.8047 40.9535 83.4993 41.2598 84.0591L41.2711 84.0796C41.5233 84.5402 42.0067 84.827 42.532 84.827H79.748C81.2941 84.827 82.754 84.1508 83.7536 82.9717C84.7533 81.7927 85.1818 80.2418 84.9292 78.7171ZM81.5619 81.1129C81.109 81.6468 80.4479 81.9529 79.7481 81.9529H46.1688L60.0495 69.2553C60.531 68.8152 60.6555 68.1062 60.3527 67.5283L59.415 65.7381L63.0385 65.6823C63.5324 65.6749 63.9874 65.414 64.2442 64.9922C64.5007 64.57 64.5228 64.0461 64.3025 63.604L61.1421 57.2662L75.6993 62.5327C78.0858 63.396 79.8258 65.4878 80.2404 67.9914L82.0943 79.1864C82.0943 79.1866 82.0943 79.1866 82.0943 79.1866C82.2085 79.877 82.0146 80.5789 81.5619 81.1129Z" fill="white"/>
<path d="M43.4962 82.325L43.4794 82.3099C42.9107 81.7949 42.0371 81.8178 41.4959 82.362L41.4809 82.3771C41.0717 82.7888 40.9504 83.4064 41.1731 83.9423C41.3961 84.4784 41.9197 84.8275 42.5001 84.8275H42.5317C43.1258 84.8275 43.6589 84.4616 43.8724 83.9073C44.0864 83.3526 43.9368 82.7237 43.4962 82.325Z" fill="white"/>
<path d="M43.451 82.2835C43.1248 81.9898 42.6824 81.8611 42.2491 81.935C41.8163 82.0082 41.4407 82.2757 41.2296 82.6605L41.2196 82.6786C40.9166 83.2309 41.0088 83.9162 41.4469 84.3691L41.452 84.3744C41.7336 84.6655 42.1088 84.8122 42.485 84.8122C42.8311 84.8122 43.1782 84.6877 43.4532 84.4365L43.4683 84.4229C43.5988 84.304 43.7063 84.1616 43.7854 84.0036C44.0747 83.4253 43.9316 82.7158 43.451 82.2835Z" fill="white"/>
<path d="M43.5131 82.3711L43.5072 82.365C43.5034 82.3611 43.4994 82.3572 43.4957 82.3535L43.177 82.0351C43.162 82.02 43.1466 82.0052 43.131 81.9911L27.7076 67.8819L29.2149 65.0043C29.4464 64.5624 29.432 64.032 29.1772 63.603C28.9222 63.1742 28.463 62.9084 27.9641 62.9006L24.2893 62.844L28.034 55.3344C28.2963 54.8085 28.2116 54.1758 27.821 53.737C27.4304 53.2982 26.8114 53.1413 26.2591 53.3415L8.32391 59.8304C4.96109 61.0465 2.50903 63.9941 1.92482 67.5223L0.0709221 78.7173C-0.181588 80.2426 0.247065 81.7932 1.24681 82.9721C2.24673 84.151 3.70684 84.8271 5.25245 84.8271H42.5001C43.0822 84.8271 43.6066 84.476 43.8284 83.9381C44.0504 83.4002 43.9259 82.7813 43.5131 82.3711ZM5.25261 81.9531C4.55269 81.9531 3.89161 81.6469 3.43905 81.113C2.98649 80.5793 2.79259 79.8772 2.90681 79.1866L4.76071 67.9916C5.17525 65.4876 6.91526 63.3961 9.30174 62.5329L23.8589 57.2663L20.6986 63.6038C20.4781 64.0459 20.5 64.5699 20.7568 64.992C21.0133 65.4141 21.4687 65.6747 21.9626 65.6822L25.5861 65.7381L24.6484 67.5283C24.3458 68.106 24.4703 68.8152 24.9514 69.2553L38.8322 81.9531H5.25261Z" fill="white"/>
<path d="M47.3915 64.6727C47.4953 64.2576 47.4088 63.8182 47.1556 63.4734L43.6583 58.7105C43.2908 58.2098 42.6427 58.0108 42.0526 58.2043C41.7341 58.3088 41.4716 58.5196 41.2969 58.7891L37.8636 63.4476C37.8144 63.514 37.7707 63.5854 37.7337 63.6595C37.4985 64.1301 37.5392 64.6916 37.8396 65.1234L39.3018 67.223L37.7442 77.0407C37.6942 77.3559 37.7507 77.6787 37.9044 77.9584L41.241 84.0248C41.4935 84.4842 41.9763 84.7694 42.5002 84.7694C43.0243 84.7694 43.5069 84.4842 43.7594 84.0248L47.1209 77.9134C47.2375 77.7013 47.2987 77.463 47.2987 77.221V77.2201C47.2987 77.1448 47.2926 77.0694 47.281 76.9949L45.7306 67.2232L47.1769 65.1466C47.2762 65.0029 47.3494 64.842 47.3915 64.6727ZM42.5002 80.3504L40.6599 77.0047L42.2311 67.102C42.2894 66.7351 42.2032 66.3602 41.991 66.0556L40.7868 64.326L42.5044 61.9955L44.2309 64.3469L43.0411 66.0556C42.8289 66.36 42.7429 66.7351 42.801 67.102L44.3651 76.9595L42.5002 80.3504Z" fill="white"/>
</g>
<defs>
<clipPath id="clip0_242_3478">
<rect width="85" height="85" fill="white"/>
</clipPath>
</defs>
</svg>
